<?xml version="1.0" encoding="utf-8"?>
<!-- Generator: Adobe Illustrator 16.0.0, SVG Export Plug-In . SVG Version: 6.00 Build 0)  -->
<!DOCTYPE svg PUBLIC "-//W3C//DTD SVG 1.1//EN" "http://www.w3.org/Graphics/SVG/1.1/DTD/svg11.dtd">
<svg version="1.1" xmlns="http://www.w3.org/2000/svg" xmlns:xlink="http://www.w3.org/1999/xlink" x="0px" y="0px" width="448px"
	 height="250px" viewBox="0 0 448 250" enable-background="new 0 0 448 250" xml:space="preserve">
<g id="Layer_1">
</g>
<g id="Layer_2">
	<g>
		<path fill-rule="evenodd" clip-rule="evenodd" fill="#CC0055" d="M142.068,39H120v-7.925l-21,18l21,17.999V61h22.068
			c1.105,0,1.932-1.82,1.932-2.925V40.074C144,38.971,143.174,39,142.068,39z"/>
		<path fill-rule="evenodd" clip-rule="evenodd" fill="#CC0055" d="M276,49.075l-21-18V39h-21.932c-1.104,0-2.068-0.029-2.068,1.074
			v18.001c0,1.104,0.965,2.925,2.068,2.925H255v6.074L276,49.075z"/>
		<circle fill-rule="evenodd" clip-rule="evenodd" fill="#CC0055" cx="189.568" cy="48.575" r="26.5"/>
		<g id="Ellipse_3_8_">
			<g>
				<circle fill="#FFFFFF" cx="189.568" cy="48.575" r="19.5"/>
			</g>
		</g>
		<g id="Ellipse_3_6_">
			<g>
				<circle fill="#FFFFFF" cx="197.523" cy="64.074" r="19.5"/>
			</g>
		</g>
		<path fill="#CC0055" d="M318.068,85.075c-12.383-20.735-32.873-5.56-29.914,1.815c1.059,2.64,7.939,18.168,7.914,18.185
			c-0.031,0.021-5.883-12.753-10.311-22.132c-9.818-20.794-29.898-5.322-28.781,4.009c0.75,2.188,5.998,13.016,7.688,16.563
			c2.93,6.146,5.404,10.559,5.404,10.559s-2.58-4.399-5.623-10.401c-0.484-0.916-7.186-14.331-8.094-16.22
			c-10.416-15.643-29.783-2.512-25.283,8.623c5.092,12.595,11.34,24.075,14,30c-19.037-37.694-35.018-70.114-41-82
			c-4.201-8.349-12.701-9.265-19-6c-5.084,2.636-9.002,7.712-6,16c8.51,23.495,30.4,76.2,50,109c-31.08-34.916-49.436-26.425-49-10
			c40.838,55.9,61.49,48.792,90.203,74.85c0,0,25.836,0.279,38.908-19.505c11.953-18.092,39.688-19.898,39.688-19.898
			C340.742,132.764,330.131,105.271,318.068,85.075z"/>
	</g>
</g>
</svg>
