<?xml version="1.0" encoding="utf-8"?>
<!-- Generator: Adobe Illustrator 16.0.0, SVG Export Plug-In . SVG Version: 6.00 Build 0)  -->
<!DOCTYPE svg PUBLIC "-//W3C//DTD SVG 1.1//EN" "http://www.w3.org/Graphics/SVG/1.1/DTD/svg11.dtd">
<svg version="1.1" xmlns="http://www.w3.org/2000/svg" xmlns:xlink="http://www.w3.org/1999/xlink" x="0px" y="0px" width="448px"
	 height="250px" viewBox="0 0 448 250" enable-background="new 0 0 448 250" xml:space="preserve">
<g id="Layer_1">
</g>
<g id="Layer_2">
	<g>
		<g id="overlay_12_">
			<g>
				<rect x="208.986" y="25.006" fill="#FFFFFF" width="115" height="113.998"/>
			</g>
		</g>
		<path fill-rule="evenodd" clip-rule="evenodd" fill="#FFBB00" d="M323.991,124.953C323.964,69.747,279,25,224,25v0.006
			c-6,0-10.007,4.477-10.007,9.998c0,5.523,4.476,10,9.997,10c0.043,0,0.084-0.006,0.127-0.007
			c44.098,0.072,79.827,35.813,79.876,79.916c-0.002,0.03-0.007,0.06-0.007,0.091c0,5.523,4.478,10.002,10.001,10.002
			c5.521,0,10.002-4.479,10.002-10.002C323.989,124.986,323.991,124.971,323.991,124.953z"/>
		<g id="PAUSE_Button_4_">
			<g>
				<path fill-rule="evenodd" clip-rule="evenodd" fill="#FFBB00" d="M214.986,89.006h-22c-1.104,0-2,0.895-2,1.998v70.002
					c0,1.104,0.896,1.998,2,1.998h22c1.105,0,2-0.895,2-1.998V91.004C216.986,89.9,216.092,89.006,214.986,89.006z M254.986,89.006
					h-22c-1.104,0-2,0.895-2,1.998v70.002c0,1.104,0.896,1.998,2,1.998h22c1.105,0,2-0.895,2-1.998V91.004
					C256.986,89.9,256.092,89.006,254.986,89.006z"/>
			</g>
		</g>
		<path fill="#FFBB00" fill-opacity="0.25" d="M319.984,152.133c0-5.523-4.477-10-10-10c-4.563,0-8.404,3.059-9.604,7.236
			l-0.164-0.043c-10.297,32.291-40.527,55.684-76.23,55.684c-44.188,0-80.008-35.822-80.008-80.008
			c0-35.76,23.465-66.031,55.832-76.281c4.146-1.22,7.174-5.047,7.174-9.588c0-5.523-4.477-10-10-10
			c-1.012,0-1.986,0.153-2.906,0.432l-0.004-0.012c-40.617,12.716-70.09,50.641-70.09,95.449c0,55.229,44.773,99.998,100.002,99.998
			c44.057,0,81.438-28.499,94.768-68.06C319.537,155.514,319.984,153.876,319.984,152.133z"/>
	</g>
</g>
</svg>
