<?xml version="1.0" encoding="utf-8"?>
<!-- Generator: Adobe Illustrator 16.0.0, SVG Export Plug-In . SVG Version: 6.00 Build 0)  -->
<!DOCTYPE svg PUBLIC "-//W3C//DTD SVG 1.1//EN" "http://www.w3.org/Graphics/SVG/1.1/DTD/svg11.dtd">
<svg version="1.1" xmlns="http://www.w3.org/2000/svg" xmlns:xlink="http://www.w3.org/1999/xlink" x="0px" y="0px" width="448px"
	 height="250px" viewBox="0 0 448 250" enable-background="new 0 0 448 250" xml:space="preserve">
<g id="Layer_1">
</g>
<g id="Layer_2">
	<g id="Fast_performe_3_">
		<g id="line_x5F_speed_10_">
			<g>
				<path fill-rule="evenodd" clip-rule="evenodd" fill="#00BB55" d="M73.726,176.139l0.259,0.967l32.841-8.801l-0.259-0.965
					L73.726,176.139z M148.958,135.525l-0.259-0.965l-45.398,12.164l0.259,0.965L148.958,135.525z M75.009,161.1l-28.979,7.764
					l0.259,0.967l28.979-7.766L75.009,161.1z M97.348,161.082l0.259,0.967l28.012-7.506l-0.259-0.967L97.348,161.082z"/>
			</g>
		</g>
		<g id="line_x5F_speed_8_">
			<g>
				<path fill-rule="evenodd" clip-rule="evenodd" fill="#00BB55" d="M150.495,132c-1.381,0-2.5,1.119-2.5,2.5
					c0,1.379,1.119,2.5,2.5,2.5s2.5-1.121,2.5-2.5C152.995,133.119,151.876,132,150.495,132z M104.995,147.5
					c0-1.381-1.119-2.5-2.5-2.5s-2.5,1.119-2.5,2.5s1.119,2.5,2.5,2.5S104.995,148.881,104.995,147.5z M125.495,151
					c-1.381,0-2.5,1.119-2.5,2.5c0,1.379,1.119,2.5,2.5,2.5s2.5-1.121,2.5-2.5C127.995,152.119,126.876,151,125.495,151z
					 M97.495,159c-1.381,0-2.5,1.119-2.5,2.5c0,1.379,1.119,2.5,2.5,2.5s2.5-1.121,2.5-2.5C99.995,160.119,98.876,159,97.495,159z
					 M106.495,165c-1.381,0-2.5,1.119-2.5,2.5s1.119,2.5,2.5,2.5s2.5-1.119,2.5-2.5S107.876,165,106.495,165z M74.495,174
					c-1.381,0-2.5,1.119-2.5,2.5s1.119,2.498,2.5,2.498s2.5-1.117,2.5-2.498S75.876,174,74.495,174z M74.495,159
					c-1.381,0-2.5,1.119-2.5,2.5c0,1.379,1.119,2.5,2.5,2.5s2.5-1.121,2.5-2.5C76.995,160.119,75.876,159,74.495,159z M46.495,167
					c-1.381,0-2.5,1.119-2.5,2.5c0,1.379,1.119,2.5,2.5,2.5s2.5-1.121,2.5-2.5C48.995,168.119,47.876,167,46.495,167z"/>
			</g>
		</g>
		<g id="rocket_4_">
			<g>
				<path fill="#00BB55" d="M292.813,92.141l5.358,1.078l-8.162,5.793l9.866,0.465l-1.995,3.398l7.565,2.031l-5.017-18.414
					L292.813,92.141z M403.133,67.402l-11.384,3c-4.041-3.15-15.126-10.328-32.436-10.402l10.603,38.92
					c15.371-8.848,21.283-21.02,22.995-25.393l11.094-2.924L403.133,67.402z M341.039,62.408
					c-11.994,3.16-38.486,19.639-38.486,19.639l7.012,25.742c0,0,31.489,1.168,43.303-1.945c5.392-1.422,10.032-3.289,14.136-5.375
					L356.006,60.1C351.397,60.316,346.434,60.984,341.039,62.408z M348.774,92.441c-4.617,1.217-9.363-1.479-10.6-6.02
					c-1.237-4.541,1.502-9.209,6.119-10.426c4.617-1.219,9.362,1.477,10.6,6.02C356.131,86.557,353.392,91.225,348.774,92.441z"/>
			</g>
		</g>
		<g id="logo_css3_4_">
			<g>
				<path fill-rule="evenodd" clip-rule="evenodd" fill="#00BB55" d="M170.995,76.998l10,102l40,11.002l40-11.002l10-101.998
					L170.995,76.998z M245.995,161.998l-25,7l-25-7l-2-20h12l1,10l14,4l14-4l1-16h-43l-1-13h45l1-12.002h-47l-1-13h61
					L245.995,161.998z"/>
			</g>
		</g>
	</g>
</g>
</svg>
