<?xml version="1.0" encoding="utf-8"?>
<!-- Generator: Adobe Illustrator 16.0.0, SVG Export Plug-In . SVG Version: 6.00 Build 0)  -->
<!DOCTYPE svg PUBLIC "-//W3C//DTD SVG 1.1//EN" "http://www.w3.org/Graphics/SVG/1.1/DTD/svg11.dtd">
<svg version="1.1" xmlns="http://www.w3.org/2000/svg" xmlns:xlink="http://www.w3.org/1999/xlink" x="0px" y="0px" width="448px"
	 height="250px" viewBox="0 0 448 250" enable-background="new 0 0 448 250" xml:space="preserve">
<g id="Layer_1">
</g>
<g id="Layer_2">
	<g id="Lazyload_2_">
		<g id="Rounded_Rectangle_6_4_">
			<g>
				<path fill="#9900AA" d="M152.218,73.499h-75c-1.104,0-2,0.896-2,2.002v17c0,1.104,0.896,2,2,2h75c1.104,0,2-0.896,2-2v-17
					C154.218,74.396,153.322,73.499,152.218,73.499z"/>
			</g>
		</g>
		<g id="Rectangle_3_4_">
			<g>
				<path fill-rule="evenodd" clip-rule="evenodd" fill="#FFFFFF" d="M80.218,90.501h1v-13h-1V90.501z M88.218,90.501h1v-13h-1
					V90.501z M96.218,90.501h1v-13h-1V90.501z M92.218,90.501h1v-13h-1V90.501z M100.218,90.501h1v-13h-1V90.501z M84.218,90.501h1
					v-13h-1V90.501z M104.218,90.501h1v-13h-1V90.501z M112.218,90.501h1v-13h-1V90.501z M120.218,90.501h1v-13h-1V90.501z
					 M116.218,90.501h1v-13h-1V90.501z M124.218,90.501h1v-13h-1V90.501z M108.218,90.501h1v-13h-1V90.501z M132.218,90.501h1v-13
					h-1V90.501z M128.218,90.501h1v-13h-1V90.501z M136.218,90.501h1v-13h-1V90.501z M144.218,90.501h1v-13h-1V90.501z
					 M140.218,90.501h1v-13h-1V90.501z M148.218,77.501v13h1v-13H148.218z"/>
			</g>
		</g>
		<g>
			<g opacity="0.25">
				<path fill-rule="evenodd" clip-rule="evenodd" fill="#9900AA" d="M239.782,101.501c0-1.105-0.46-1.501-1.564-1.501h-71
					c-1.104,0-2.436,0.396-2.436,1.501v17c0,1.104,1.331,2.499,2.436,2.499h71c1.104,0,1.564-1.396,1.564-2.499V101.501z
					 M289.782,126.501c0-1.105-0.46-1.501-1.564-1.501h-46c-1.104,0-2.436,0.396-2.436,1.501v17c0,1.104,1.331,2.499,2.436,2.499h46
					c1.104,0,1.564-1.396,1.564-2.499V126.501z M371.218,150h-79c-1.104,0-2.436,0.396-2.436,1.501v17
					c0,1.104,1.331,2.499,2.436,2.499h79c1.104,0,1.564-1.396,1.564-2.499v-17C372.782,150.396,372.322,150,371.218,150z"/>
			</g>
			<path fill="#9900AA" d="M238.218,100h-4v1h4V100L238.218,100L238.218,100z M230.218,100h-4v1h4V100L230.218,100z M222.218,100h-4
				v1h4V100L222.218,100z M214.218,100h-4v1h4V100L214.218,100z M206.218,100h-4v1h4V100L206.218,100z M198.218,100h-4v1h4V100
				L198.218,100z M190.218,100h-4v1h4V100L190.218,100z M182.218,100h-4v1h4V100L182.218,100z M174.218,100h-4v1h4V100L174.218,100z
				 M166.226,100.11c-0.641,0.15-1.204,0.466-1.384,1.009l0,0c-0.003,0.009-0.006,0.019-0.009,0.027l0,0
				c-0.001,0.003-0.002,0.006-0.003,0.009l0,0c-0.001,0.003-0.002,0.007-0.003,0.011l0,0c-0.001,0.003-0.002,0.006-0.002,0.008
				c0,0.001,0,0.001,0,0.001c-0.001,0.003-0.002,0.005-0.003,0.008l0,0c0,0.001,0,0.002,0,0.003c0,0-0.001,0-0.001,0.001
				c0,0.002-0.001,0.005-0.002,0.007c0,0.001,0,0.001,0,0.001c0,0.001,0,0.002-0.001,0.003l0,0c0,0.002,0,0.004-0.001,0.005v0.001
				c0,0.001,0,0.002-0.001,0.002c0,0.001,0,0.001,0,0.001c0,0.002-0.001,0.003-0.001,0.005l0,0c0,0.001-0.001,0.002-0.001,0.003
				v0.001c0,0.002-0.001,0.005-0.002,0.008l0,0c0,0.001,0,0.002,0,0.003l-0.001,0.001c0,0.001,0,0.003-0.001,0.004
				c0,0.001,0,0.001,0,0.001c0,0.001,0,0.002,0,0.003c0,0,0,0-0.001,0.001c0,0.002-0.001,0.005-0.001,0.007c0,0.001,0,0.001,0,0.002
				c-0.001,0-0.001,0.001-0.001,0.002v0.001c-0.001,0.001-0.001,0.003-0.001,0.004v0.001c0,0.001-0.001,0.002-0.001,0.002
				c0,0.001,0,0.001,0,0.002s0,0.002-0.001,0.003c0,0.001,0,0.001,0,0.002s0,0.001,0,0.002s-0.001,0.001-0.001,0.002v0.001
				c0,0.002,0,0.002-0.001,0.003c0,0.001,0,0.002,0,0.003c0,0,0,0.001,0,0.002l-0.001,0.001c0,0.001,0,0.002,0,0.002
				c0,0.001,0,0.002-0.001,0.003c0,0,0,0.001,0,0.002s0,0.002,0,0.002c0,0.001,0,0.001-0.001,0.002c0,0.001,0,0.001,0,0.002
				s0,0.002,0,0.003c-0.001,0.001-0.001,0.001-0.001,0.002s0,0.001,0,0.002c0,0,0,0.001,0,0.002c0,0-0.001,0.001-0.001,0.002
				s0,0.001,0,0.002s0,0.002-0.001,0.003v0.001c0,0.001,0,0.002,0,0.003v0.001c0,0.001-0.001,0.002-0.001,0.003s0,0.002,0,0.002
				c0,0.001,0,0.002,0,0.002c-0.001,0.001-0.001,0.002-0.001,0.002c0,0.001,0,0.002,0,0.003s0,0.001,0,0.002
				s-0.001,0.001-0.001,0.002s0,0.001,0,0.002s0,0.002,0,0.003c0,0,0,0,0,0.001c-0.001,0.001-0.001,0.002-0.001,0.003
				s0,0.001,0,0.002s0,0.001,0,0.002s-0.001,0.001-0.001,0.002s0,0.002,0,0.003s0,0.001,0,0.002s0,0.001-0.001,0.002
				c0,0.001,0,0.001,0,0.002s0,0.002,0,0.003l0,0c0,0.002,0,0.003-0.001,0.004c0,0.001,0,0.001,0,0.002c0,0,0,0.001,0,0.002
				s0,0.001,0,0.002s-0.001,0.002-0.001,0.003s0,0.001,0,0.002s0,0.001,0,0.002s0,0.001,0,0.002s0,0.002,0,0.003
				c-0.001,0-0.001,0.001-0.001,0.001c0,0.001,0,0.002,0,0.003s0,0.001,0,0.002s0,0.002,0,0.003c0,0,0,0,0,0.001
				c-0.001,0.001-0.001,0.002-0.001,0.004c0,0,0,0,0,0.001s0,0.002,0,0.003c0,0,0,0,0,0.001s0,0.003-0.001,0.004c0,0,0,0,0,0.001
				s0,0.002,0,0.003v0.001c0,0.001,0,0.002,0,0.003s0,0.001,0,0.001c0,0.001-0.001,0.003-0.001,0.004v0.001c0,0.001,0,0.002,0,0.003
				v0.001c0,0.002,0,0.003,0,0.004s0,0.001,0,0.001c0,0.001,0,0.002,0,0.003s0,0.001-0.001,0.002c0,0.001,0,0.002,0,0.003
				c0,0,0,0,0,0.001s0,0.002,0,0.003s0,0.002,0,0.002c0,0.001,0,0.002,0,0.003v0.001c0,0.001,0,0.003,0,0.004
				c-0.001,0-0.001,0.001-0.001,0.001c0,0.001,0,0.002,0,0.003v0.001c0,0.002,0,0.003,0,0.004s0,0.001,0,0.001
				c0,0.001,0,0.002,0,0.004l0,0c0,0.002,0,0.003,0,0.004c0,0,0,0,0,0.001s0,0.003,0,0.004v0.001c0,0.001,0,0.002,0,0.003
				s0,0.001,0,0.001c-0.001,0.002-0.001,0.003-0.001,0.004v0.001c0,0.001,0,0.002,0,0.003s0,0.001,0,0.002s0,0.002,0,0.004l0,0
				c0,0.001,0,0.002,0,0.004v0.001c0,0.001,0,0.002,0,0.003s0,0.001,0,0.001c0,0.002,0,0.003,0,0.004s0,0.001,0,0.001
				c0,0.002,0,0.002,0,0.004c0,0,0,0,0,0.001s0,0.003,0,0.004l0,0v1.822h1v-1.822c0-0.247,0.561-0.391,0.673-0.417L166.226,100.11
				L166.226,100.11z M165.782,107.323h-1v4h1V107.323L165.782,107.323z M165.782,115.323h-1v3.178c0,0.002,0,0.004,0,0.006l0,0
				c0,0.002,0,0.004,0,0.006c0,0,0,0,0,0.001s0,0.003,0,0.005v0.001c0,0.002,0,0.003,0,0.005c0,0.001,0,0.001,0,0.001
				c0,0.002,0,0.004,0,0.005s0,0.001,0,0.001c0,0.002,0,0.004,0.001,0.006l0,0c0,0.002,0,0.004,0,0.006l0,0c0,0.002,0,0.004,0,0.006
				l0,0c0,0.002,0,0.004,0,0.006c0,0,0,0,0,0.001s0,0.003,0,0.005v0.001c0,0.002,0,0.004,0.001,0.005c0,0.001,0,0.001,0,0.002
				s0,0.003,0,0.004s0,0.001,0,0.002c0,0.002,0,0.003,0,0.005v0.001c0,0.001,0,0.003,0.001,0.005c0,0,0,0,0,0.001s0,0.003,0,0.005
				v0.001c0,0.002,0,0.003,0,0.005v0.001c0.001,0.002,0.001,0.004,0.001,0.005s0,0.001,0,0.002s0,0.003,0,0.005v0.001
				c0.001,0.002,0.001,0.003,0.001,0.005c0,0,0,0.001,0,0.002s0,0.002,0,0.004c0,0,0,0.001,0,0.002s0.001,0.002,0.001,0.004v0.001
				c0,0.002,0,0.003,0,0.005c0,0.001,0,0.001,0,0.002c0.001,0.001,0.001,0.003,0.001,0.004s0,0.002,0,0.002c0,0.002,0,0.003,0,0.005
				c0.001,0,0.001,0.001,0.001,0.002s0,0.003,0,0.004s0,0.001,0,0.002c0.001,0.001,0.001,0.003,0.001,0.005v0.001
				c0,0.002,0,0.003,0,0.004s0.001,0.002,0.001,0.003s0,0.002,0,0.003s0,0.002,0,0.003c0.001,0.001,0.001,0.002,0.001,0.004
				c0,0,0,0.001,0,0.002s0,0.003,0.001,0.004c0,0.001,0,0.002,0,0.002c0,0.002,0,0.003,0,0.004c0.001,0.001,0.001,0.002,0.001,0.003
				s0,0.002,0,0.003s0,0.002,0.001,0.004c0,0,0,0.001,0,0.002s0,0.003,0.001,0.004c0,0.001,0,0.002,0,0.002c0,0.002,0,0.003,0,0.004
				s0.001,0.002,0.001,0.003s0,0.002,0,0.004c0,0.001,0.001,0.001,0.001,0.002s0,0.003,0,0.004s0,0.002,0.001,0.003
				c0,0.001,0,0.002,0,0.003s0,0.001,0,0.002c0.001,0.002,0.001,0.003,0.001,0.004s0,0.002,0,0.002
				c0.001,0.002,0.001,0.003,0.001,0.005c0,0,0,0.001,0,0.002c0.001,0.001,0.001,0.003,0.001,0.004s0,0.002,0,0.002
				c0.001,0.002,0.001,0.004,0.001,0.005s0,0.001,0.001,0.002c0,0.001,0,0.003,0,0.005l0.001,0.001c0,0.004,0.001,0.007,0.001,0.01
				c0,0.001,0,0.001,0,0.001c0.001,0.002,0.001,0.004,0.002,0.006c0,0,0,0,0,0.001c0,0.002,0,0.004,0.001,0.006c0,0,0,0,0,0.001
				c0,0.002,0.001,0.003,0.001,0.005c0,0.001,0,0.001,0,0.001c0.001,0.002,0.001,0.004,0.002,0.006c0,0.001,0,0.001,0,0.001
				c0.001,0.008,0.003,0.016,0.004,0.023l0,0c0.001,0.002,0.001,0.004,0.002,0.007l0,0c0,0.002,0.001,0.004,0.001,0.006l0,0
				c0.013,0.057,0.027,0.112,0.045,0.169l0,0c0.003,0.01,0.006,0.021,0.01,0.03l0,0c0.001,0.002,0.001,0.005,0.002,0.007l0,0
				c0.001,0.002,0.001,0.004,0.002,0.007l0,0c0.001,0.002,0.002,0.004,0.003,0.006c0,0.001,0,0.001,0,0.001
				c0.002,0.005,0.004,0.011,0.006,0.017c0,0,0,0,0,0.001c0,0.002,0.001,0.004,0.002,0.006c0,0,0,0,0,0.001
				c0.001,0.002,0.002,0.003,0.002,0.005c0,0.001,0,0.001,0.001,0.001c0,0.002,0.001,0.004,0.002,0.006v0.001
				c0.001,0.002,0.001,0.004,0.002,0.006c0,0,0,0.001,0.001,0.001c0.001,0.003,0.002,0.006,0.003,0.01
				c0,0.001,0.001,0.002,0.001,0.002c0,0.002,0.001,0.003,0.002,0.004c0,0.001,0,0.002,0,0.003c0.001,0.001,0.001,0.003,0.002,0.004
				c0,0.001,0.001,0.002,0.001,0.002c0,0.002,0.001,0.003,0.001,0.004c0.001,0.001,0.001,0.002,0.001,0.003
				c0.001,0.001,0.001,0.002,0.002,0.004c0,0.001,0.001,0.002,0.001,0.003s0.001,0.001,0.001,0.002c0,0.002,0.001,0.003,0.001,0.004
				c0.001,0.001,0.001,0.002,0.001,0.003c0.001,0.001,0.001,0.003,0.002,0.004c0,0.001,0.001,0.002,0.001,0.002
				c0,0.002,0.001,0.003,0.002,0.005c0,0.001,0,0.001,0,0.002c0.001,0.001,0.002,0.002,0.002,0.004c0,0.001,0.001,0.001,0.001,0.002
				c0.001,0.001,0.001,0.003,0.001,0.004c0.001,0.001,0.001,0.001,0.001,0.002c0.001,0.002,0.002,0.003,0.002,0.005l0.001,0.001
				c0,0.002,0.001,0.003,0.002,0.005c0,0.001,0,0.001,0,0.002c0.001,0.001,0.002,0.003,0.002,0.005c0.001,0,0.001,0.001,0.001,0.001
				c0.001,0.002,0.001,0.004,0.002,0.005c0,0.001,0.001,0.001,0.001,0.002s0.001,0.003,0.002,0.005v0.001
				c0.001,0.002,0.002,0.004,0.003,0.005c0,0.001,0,0.001,0,0.001c0.001,0.002,0.001,0.004,0.002,0.006c0,0,0,0,0.001,0
				c0,0.002,0.001,0.004,0.002,0.006v0.001c0.001,0.002,0.002,0.004,0.003,0.006l0,0c0.001,0.002,0.002,0.004,0.003,0.006l0,0
				c0.001,0.003,0.002,0.005,0.002,0.007l0,0c0.009,0.019,0.017,0.037,0.025,0.056l0.907-0.421c-0.088-0.19-0.102-0.314-0.102-0.371
				V115.323L165.782,115.323z M172.271,120h-4v1h4V120L172.271,120z M180.271,120h-4v1h4V120L180.271,120z M188.271,120h-4v1h4V120
				L188.271,120z M196.271,120h-4v1h4V120L196.271,120z M204.271,120h-4v1h4V120L204.271,120z M212.271,120h-4v1h4V120L212.271,120z
				 M220.271,120h-4v1h4V120L220.271,120z M228.271,120h-4v1h4V120L228.271,120z M236.271,120h-4v1h4V120L236.271,120z
				 M239.782,115.708h-1v2.793c0,0.306-0.046,0.622-0.131,0.893l0.955,0.298c0.029-0.094,0.055-0.188,0.076-0.285l0,0
				c0.001-0.003,0.001-0.006,0.002-0.009c0-0.001,0-0.001,0-0.001c0.001-0.003,0.001-0.006,0.002-0.008c0-0.001,0-0.001,0-0.001
				c0.001-0.003,0.001-0.006,0.002-0.009v-0.001c0.001-0.003,0.001-0.006,0.002-0.008c0-0.001,0-0.001,0-0.002
				c0.001-0.003,0.001-0.005,0.002-0.008c0-0.001,0-0.001,0.001-0.002c0-0.003,0-0.005,0.001-0.007c0-0.001,0-0.002,0.001-0.003
				c0-0.002,0-0.004,0.001-0.006c0-0.001,0-0.003,0.001-0.004c0-0.002,0-0.004,0.001-0.006c0-0.001,0-0.002,0.001-0.004
				c0-0.002,0-0.003,0.001-0.005c0-0.002,0-0.003,0-0.004c0.001-0.002,0.001-0.004,0.002-0.005c0-0.002,0-0.003,0.001-0.005
				c0-0.002,0-0.003,0-0.005c0.001-0.002,0.001-0.003,0.002-0.005c0-0.002,0-0.003,0-0.004c0.001-0.002,0.001-0.004,0.001-0.006
				c0.001-0.001,0.001-0.002,0.001-0.004s0.001-0.004,0.001-0.006c0.001-0.001,0.001-0.002,0.001-0.003
				c0-0.002,0.001-0.005,0.001-0.008l0.001-0.001c0.001-0.009,0.003-0.018,0.005-0.026c0-0.001,0-0.001,0-0.001
				c0.021-0.119,0.037-0.238,0.049-0.357l0,0c0-0.003,0-0.006,0-0.009c0.001-0.001,0.001-0.001,0.001-0.002c0-0.003,0-0.005,0-0.008
				c0-0.001,0-0.001,0-0.002c0.001-0.003,0.001-0.005,0.001-0.007c0-0.001,0-0.002,0-0.003c0.001-0.002,0.001-0.004,0.001-0.006
				c0-0.001,0-0.002,0-0.003c0-0.002,0-0.004,0.001-0.007c0-0.001,0-0.002,0-0.003c0-0.002,0-0.004,0-0.006
				c0.001-0.002,0.001-0.003,0.001-0.004c0-0.002,0-0.004,0-0.006c0-0.001,0-0.002,0-0.004c0.001-0.001,0.001-0.003,0.001-0.005
				c0-0.001,0-0.003,0-0.005c0-0.001,0.001-0.003,0.001-0.004c0-0.002,0-0.004,0-0.006c0-0.001,0-0.002,0-0.004
				s0.001-0.004,0.001-0.006c0-0.001,0-0.002,0-0.003c0-0.002,0-0.004,0-0.006c0-0.001,0.001-0.002,0.001-0.003
				c0-0.002,0-0.004,0-0.006s0-0.003,0-0.004c0-0.002,0-0.004,0.001-0.006c0-0.001,0-0.002,0-0.004s0-0.004,0-0.006
				c0-0.001,0-0.002,0-0.003c0.001-0.002,0.001-0.004,0.001-0.007c0-0.001,0-0.001,0-0.002c0-0.002,0-0.005,0-0.007
				c0-0.001,0-0.002,0-0.003c0.001-0.002,0.001-0.004,0.001-0.006s0-0.002,0-0.003c0-0.003,0-0.005,0-0.007
				c0-0.001,0-0.002,0.001-0.003c0-0.002,0-0.004,0-0.007c0,0,0-0.001,0-0.002c0-0.002,0-0.005,0-0.007c0-0.001,0-0.002,0-0.002
				c0-0.003,0.001-0.005,0.001-0.008c0-0.001,0-0.001,0-0.002c0-0.002,0-0.005,0-0.007c0-0.001,0-0.002,0-0.002
				c0-0.003,0-0.005,0.001-0.008v-0.001c0-0.003,0-0.006,0-0.008c0-0.001,0-0.001,0-0.002c0-0.003,0-0.005,0-0.008
				c0-0.001,0-0.001,0-0.001c0-0.003,0-0.006,0.001-0.009c0,0,0,0,0-0.001c0-0.002,0-0.005,0-0.008c0,0,0,0,0-0.001
				c0-0.003,0-0.005,0-0.008c0-0.001,0-0.001,0-0.001c0-0.003,0-0.006,0-0.009c0.001,0,0.001,0,0.001-0.001c0-0.002,0-0.005,0-0.008
				v-0.001c0-0.003,0-0.006,0-0.009l0,0c0-0.003,0-0.006,0-0.009c0,0,0,0,0-0.001c0-0.002,0-0.006,0-0.008v-0.001
				c0-0.003,0-0.006,0-0.009l0,0c0.001-0.003,0.001-0.006,0.001-0.009v-0.001c0-0.003,0-0.006,0-0.008c0-0.001,0-0.001,0-0.001
				c0-0.003,0-0.006,0-0.009l0,0c0-0.003,0-0.006,0-0.009c0,0,0,0,0-0.001c0-0.002,0-0.005,0-0.008c0,0,0,0,0-0.001
				c0-0.003,0-0.006,0-0.009l0,0c0-0.003,0-0.006,0-0.009V115.708L239.782,115.708z M239.782,107.708h-1v4h1V107.708
				L239.782,107.708z M238.947,100.084l-0.276,0.962c0.031,0.009,0.049,0.017,0.054,0.017c0.014,0.028,0.058,0.144,0.058,0.438
				v2.207h1v-2.207c0-0.002,0-0.004,0-0.006c0-0.001,0-0.001,0-0.002s0-0.003,0-0.004s0-0.001,0-0.002c0-0.002,0-0.003,0-0.005
				v-0.001c0-0.002,0-0.004,0-0.006c0-0.001,0-0.001,0-0.001c0-0.002,0-0.004,0-0.005s0-0.001,0-0.002s0-0.003,0-0.004
				s0-0.001,0-0.002c0-0.004,0-0.008,0-0.012c0-0.001,0-0.001,0-0.002s0-0.003,0-0.004s0-0.001,0-0.002
				c-0.001-0.001-0.001-0.003-0.001-0.005c0,0,0,0,0-0.001c0-0.002,0-0.004,0-0.006v-0.001c0-0.002,0-0.003,0-0.005v-0.001
				c0-0.002,0-0.003,0-0.004s0-0.002,0-0.002c0-0.002,0-0.004,0-0.006l0,0c0-0.002,0-0.004,0-0.006c0-0.001,0-0.001,0-0.002
				s0-0.003,0-0.004s0-0.001,0-0.002s0-0.003-0.001-0.005c0,0,0,0,0-0.001c0-0.002,0-0.004,0-0.006l0,0c0-0.002,0-0.004,0-0.005
				s0-0.001,0-0.002s0-0.003,0-0.004s0-0.001,0-0.002c0-0.002,0-0.004,0-0.006l0,0c0-0.002-0.001-0.003-0.001-0.005
				c0-0.001,0-0.001,0-0.002s0-0.003,0-0.004s0-0.001,0-0.002c0-0.002,0-0.003,0-0.005c0,0,0,0,0-0.001c0-0.002,0-0.003,0-0.005
				c0-0.001,0-0.001,0-0.002s-0.001-0.003-0.001-0.004s0-0.001,0-0.002s0-0.003,0-0.004s0-0.001,0-0.001
				c0-0.004,0-0.008-0.001-0.012v-0.001c0-0.002,0-0.003,0-0.005v-0.001c0-0.006-0.001-0.012-0.001-0.017c0-0.001,0-0.001,0-0.001
				c0-0.002,0-0.004,0-0.006l0,0c-0.001-0.004-0.001-0.008-0.001-0.012c0,0,0,0,0-0.001s0-0.003,0-0.005c0,0,0,0,0-0.001
				c-0.001-0.004-0.001-0.007-0.001-0.011l0,0c0-0.002-0.001-0.004-0.001-0.006c0,0,0,0,0-0.001s0-0.003,0-0.005l0,0
				c0-0.004-0.001-0.008-0.001-0.012c0,0,0,0,0-0.001s0-0.003-0.001-0.004c0-0.001,0-0.001,0-0.001c0-0.006,0-0.012-0.001-0.017
				v-0.001c-0.001-0.006-0.001-0.011-0.002-0.017l0,0c0-0.002,0-0.004,0-0.006l0,0c-0.001-0.006-0.001-0.012-0.002-0.017l0,0
				c-0.001-0.006-0.001-0.012-0.002-0.017c0,0,0,0,0-0.001c-0.027-0.247-0.087-0.448-0.182-0.609l0,0
				c-0.002-0.004-0.005-0.008-0.007-0.011l0,0c-0.001-0.002-0.001-0.003-0.002-0.004l0,0c-0.002-0.004-0.005-0.007-0.007-0.011l0,0
				c-0.001-0.001-0.001-0.003-0.002-0.003c0-0.001,0-0.001,0-0.001c-0.001-0.001-0.002-0.002-0.003-0.003
				c-0.36-0.333-0.479-0.391-0.604-0.428C238.954,100.086,238.95,100.085,238.947,100.084L238.947,100.084z M284.954,125h-4v1h4V125
				L284.954,125z M276.954,125h-4v1h4V125L276.954,125z M268.954,125h-4v1h4V125L268.954,125z M260.954,125h-4v1h4V125L260.954,125z
				 M252.954,125h-4v1h4V125L252.954,125z M244.954,125h-2.736l0,0c-0.003,0-0.007,0-0.01,0l0,0c-0.003,0-0.006,0-0.01,0l0,0
				c-0.003,0-0.006,0-0.009,0h-0.001c-0.003,0-0.006,0-0.009,0c0,0,0,0-0.001,0c-0.003,0-0.006,0-0.009,0l0,0
				c-0.004,0-0.007,0-0.01,0l0,0c-0.004,0-0.007,0-0.01,0l0,0c-0.004,0-0.007,0.001-0.01,0.001l0,0c-0.004,0-0.007,0-0.01,0l0,0
				c-0.004,0-0.007,0-0.01,0l0,0c-0.007,0-0.013,0-0.02,0.001l0,0c-0.003,0-0.007,0-0.01,0l0,0c-0.003,0-0.007,0-0.01,0l0,0
				c-0.003,0-0.007,0-0.01,0l0,0c-0.003,0-0.007,0-0.01,0.001l0,0c-0.307,0.01-0.624,0.051-0.922,0.128c0,0.001,0,0.001,0,0.001
				c-0.004,0-0.007,0.001-0.01,0.002l0,0c-0.003,0.001-0.006,0.002-0.009,0.003c-0.001,0-0.001,0-0.001,0
				c-0.003,0.001-0.006,0.002-0.009,0.002h-0.001c-0.003,0.001-0.006,0.002-0.009,0.003c0,0,0,0-0.001,0
				c-0.002,0.001-0.005,0.002-0.008,0.003c-0.001,0-0.001,0-0.001,0c-0.003,0.001-0.006,0.001-0.009,0.002h-0.001
				c-0.003,0.001-0.006,0.002-0.009,0.003c0,0,0,0-0.001,0c-0.002,0.001-0.005,0.002-0.008,0.003h-0.001
				c-0.003,0.001-0.006,0.002-0.008,0.002c-0.001,0-0.002,0.001-0.002,0.001c-0.003,0.001-0.005,0.001-0.008,0.002
				c0,0-0.001,0-0.002,0.001c-0.002,0-0.005,0.001-0.007,0.002c-0.001,0-0.002,0-0.002,0c-0.003,0.001-0.005,0.002-0.008,0.002
				c-0.001,0.001-0.001,0.001-0.002,0.001c-0.003,0.001-0.005,0.002-0.007,0.002c-0.001,0.001-0.002,0.001-0.003,0.001
				c-0.002,0.001-0.004,0.002-0.007,0.002c-0.001,0.001-0.001,0.001-0.002,0.001c-0.003,0.001-0.005,0.001-0.007,0.002
				c-0.001,0.001-0.002,0.001-0.003,0.001c-0.002,0.001-0.004,0.001-0.007,0.002c-0.001,0-0.001,0.001-0.002,0.001
				c-0.003,0.001-0.005,0.001-0.007,0.002c-0.001,0-0.002,0.001-0.003,0.001c-0.002,0.001-0.004,0.001-0.006,0.002
				c-0.001,0-0.001,0-0.002,0l0.304,0.953c0.269-0.086,0.604-0.133,0.942-0.133h2.736V125L244.954,125z M240.782,128.587h-1v4h1
				V128.587L240.782,128.587z M240.782,136.587h-1v4h1V136.587L240.782,136.587z M240.963,144.022l-0.863,0.504
				c0.176,0.303,0.414,0.589,0.685,0.828c0,0,0,0,0.001,0c0.004,0.003,0.008,0.007,0.012,0.011l0,0
				c0.003,0.002,0.006,0.005,0.009,0.007v0.001c0.003,0.002,0.005,0.004,0.008,0.007l0,0c0.002,0.001,0.003,0.002,0.004,0.003
				c0,0,0.001,0,0.001,0.001c0.002,0.002,0.005,0.004,0.008,0.007l0,0c0.002,0.001,0.003,0.002,0.004,0.003c0,0,0,0.001,0.001,0.001
				c0.001,0.001,0.002,0.002,0.003,0.003c0.001,0,0.001,0.001,0.002,0.001c0,0.001,0.002,0.002,0.002,0.002
				c0.001,0.001,0.001,0.001,0.001,0.001c0.001,0.001,0.003,0.002,0.004,0.003l0.001,0.001c0.001,0.001,0.002,0.002,0.003,0.003
				c0.001,0,0.001,0,0.001,0c0.001,0.002,0.002,0.002,0.003,0.003s0.001,0.001,0.001,0.001c0.001,0.001,0.003,0.002,0.004,0.003
				l0.001,0.001c0.001,0.001,0.002,0.002,0.003,0.002c0,0.001,0.001,0.001,0.001,0.001c0.002,0.002,0.005,0.005,0.007,0.007
				c0.001,0,0.002,0,0.002,0.001c0.001,0.001,0.002,0.001,0.003,0.002c0,0,0,0.001,0.001,0.001c0.001,0.001,0.002,0.002,0.003,0.003
				c0.001,0,0.002,0.001,0.002,0.001c0.001,0.001,0.001,0.001,0.002,0.002c0.001,0,0.001,0.001,0.002,0.001
				c0.001,0.001,0.001,0.001,0.002,0.002s0.002,0.002,0.003,0.003c0.001,0,0.001,0.001,0.002,0.001
				c0.001,0.001,0.001,0.001,0.002,0.002c0.001,0,0.001,0.001,0.002,0.001c0.001,0.001,0.002,0.002,0.003,0.003
				s0.001,0.001,0.002,0.001c0.001,0.001,0.001,0.002,0.002,0.002c0.001,0.001,0.001,0.001,0.002,0.001
				c0.002,0.003,0.005,0.005,0.007,0.007c0.001,0,0.001,0,0.002,0.001c0,0,0.001,0.001,0.002,0.001c0,0.001,0.001,0.001,0.002,0.002
				c0.002,0.002,0.005,0.004,0.007,0.006c0.001,0,0.001,0,0.002,0.001c0,0.001,0.001,0.001,0.002,0.002c0,0,0.001,0,0.001,0.001
				c0.002,0.001,0.003,0.002,0.005,0.003c0,0.001,0,0.001,0.001,0.001c0,0.001,0.001,0.001,0.002,0.002c0,0,0.001,0,0.001,0.001
				c0.002,0.001,0.004,0.003,0.005,0.004c0.001,0,0.001,0,0.001,0c0.001,0.001,0.001,0.001,0.002,0.002s0.001,0.001,0.001,0.001
				c0.003,0.002,0.006,0.004,0.009,0.006c0,0.001,0,0.001,0.001,0.001c0,0.001,0.001,0.001,0.002,0.002s0.001,0.001,0.001,0.001
				c0.002,0.001,0.003,0.002,0.004,0.003s0.001,0.001,0.002,0.001c0.001,0.001,0.002,0.002,0.002,0.002
				c0.001,0,0.001,0.001,0.001,0.001c0.004,0.002,0.006,0.005,0.009,0.007h0.001c0.004,0.003,0.008,0.006,0.012,0.009
				c0,0.001,0,0.001,0,0.001c0.005,0.003,0.009,0.006,0.013,0.009l0,0c0.239,0.178,0.495,0.316,0.75,0.396l0,0
				c0.005,0.002,0.009,0.003,0.014,0.004l0,0c0.007,0.002,0.014,0.004,0.02,0.006h0.001c0.001,0.001,0.002,0.001,0.003,0.001v0.001
				c0.003,0,0.006,0.001,0.009,0.002c0.001,0,0.001,0,0.002,0c0.001,0.001,0.001,0.001,0.002,0.001s0.001,0.001,0.001,0.001
				c0.002,0,0.004,0.001,0.006,0.001l0,0c0.001,0.001,0.002,0.001,0.003,0.001s0.001,0,0.001,0c0.003,0.001,0.006,0.002,0.009,0.003
				c0.001,0,0.001,0,0.001,0c0.001,0,0.002,0.001,0.003,0.001h0.001c0.003,0.001,0.006,0.002,0.009,0.002
				c0,0.001,0.001,0.001,0.001,0.001c0.003,0.001,0.006,0.001,0.009,0.002c0.001,0,0.001,0,0.001,0
				c0.001,0.001,0.002,0.001,0.003,0.001h0.001c0.002,0.001,0.004,0.001,0.006,0.002l0,0c0.001,0,0.002,0,0.003,0
				c0,0.001,0.001,0.001,0.001,0.001c0.003,0.001,0.006,0.001,0.009,0.002h0.001c0.001,0.001,0.002,0.001,0.003,0.001h0.001
				c0.002,0.001,0.003,0.001,0.005,0.001l0.001,0.001c0.001,0,0.002,0,0.003,0c0,0,0.001,0,0.001,0.001
				c0.003,0,0.006,0.001,0.009,0.001c0,0.001,0.001,0.001,0.001,0.001c0.001,0,0.002,0,0.003,0c0,0.001,0,0.001,0.001,0.001
				s0.003,0,0.004,0.001c0.001,0,0.001,0,0.002,0s0.001,0,0.002,0.001c0.001,0,0.001,0,0.002,0c0.003,0,0.006,0.001,0.008,0.002
				c0.001,0,0.001,0,0.002,0s0.002,0,0.002,0.001c0.001,0,0.001,0,0.002,0s0.003,0.001,0.005,0.001c0,0,0,0,0.001,0
				s0.001,0,0.002,0.001c0.001,0,0.001,0,0.002,0s0.001,0,0.002,0c0.001,0.001,0.001,0.001,0.002,0.001s0.003,0,0.004,0.001
				c0.001,0,0.001,0,0.002,0s0.001,0,0.002,0c0.001,0.001,0.001,0.001,0.001,0.001c0.002,0,0.004,0,0.005,0
				c0.001,0.001,0.001,0.001,0.002,0.001c0,0,0.001,0,0.002,0s0.001,0.001,0.002,0.001c0,0,0.001,0,0.002,0s0.002,0,0.003,0.001
				c0.001,0,0.002,0,0.003,0h0.001c0.001,0.001,0.002,0.001,0.003,0.001s0.001,0,0.002,0s0.002,0.001,0.003,0.001s0.002,0,0.002,0
				c0.001,0,0.002,0,0.003,0.001h0.001c0.001,0,0.002,0,0.003,0s0.002,0.001,0.003,0.001c0,0,0.001,0,0.002,0s0.002,0,0.002,0.001
				c0.001,0,0.002,0,0.002,0c0.001,0,0.002,0,0.003,0s0.002,0.001,0.003,0.001s0.001,0,0.002,0s0.001,0,0.002,0.001
				c0.001,0,0.002,0,0.002,0c0.001,0,0.002,0,0.002,0c0.002,0,0.003,0,0.004,0.001c0.001,0,0.001,0,0.002,0s0.001,0,0.002,0
				s0.001,0.001,0.002,0.001s0.002,0,0.003,0s0.001,0,0.002,0s0.002,0.001,0.003,0.001c0,0,0.001,0,0.002,0s0.002,0,0.002,0
				c0.001,0.001,0.001,0.001,0.002,0.001s0.002,0,0.004,0h0.001c0.001,0,0.002,0.001,0.003,0.001s0.001,0,0.002,0s0.002,0,0.003,0
				l0.001,0.001c0.001,0,0.002,0,0.004,0h0.001c0.001,0,0.002,0,0.003,0c0,0.001,0.001,0.001,0.002,0.001s0.002,0,0.003,0
				s0.001,0,0.002,0c0.001,0.001,0.002,0.001,0.003,0.001h0.001c0.001,0,0.002,0,0.003,0s0.001,0,0.002,0
				c0.001,0.001,0.002,0.001,0.003,0.001s0.001,0,0.002,0s0.002,0,0.003,0c0,0,0.001,0,0.001,0.001c0.001,0,0.003,0,0.004,0h0.001
				c0.001,0,0.002,0,0.003,0s0.001,0,0.002,0c0.001,0.001,0.002,0.001,0.003,0.001h0.001c0.002,0,0.003,0,0.004,0
				c0,0,0.001,0,0.001,0.001c0.001,0,0.002,0,0.003,0s0.001,0,0.002,0s0.002,0,0.004,0c0,0,0,0,0.001,0s0.002,0,0.003,0.001h0.001
				c0.001,0,0.003,0,0.004,0l0,0c0.002,0,0.003,0,0.004,0s0.001,0.001,0.002,0.001s0.002,0,0.003,0h0.001c0.001,0,0.003,0,0.004,0
				h0.001c0.001,0,0.002,0,0.003,0s0.001,0,0.002,0c0.001,0.001,0.002,0.001,0.003,0.001s0.001,0,0.001,0c0.001,0,0.003,0,0.004,0
				h0.001c0.001,0,0.002,0,0.003,0s0.001,0,0.001,0.001c0.002,0,0.003,0,0.005,0l0,0c0.002,0,0.002,0,0.004,0h0.001
				c0.001,0,0.002,0,0.004,0c0,0,0,0,0.001,0s0.002,0,0.003,0s0.001,0,0.002,0s0.002,0.001,0.003,0.001c0,0,0,0,0.001,0
				s0.003,0,0.004,0h0.001c0.001,0,0.002,0,0.003,0s0.001,0,0.001,0c0.002,0,0.003,0,0.004,0c0,0,0,0,0.001,0s0.002,0,0.004,0
				c0,0,0,0,0.001,0s0.002,0,0.003,0.001h0.001c0.002,0,0.003,0,0.004,0s0.001,0,0.001,0c0.001,0,0.002,0,0.003,0s0.001,0,0.002,0
				s0.002,0,0.004,0l0,0c0.001,0,0.002,0,0.004,0h0.001c0.001,0,0.002,0,0.003,0s0.001,0,0.001,0c0.002,0,0.003,0,0.004,0
				s0.001,0,0.001,0c0.002,0,0.003,0,0.004,0c0,0,0,0,0.001,0s0.003,0,0.004,0h1.316v-1h-1.316
				C241.895,145,241.299,144.599,240.963,144.022L240.963,144.022z M251.534,145h-4v1h4V145L251.534,145z M259.534,145h-4v1h4V145
				L259.534,145z M267.534,145h-4v1h4V145L267.534,145z M275.534,145h-4v1h4V145L275.534,145z M283.534,145h-4v1h4V145L283.534,145z
				 M289.782,143.444h-1v0.057c0,0.808-0.311,1.499-0.564,1.499h-0.684v1h0.684c1.104,0,1.564-1.396,1.564-2.499V143.444
				L289.782,143.444z M289.782,135.444h-1v4h1V135.444L289.782,135.444z M289.782,127.444h-1v4h1V127.444L289.782,127.444z
				 M370.69,150h-4v1h4V150L370.69,150z M362.69,150h-4v1h4V150L362.69,150z M354.69,150h-4v1h4V150L354.69,150z M346.69,150h-4v1h4
				V150L346.69,150z M338.69,150h-4v1h4V150L338.69,150z M330.69,150h-4v1h4V150L330.69,150z M322.69,150h-4v1h4V150L322.69,150z
				 M314.69,150h-4v1h4V150L314.69,150z M306.69,150h-4v1h4V150L306.69,150z M298.69,150h-4v1h4V150L298.69,150z M290.725,150.271
				c-0.461,0.196-0.819,0.51-0.916,0.971l0,0c-0.002,0.008-0.004,0.017-0.005,0.025l0,0c-0.001,0.001-0.001,0.002-0.001,0.003l0,0
				c0,0.001,0,0.003-0.001,0.004l0,0c-0.001,0.007-0.002,0.015-0.004,0.022l0,0c0,0.001,0,0.002,0,0.003v0.001
				c0,0,0,0.001-0.001,0.002v0.001c0,0.001,0,0.002,0,0.003l0,0c0,0.001,0,0.002-0.001,0.003l0,0c0,0.001,0,0.002,0,0.003v0.001
				c0,0.001-0.001,0.002-0.001,0.003l0,0c0,0.003-0.001,0.007-0.001,0.01l0,0c0,0.002,0,0.002-0.001,0.003c0,0.001,0,0.001,0,0.001
				c0,0.001,0,0.002,0,0.003l0,0c0,0.001,0,0.002,0,0.003c0,0,0,0,0,0.001c-0.001,0.001-0.001,0.001-0.001,0.002s0,0.001,0,0.001
				c0,0.001,0,0.002,0,0.002c0,0.001,0,0.001,0,0.002c0,0-0.001,0.001-0.001,0.002c0,0,0,0,0,0.001s0,0.001,0,0.002s0,0.001,0,0.001
				c0,0.001,0,0.002,0,0.003l0,0c-0.001,0.003-0.001,0.005-0.001,0.007l0,0c0,0.001-0.001,0.002-0.001,0.004l0,0
				c0,0.001,0,0.002,0,0.003v0.001c0,0.001,0,0.001,0,0.002v0.001c0,0.001-0.001,0.002-0.001,0.002c0,0.001,0,0.001,0,0.002
				c0,0,0,0.001,0,0.002v0.001c0,0.001,0,0.001,0,0.002v0.001c0,0.001-0.001,0.002-0.001,0.003c0,0,0,0,0,0.001s0,0.001,0,0.002
				v0.001c0,0.002,0,0.004-0.001,0.007l0,0c0,0.001,0,0.002,0,0.003v0.001c0,0.001,0,0.002,0,0.002c0,0.001,0,0.001,0,0.002
				s0,0.001,0,0.002v0.001c-0.001,0.001-0.001,0.001-0.001,0.002s0,0.001,0,0.002c0,0,0,0.001,0,0.002c0,0,0,0,0,0.001
				s0,0.001,0,0.002v0.001c0,0.001,0,0.002,0,0.002c0,0.001,0,0.001,0,0.002c0,0,0,0.001,0,0.002l-0.001,0.001
				c0,0.001,0,0.001,0,0.002s0,0.001,0,0.001c0,0.002,0,0.003,0,0.004l0,0c0,0.001,0,0.002,0,0.003s0,0.001,0,0.001
				c0,0.001,0,0.002,0,0.003v0.001c0,0.001,0,0.001-0.001,0.002v0.001c0,0.001,0,0.002,0,0.002c0,0.001,0,0.001,0,0.002
				s0,0.001,0,0.002v0.001c0,0.001,0,0.002,0,0.002c0,0.001,0,0.001,0,0.002c0,0,0,0.001,0,0.002v0.001c0,0.001,0,0.001,0,0.002
				s0,0.001,0,0.002c0,0,0,0.001,0,0.002v0.001c0,0.001,0,0.002,0,0.002c0,0.001,0,0.001,0,0.002s0,0.002-0.001,0.003l0,0
				c0,0.001,0,0.002,0,0.003s0,0.001,0,0.001c0,0.001,0,0.002,0,0.003v0.001c0,0.001,0,0.001,0,0.002s0,0.001,0,0.002
				c0,0,0,0.001,0,0.002v0.001c0,0.001,0,0.002,0,0.002c0,0.001,0,0.001,0,0.002c0,0,0,0.001,0,0.002v0.001c0,0.001,0,0.001,0,0.002
				s0,0.001,0,0.001c0,0.001,0,0.002,0,0.003v0.001c0,0.001,0,0.002,0,0.003c0,0,0,0,0,0.001s0,0.002,0,0.003l0,0v2.35h1v-2.35
				c0-0.05,0-0.167,0.334-0.31L290.725,150.271L290.725,150.271z M290.782,157.851h-1v4h1V157.851L290.782,157.851z
				 M290.782,165.851h-1v2.65c0,0.001,0,0.003,0,0.004s0,0.001,0,0.001c0,0.002,0,0.003,0,0.004v0.001c0,0.001,0,0.003,0,0.004
				v0.001c0,0.002,0,0.003,0,0.004l0,0c0,0.002,0,0.004,0,0.005v0.001c0,0.001,0,0.002,0,0.004l0,0c0,0.002,0,0.003,0,0.005
				c0,0,0,0,0,0.001s0.001,0.002,0.001,0.003s0,0.001,0,0.001c0,0.002,0,0.003,0,0.004s0,0.001,0,0.002s0,0.002,0,0.003v0.001
				c0,0.002,0,0.003,0,0.004s0,0.001,0,0.001c0,0.001,0,0.003,0,0.004v0.001c0,0.001,0,0.003,0,0.004c0,0,0,0,0,0.001
				s0.001,0.002,0.001,0.004c0,0,0,0,0,0.001c0,0.003,0,0.006,0,0.009c0,0,0,0,0,0.001s0,0.002,0,0.004l0,0
				c0.001,0.002,0.001,0.003,0.001,0.004s0,0.001,0,0.002s0,0.002,0,0.003s0,0.001,0,0.001c0,0.002,0,0.003,0,0.004s0,0.001,0,0.001
				c0,0.001,0,0.003,0.001,0.004v0.001c0,0.001,0,0.003,0,0.004v0.001c0,0.001,0,0.003,0,0.004v0.001
				c0.001,0.001,0.001,0.003,0.001,0.004v0.001c0,0.001,0,0.003,0,0.004v0.001c0,0.001,0,0.003,0.001,0.004c0,0,0,0,0,0.001
				s0,0.002,0,0.004c0,0,0,0,0,0.001s0,0.003,0,0.004l0,0c0.001,0.002,0.001,0.003,0.001,0.005c0,0,0,0,0,0.001
				c0,0.003,0.001,0.006,0.001,0.008c0,0.001,0,0.001,0,0.002s0,0.002,0,0.004l0,0c0.001,0.002,0.001,0.003,0.001,0.004
				s0,0.001,0,0.002s0,0.002,0,0.003s0,0.001,0,0.001c0.001,0.002,0.001,0.003,0.001,0.004s0,0.001,0,0.002s0,0.002,0.001,0.003
				c0,0.001,0,0.001,0,0.001c0,0.002,0,0.003,0,0.004s0,0.001,0,0.001c0,0.002,0.001,0.003,0.001,0.004s0,0.001,0,0.001
				c0,0.002,0,0.003,0,0.004s0.001,0.001,0.001,0.001c0,0.001,0,0.003,0,0.004s0,0.001,0,0.001c0,0.002,0.001,0.003,0.001,0.004
				s0,0.001,0,0.001c0,0.001,0,0.003,0,0.004s0,0.001,0.001,0.001c0,0.002,0,0.003,0,0.005l0,0c0,0.001,0.001,0.003,0.001,0.004
				v0.001c0,0.002,0,0.003,0.001,0.004v0.001c0,0.001,0,0.003,0,0.004s0,0.001,0,0.001c0.001,0.002,0.001,0.003,0.001,0.004
				c0,0,0,0,0,0.001s0.001,0.003,0.001,0.004s0,0.001,0,0.001c0,0.001,0,0.003,0,0.004c0,0,0.001,0,0.001,0.001s0,0.003,0,0.004
				s0,0.001,0,0.001c0.001,0.001,0.001,0.003,0.001,0.004c0,0,0,0,0,0.001s0.001,0.003,0.001,0.004s0,0.001,0,0.001
				c0,0.001,0.001,0.003,0.001,0.004v0.001c0,0.001,0,0.003,0.001,0.005l0,0c0,0.001,0,0.003,0.001,0.004v0.001
				c0,0.003,0.001,0.006,0.001,0.009v0.001c0.001,0.003,0.002,0.006,0.002,0.009v0.001c0.001,0.003,0.001,0.006,0.002,0.009
				c0,0.001,0,0.001,0,0.001c0.001,0.003,0.001,0.006,0.002,0.009c0,0.001,0,0.001,0,0.001c0.001,0.003,0.001,0.006,0.002,0.01l0,0
				c0.001,0.001,0.001,0.003,0.001,0.005l0,0c0,0.002,0.001,0.003,0.001,0.005l0,0c0.001,0.001,0.001,0.003,0.001,0.005l0,0
				c0.001,0.003,0.002,0.006,0.002,0.01l0,0c0.001,0.003,0.002,0.006,0.003,0.01l0,0c0,0.003,0.001,0.006,0.002,0.01l0,0
				c0,0.002,0.001,0.004,0.001,0.005l0,0c0,0.002,0.001,0.003,0.001,0.005l0,0c0.001,0.002,0.001,0.003,0.001,0.005c0,0,0,0,0.001,0
				c0,0.002,0,0.003,0.001,0.005l0,0c0,0.002,0.001,0.004,0.001,0.005l0,0c0,0.002,0.001,0.004,0.001,0.005l0,0
				c0.001,0.002,0.001,0.004,0.001,0.005c0,0,0.001,0,0.001,0.001s0,0.003,0.001,0.004c0,0,0,0,0,0.001s0.001,0.003,0.001,0.004
				v0.001c0.001,0.003,0.002,0.006,0.003,0.009c0,0.001,0,0.001,0,0.001c0.001,0.003,0.001,0.006,0.002,0.009
				c0,0.001,0,0.001,0,0.001c0.001,0.003,0.002,0.006,0.003,0.01l0,0c0.001,0.003,0.002,0.006,0.003,0.01l0,0
				c0.001,0.003,0.002,0.007,0.003,0.01l0,0c0,0.002,0.001,0.004,0.001,0.005l0,0c0.002,0.007,0.004,0.013,0.006,0.02
				c0,0,0,0,0,0.001c0.001,0.003,0.002,0.006,0.003,0.009v0.001c0.001,0.003,0.002,0.006,0.003,0.01l0,0
				c0.001,0.003,0.002,0.006,0.003,0.01l0,0c0.014,0.043,0.028,0.086,0.045,0.129l0,0c0.003,0.006,0.006,0.013,0.008,0.02l0,0
				c0.009,0.021,0.018,0.043,0.026,0.064l0,0c0.003,0.007,0.006,0.013,0.009,0.02l0,0c0.002,0.005,0.004,0.01,0.006,0.015
				c0.001,0,0.001,0,0.001,0c0.001,0.004,0.003,0.007,0.004,0.01c0,0,0,0,0,0.001c0.002,0.003,0.003,0.006,0.005,0.009v0.001
				c0.001,0.003,0.003,0.006,0.004,0.01l0,0c0.002,0.003,0.003,0.006,0.005,0.01l0,0c0.002,0.003,0.003,0.006,0.005,0.01l0,0
				c0.001,0.003,0.003,0.006,0.004,0.01c0,0,0,0,0.001,0c0,0.002,0.001,0.003,0.002,0.004c0,0.001,0,0.001,0,0.001
				c0.001,0.002,0.001,0.003,0.002,0.005l0,0c0.001,0.002,0.002,0.003,0.002,0.005c0.001,0,0.001,0,0.001,0
				c0.001,0.002,0.001,0.003,0.002,0.005l0,0c0.001,0.002,0.002,0.003,0.002,0.004s0.001,0.001,0.001,0.002
				c0.001,0.001,0.001,0.002,0.002,0.004l0,0c0.001,0.002,0.001,0.003,0.002,0.004c0,0.001,0.001,0.001,0.001,0.002
				s0.001,0.003,0.002,0.004l0,0c0.001,0.002,0.001,0.003,0.002,0.004c0,0.001,0.001,0.002,0.001,0.002
				c0,0.001,0.001,0.002,0.002,0.004l0,0c0.001,0.002,0.001,0.003,0.002,0.005l0.001,0.001c0,0.001,0.001,0.002,0.002,0.004l0,0
				c0.001,0.002,0.002,0.003,0.002,0.005l0.001,0.001c0.001,0.001,0.001,0.002,0.002,0.003c0,0.001,0,0.001,0,0.002
				c0.001,0.001,0.002,0.003,0.002,0.004c0.001,0,0.001,0.001,0.001,0.001c0.001,0.001,0.001,0.002,0.002,0.003
				c0,0.001,0,0.001,0.001,0.002c0,0.001,0.001,0.003,0.002,0.004c0,0.001,0,0.001,0,0.001c0.001,0.002,0.001,0.002,0.002,0.003
				c0,0.001,0.001,0.001,0.001,0.002s0.001,0.003,0.002,0.004c0,0.001,0,0.001,0.001,0.002c0,0.001,0.001,0.001,0.001,0.002
				s0.001,0.002,0.001,0.002c0.001,0.001,0.001,0.002,0.002,0.003c0,0.001,0.001,0.002,0.001,0.003s0.001,0.001,0.001,0.002
				c0.001,0.001,0.001,0.002,0.001,0.003c0.001,0,0.001,0.001,0.002,0.002c0,0.001,0.001,0.002,0.001,0.003
				c0.001,0.001,0.001,0.002,0.002,0.003c0,0,0.001,0.001,0.001,0.002c0,0,0.001,0.001,0.001,0.002
				c0.001,0.001,0.001,0.002,0.002,0.003c0,0.001,0.001,0.002,0.001,0.003c0.001,0,0.001,0.001,0.001,0.002
				c0.001,0,0.001,0.001,0.001,0.002c0.001,0.001,0.002,0.002,0.002,0.003c0.001,0.001,0.001,0.002,0.002,0.003
				c0,0,0,0.001,0.001,0.002c0,0,0.001,0.001,0.001,0.002c0.001,0.001,0.001,0.002,0.002,0.004c0,0,0.001,0.001,0.001,0.002
				c0.001,0,0.001,0.002,0.002,0.002c0,0.001,0,0.001,0,0.002c0.002,0.002,0.004,0.006,0.005,0.008c0,0.001,0.001,0.001,0.001,0.002
				c0.002,0.003,0.003,0.006,0.005,0.009c0,0,0,0,0,0.001c0.002,0.003,0.004,0.006,0.006,0.009v0.001
				c0.049,0.086,0.104,0.171,0.162,0.254l0.817-0.574c-0.204-0.292-0.277-0.539-0.277-0.673V165.851L290.782,165.851z M297.798,170
				h-4v1h4V170L297.798,170z M305.798,170h-4v1h4V170L305.798,170z M313.798,170h-4v1h4V170L313.798,170z M321.798,170h-4v1h4V170
				L321.798,170z M329.798,170h-4v1h4V170L329.798,170z M337.798,170h-4v1h4V170L337.798,170z M345.798,170h-4v1h4V170L345.798,170z
				 M353.798,170h-4v1h4V170L353.798,170z M361.798,170h-4v1h4V170L361.798,170z M369.798,170h-4v1h4V170L369.798,170z
				 M372.782,165.181h-1v3.32c0,0.168-0.015,0.346-0.042,0.515l0.986,0.162c0.021-0.132,0.037-0.265,0.046-0.395
				c0-0.001,0-0.001,0-0.001c0-0.003,0.001-0.007,0.001-0.01v-0.001c0-0.003,0-0.007,0-0.01l0,0
				c0.001-0.002,0.001-0.004,0.001-0.006l0,0c0-0.003,0-0.007,0-0.01c0.001,0,0.001-0.001,0.001-0.001c0-0.001,0-0.003,0-0.005l0,0
				c0-0.002,0-0.004,0-0.005l0,0c0-0.002,0-0.004,0-0.005s0-0.001,0-0.001c0.001-0.003,0.001-0.007,0.001-0.01v-0.001
				c0-0.003,0-0.006,0.001-0.01c0,0,0,0,0-0.001s0-0.003,0-0.004s0-0.001,0-0.001c0-0.002,0-0.003,0-0.004s0-0.001,0-0.001
				c0-0.002,0-0.003,0-0.005v-0.001c0-0.001,0-0.003,0-0.004c0.001-0.001,0.001-0.001,0.001-0.001c0-0.002,0-0.003,0-0.005
				c0,0,0,0,0-0.001s0-0.003,0-0.004s0-0.001,0-0.001c0-0.002,0-0.003,0-0.004s0-0.001,0-0.001c0-0.002,0-0.003,0.001-0.004
				c0-0.001,0-0.002,0-0.002c0-0.002,0-0.003,0-0.004c0,0,0,0,0-0.001s0-0.003,0-0.004s0-0.001,0-0.002s0-0.003,0-0.004v-0.001
				c0-0.001,0-0.002,0-0.004v-0.001c0-0.002,0-0.003,0-0.004s0-0.001,0-0.002c0.001-0.001,0.001-0.002,0.001-0.003s0-0.001,0-0.002
				s0-0.003,0-0.004s0-0.001,0-0.002s0-0.002,0-0.003s0-0.001,0-0.002s0-0.002,0-0.004v-0.001c0-0.001,0-0.003,0-0.004
				s0-0.001,0-0.001c0-0.002,0.001-0.003,0.001-0.004s0-0.001,0-0.001c0-0.002,0-0.004,0-0.005v-0.001c0-0.003,0-0.006,0-0.01l0,0
				c0-0.002,0-0.004,0-0.005v-0.001c0-0.001,0-0.002,0-0.004v-0.001c0-0.002,0-0.003,0-0.005c0,0,0,0,0-0.001s0-0.002,0-0.003
				s0-0.001,0-0.002s0-0.002,0-0.004v-0.001c0-0.001,0-0.003,0-0.004s0-0.001,0-0.001c0-0.002,0-0.003,0.001-0.004
				c0-0.001,0-0.001,0-0.002s0-0.003,0-0.004v-0.001c0-0.001,0-0.003,0-0.004v-0.001c0-0.001,0-0.003,0-0.004s0-0.001,0-0.002
				s0-0.003,0-0.004l0,0c0-0.002,0-0.003,0-0.005v-0.001c0-0.003,0-0.006,0-0.009c0-0.001,0-0.001,0-0.002s0-0.003,0-0.004v-0.001
				c0-0.001,0-0.003,0-0.004c0,0,0,0,0-0.001s0-0.003,0-0.004s0-0.001,0-0.001c0-0.002,0-0.004,0-0.005V165.181L372.782,165.181z
				 M372.782,157.181h-1v4h1V157.181L372.782,157.181z M371.427,150.005l-0.053,0.999c0.246,0.013,0.339,0.054,0.348,0.054
				c0.001,0,0.001,0,0.001,0c0.01,0.018,0.06,0.127,0.06,0.443v1.68h1v-1.68c0-0.002,0-0.004,0-0.006c0-0.001,0-0.001,0-0.002
				s0-0.003,0-0.004s0-0.001,0-0.002c0-0.002,0-0.003,0-0.005v-0.001c0-0.002,0-0.004,0-0.006c0-0.001,0-0.001,0-0.002
				s0-0.003,0-0.004s0-0.001,0-0.002s0-0.003,0-0.004s0-0.001,0-0.002c0-0.002,0-0.004,0-0.006c0,0,0,0,0-0.001s0-0.003,0-0.005
				c0-0.001,0-0.001,0-0.002s0-0.003,0-0.004s-0.001-0.001-0.001-0.002s0-0.003,0-0.005c0,0,0,0,0-0.001c0-0.002,0-0.004,0-0.006
				v-0.001c0-0.002,0-0.003,0-0.005v-0.001c0-0.002,0-0.004,0-0.005v-0.001c0-0.002,0-0.004,0-0.006l0,0c0-0.002,0-0.004,0-0.006
				c0-0.001,0-0.001,0-0.002s0-0.002,0-0.004c0-0.001,0-0.001,0-0.002c0-0.002,0-0.003,0-0.005c0,0,0,0-0.001-0.001
				c0-0.002,0-0.004,0-0.006l0,0c0-0.002,0-0.004,0-0.005s0-0.001,0-0.002s0-0.003,0-0.004s0-0.001,0-0.002
				c0-0.004-0.001-0.008-0.001-0.011c0-0.001,0-0.001,0-0.002s0-0.003,0-0.004s0-0.001,0-0.002c0-0.002,0-0.003,0-0.005
				c0,0,0,0,0-0.001c0-0.002,0-0.004,0-0.006l0,0c0-0.002,0-0.003-0.001-0.005c0-0.001,0-0.001,0-0.002s0-0.003,0-0.005l0,0
				c0-0.004,0-0.008-0.001-0.012v-0.001c0-0.002,0-0.003,0-0.005v-0.001c0-0.004,0-0.008,0-0.011
				c-0.001-0.001-0.001-0.001-0.001-0.002s0-0.003,0-0.004s0-0.001,0-0.002s0-0.003,0-0.005l0,0
				c-0.001-0.004-0.001-0.008-0.001-0.012c0,0,0,0,0-0.001s0-0.003,0-0.005l0,0c-0.001-0.004-0.001-0.008-0.001-0.012l0,0
				c0-0.002-0.001-0.004-0.001-0.006c0,0,0,0,0-0.001s0-0.003,0-0.005l0,0c0-0.004-0.001-0.008-0.001-0.012l0,0
				c0-0.002,0-0.004-0.001-0.006l0,0c0-0.006,0-0.012-0.001-0.017v-0.001c-0.003-0.026-0.005-0.053-0.008-0.078l0,0
				c-0.029-0.243-0.09-0.44-0.187-0.599c0,0,0,0,0-0.001c-0.001-0.001-0.001-0.002-0.002-0.003l0,0
				c-0.002-0.004-0.005-0.007-0.007-0.011l0,0c-0.001-0.001-0.001-0.003-0.002-0.004l0,0c-0.001-0.001-0.002-0.002-0.003-0.003
				c-0.473-0.409-0.756-0.488-1.11-0.509C371.443,150.006,371.435,150.006,371.427,150.005L371.427,150.005z"/>
		</g>
		<g id="line_4_">
			<g>
				<polygon fill-rule="evenodd" clip-rule="evenodd" fill="#9900AA" points="161.218,66.499 161.218,65.499 162.218,65.499 
					162.218,64.499 181.218,64.499 181.218,45.499 137.218,45.499 137.218,64.499 157.218,64.499 157.218,65.499 158.218,65.499 
					158.218,66.499 159.218,66.499 159.218,200.499 158.218,200.499 158.218,201.499 157.218,201.499 157.218,202.499 
					156.218,202.499 156.218,203.499 155.218,203.499 155.218,204.501 164.218,204.501 164.218,203.499 163.218,203.499 
					163.218,202.499 162.218,202.499 162.218,201.499 161.218,201.499 161.218,200.499 160.218,200.499 160.218,66.499 				"/>
			</g>
		</g>
		<g>
			<path fill="#FFFFFF" d="M147.625,58.969c-0.487,0-0.964-0.08-1.428-0.24s-0.864-0.392-1.2-0.696l0.372-0.552
				c0.353,0.288,0.71,0.504,1.074,0.648c0.364,0.144,0.754,0.216,1.17,0.216c0.504,0,0.906-0.103,1.206-0.306
				c0.3-0.204,0.45-0.494,0.45-0.87c0-0.176-0.04-0.322-0.12-0.438c-0.08-0.115-0.198-0.218-0.354-0.306
				c-0.156-0.088-0.353-0.166-0.589-0.234c-0.235-0.067-0.51-0.138-0.821-0.21c-0.36-0.088-0.672-0.176-0.937-0.264
				c-0.264-0.088-0.481-0.188-0.653-0.3c-0.173-0.112-0.301-0.25-0.385-0.414s-0.126-0.37-0.126-0.618
				c0-0.313,0.063-0.588,0.187-0.828s0.292-0.438,0.504-0.594c0.212-0.156,0.46-0.274,0.744-0.354c0.283-0.08,0.586-0.12,0.905-0.12
				c0.48,0,0.916,0.078,1.309,0.234c0.392,0.156,0.708,0.362,0.948,0.618l-0.396,0.479c-0.232-0.239-0.514-0.42-0.846-0.54
				s-0.679-0.18-1.038-0.18c-0.216,0-0.416,0.022-0.601,0.066c-0.184,0.044-0.346,0.113-0.485,0.21
				c-0.141,0.096-0.25,0.218-0.33,0.365c-0.08,0.148-0.12,0.322-0.12,0.522c0,0.168,0.028,0.304,0.084,0.408
				c0.056,0.104,0.147,0.193,0.276,0.27c0.128,0.076,0.289,0.145,0.485,0.204c0.196,0.061,0.435,0.122,0.714,0.187
				c0.4,0.096,0.752,0.191,1.057,0.288c0.304,0.096,0.558,0.208,0.762,0.336s0.358,0.283,0.462,0.468
				c0.104,0.184,0.156,0.408,0.156,0.672c0,0.576-0.221,1.032-0.66,1.368C148.961,58.801,148.369,58.969,147.625,58.969z"/>
			<path fill="#FFFFFF" d="M156.781,58.849h-0.815v-3.492c0-0.712-0.122-1.244-0.366-1.596s-0.603-0.528-1.074-0.528
				c-0.232,0-0.462,0.046-0.69,0.139c-0.228,0.092-0.441,0.218-0.642,0.378s-0.374,0.348-0.521,0.563
				c-0.148,0.216-0.259,0.452-0.33,0.708v3.828h-0.816v-8.76h0.816v3.924c0.256-0.472,0.604-0.844,1.044-1.116
				c0.439-0.271,0.912-0.408,1.416-0.408c0.359,0,0.666,0.066,0.918,0.198s0.456,0.316,0.611,0.552
				c0.156,0.236,0.271,0.521,0.343,0.853c0.071,0.332,0.107,0.698,0.107,1.098V58.849z"/>
			<path fill="#FFFFFF" d="M161.226,58.969c-0.456,0-0.874-0.086-1.254-0.258s-0.708-0.406-0.984-0.702s-0.49-0.64-0.642-1.032
				c-0.152-0.392-0.229-0.804-0.229-1.236c0-0.439,0.078-0.855,0.234-1.248c0.156-0.392,0.372-0.735,0.647-1.031
				c0.276-0.296,0.604-0.532,0.984-0.708s0.794-0.265,1.242-0.265s0.861,0.089,1.242,0.265c0.38,0.176,0.708,0.412,0.983,0.708
				c0.276,0.296,0.492,0.64,0.648,1.031c0.156,0.393,0.233,0.809,0.233,1.248c0,0.433-0.077,0.845-0.233,1.236
				c-0.156,0.393-0.372,0.736-0.648,1.032c-0.275,0.296-0.604,0.53-0.983,0.702C162.087,58.883,161.674,58.969,161.226,58.969z
				 M158.957,55.753c0,0.352,0.059,0.678,0.175,0.978c0.115,0.3,0.275,0.564,0.479,0.792c0.204,0.229,0.444,0.406,0.72,0.534
				c0.276,0.128,0.57,0.192,0.883,0.192c0.312,0,0.605-0.066,0.882-0.198c0.275-0.132,0.518-0.313,0.726-0.54
				c0.208-0.229,0.372-0.494,0.492-0.798s0.18-0.632,0.18-0.984c0-0.344-0.06-0.67-0.18-0.978c-0.12-0.309-0.284-0.576-0.492-0.805
				c-0.208-0.228-0.448-0.407-0.72-0.54c-0.272-0.132-0.564-0.197-0.876-0.197c-0.313,0-0.606,0.065-0.882,0.197
				c-0.276,0.133-0.517,0.314-0.721,0.546c-0.204,0.232-0.365,0.503-0.485,0.811S158.957,55.4,158.957,55.753z"/>
			<path fill="#FFFFFF" d="M173.445,52.597h0.792l-2.676,6.252h-0.685l-1.331-3.192l-1.332,3.192h-0.685l-2.676-6.252h0.78
				l2.279,5.412l1.188-2.856l-1.068-2.544h0.696l0.816,2.04l0.804-2.04h0.696l-1.057,2.544l1.188,2.856L173.445,52.597z"/>
		</g>
	</g>
</g>
</svg>
