<?xml version="1.0" encoding="utf-8"?>
<!-- Generator: Adobe Illustrator 16.0.0, SVG Export Plug-In . SVG Version: 6.00 Build 0)  -->
<!DOCTYPE svg PUBLIC "-//W3C//DTD SVG 1.1//EN" "http://www.w3.org/Graphics/SVG/1.1/DTD/svg11.dtd">
<svg version="1.1" xmlns="http://www.w3.org/2000/svg" xmlns:xlink="http://www.w3.org/1999/xlink" x="0px" y="0px" width="448px"
	 height="250px" viewBox="0 0 448 250" enable-background="new 0 0 448 250" xml:space="preserve">
<g id="Layer_1">
</g>
<g id="Layer_2">
	<g>
		<g>
			<path fill="none" stroke="#999999" stroke-miterlimit="10" d="M212.218,26.5h-124c-1.104,0-2.718-0.105-2.718,1v86
				c0,1.104,1.613,3,2.718,3h124c1.104,0,1.282-1.896,1.282-3v-86C213.5,26.395,213.322,26.5,212.218,26.5z"/>
			<g id="Rounded_Rectangle_34_18_">
				<g>
					<path fill-rule="evenodd" clip-rule="evenodd" fill="#EE0000" d="M180.218,38.5h-60c-1.104,0-2,0.895-2,2v60
						c0,1.104,0.896,2,2,2h60c1.104,0,2-0.896,2-2v-60C182.218,39.395,181.322,38.5,180.218,38.5z M142.724,64.502
						c1.108,0,2.007,0.895,2.007,1.996s-0.898,1.996-2.007,1.996c-1.107,0-2.006-0.895-2.006-1.996S141.616,64.502,142.724,64.502z
						 M140.721,76.496l2.421-4.994l2.234,2.281l2.979-4.971l2.979,3.098l3.99-6.287l4.388,10.873H140.721z"/>
				</g>
			</g>
		</g>
		<g>
			<g id="Rounded_Rectangle_33_15_">
				<g>
					<path fill="none" stroke="#999999" stroke-miterlimit="10" d="M360.218,25.5h-124c-1.104,0-2,0.895-2,2v86c0,1.104,0.896,2,2,2
						h124c1.104,0,2-0.896,2-2v-86C362.218,26.395,361.322,25.5,360.218,25.5z"/>
				</g>
			</g>
			<g id="Rounded_Rectangle_34_16_">
				<g>
					<path fill-rule="evenodd" clip-rule="evenodd" fill="#EE0000" d="M328.218,25.5h-60c-1.104,0-2,0.895-2,2v86
						c0,1.104,0.896,2,2,2h60c1.104,0,2-0.896,2-2v-86C330.218,26.395,329.322,25.5,328.218,25.5z M290.725,64.502
						c1.107,0,2.006,0.895,2.006,1.996s-0.898,1.996-2.006,1.996c-1.108,0-2.007-0.895-2.007-1.996S289.616,64.502,290.725,64.502z
						 M288.721,76.496l2.421-4.994l2.234,2.281l2.979-4.971l2.979,3.098l3.99-6.287l4.388,10.873H288.721z"/>
				</g>
			</g>
		</g>
		<g>
			<g id="Rounded_Rectangle_34_10_">
				<g>
					<path fill-rule="evenodd" clip-rule="evenodd" fill="#EE0000" d="M212.218,134.5h-124c-1.104,0-2,0.895-2,2v86
						c0,1.104,0.896,2,2,2h124c1.104,0,2-0.896,2-2v-86C214.218,135.395,213.322,134.5,212.218,134.5z M142.725,173.502
						c1.107,0,2.006,0.895,2.006,1.996s-0.898,1.996-2.006,1.996c-1.108,0-2.007-0.895-2.007-1.996S141.616,173.502,142.725,173.502
						z M140.721,185.496l2.421-4.994l2.234,2.281l2.979-4.971l2.979,3.098l3.99-6.287l4.388,10.873H140.721z"/>
				</g>
			</g>
			<g id="arrow_32_">
				<g>
					<path fill-rule="evenodd" clip-rule="evenodd" fill="#FFFFFF" d="M200.218,148.5h1v-1h-1V148.5z M201.218,147.5h1v-1h-1V147.5z
						 M202.218,146.5h1v-1h-1V146.5z M199.218,149.5h1v-1h-1V149.5z M198.218,150.5h1v-1h-1V150.5z M204.218,143.5h-3v1h2v1h1v2h1
						v-3v-1H204.218z"/>
				</g>
			</g>
			<g id="arrow_30_">
				<g>
					<path fill-rule="evenodd" clip-rule="evenodd" fill="#FFFFFF" d="M99.218,211.5h1v-1h-1V211.5z M98.218,212.5h1v-1h-1V212.5z
						 M97.218,213.5h1v-1h-1V213.5z M100.218,210.5h1v-1h-1V210.5z M101.218,208.5v1h1v-1H101.218z M96.218,211.5h-1v3v1h1h3v-1h-2
						v-1h-1V211.5z"/>
				</g>
			</g>
			<g id="arrow_28_">
				<g>
					<path fill-rule="evenodd" clip-rule="evenodd" fill="#FFFFFF" d="M200.218,210.5v1h1v-1H200.218z M201.218,211.5v1h1v-1
						H201.218z M202.218,212.5v1h1v-1H202.218z M199.218,209.5v1h1v-1H199.218z M198.218,208.5v1h1v-1H198.218z M204.218,211.5v2h-1
						v1h-2v1h3h1v-1v-3H204.218z"/>
				</g>
			</g>
			<g id="arrow_26_">
				<g>
					<path fill-rule="evenodd" clip-rule="evenodd" fill="#FFFFFF" d="M99.218,147.5v1h1v-1H99.218z M98.218,146.5v1h1v-1H98.218z
						 M97.218,145.5v1h1v-1H97.218z M99.218,144.5v-1h-3h-1v1v3h1v-2h1v-1H99.218z M100.218,148.5v1h1v-1H100.218z M101.218,149.5v1
						h1v-1H101.218z"/>
				</g>
			</g>
		</g>
		<g>
			<g id="Rounded_Rectangle_33_12_">
				<g>
					<path fill="none" stroke="#999999" stroke-miterlimit="10" d="M360.218,134.5h-124c-1.104,0-2,0.895-2,2v86
						c0,1.104,0.896,2,2,2h124c1.104,0,2-0.896,2-2v-86C362.218,135.395,361.322,134.5,360.218,134.5z"/>
				</g>
			</g>
			<g id="Rounded_Rectangle_35_4_">
				<g>
					<path fill-rule="evenodd" clip-rule="evenodd" fill="#EE0000" d="M264.218,134.5h-28c-1.104,0-2,0.895-2,2v20
						c0,1.104,0.896,2,2,2h28c1.104,0,2-0.896,2-2v-20C266.218,135.395,265.322,134.5,264.218,134.5z M244.22,149.498l1.401-3.215
						l1.294,1.469l1.725-3.201l1.725,1.994l2.31-4.047l2.541,7H244.22z M299.218,134.5h-28c-1.104,0-2,0.895-2,2v20
						c0,1.104,0.896,2,2,2h28c1.104,0,2-0.896,2-2v-20C301.218,135.395,300.322,134.5,299.218,134.5z M279.22,149.498l1.401-3.215
						l1.293,1.469l1.726-3.201l1.725,1.994l2.31-4.047l2.541,7H279.22z M334.218,134.5h-28c-1.104,0-2,0.895-2,2v20
						c0,1.104,0.896,2,2,2h28c1.104,0,2-0.896,2-2v-20C336.218,135.395,335.322,134.5,334.218,134.5z M314.22,149.498l1.401-3.215
						l1.293,1.469l1.726-3.201l1.725,1.994l2.31-4.047l2.541,7H314.22z M264.218,161.5h-28c-1.104,0-2,0.895-2,2v20
						c0,1.104,0.896,2,2,2h28c1.104,0,2-0.896,2-2v-20C266.218,162.395,265.322,161.5,264.218,161.5z M244.22,176.498l1.401-3.215
						l1.294,1.469l1.725-3.201l1.725,1.994l2.31-4.047l2.541,7H244.22z M264.218,188.5h-28c-1.104,0-2,0.895-2,2v20
						c0,1.104,0.896,2,2,2h28c1.104,0,2-0.896,2-2v-20C266.218,189.395,265.322,188.5,264.218,188.5z M244.22,203.498l1.401-3.215
						l1.294,1.467l1.725-3.199l1.725,1.994l2.31-4.047l2.541,7H244.22z M299.218,161.5h-28c-1.104,0-2,0.895-2,2v20
						c0,1.104,0.896,2,2,2h28c1.104,0,2-0.896,2-2v-20C301.218,162.395,300.322,161.5,299.218,161.5z M279.22,176.498l1.401-3.215
						l1.293,1.469l1.726-3.201l1.725,1.994l2.31-4.047l2.541,7H279.22z"/>
				</g>
			</g>
			<g id="arrow_24_">
				<g>
					<path fill-rule="evenodd" clip-rule="evenodd" fill="#EE0000" d="M312.218,194.5v1h1v-1H312.218z M313.218,195.5v1h1v-1
						H313.218z M314.218,196.5v1h1v-1H314.218z M311.218,193.5v1h1v-1H311.218z M310.218,192.5v1h1v-1H310.218z M316.218,195.5v2h-1
						v1h-2v1h4v-4H316.218z"/>
				</g>
			</g>
		</g>
	</g>
</g>
</svg>
