<?xml version="1.0" encoding="utf-8"?>
<!-- Generator: Adobe Illustrator 16.0.0, SVG Export Plug-In . SVG Version: 6.00 Build 0)  -->
<!DOCTYPE svg PUBLIC "-//W3C//DTD SVG 1.1//EN" "http://www.w3.org/Graphics/SVG/1.1/DTD/svg11.dtd">
<svg version="1.1" id="Layer_1" xmlns="http://www.w3.org/2000/svg" xmlns:xlink="http://www.w3.org/1999/xlink" x="0px" y="0px"
	 width="140px" height="40px" viewBox="0 0 140 40" enable-background="new 0 0 140 40" xml:space="preserve">
<path fill="#EEEEEE" d="M82.842,10.455l-6.421,6.364l-3.567-3.536l6.421-6.363c0.788-0.781,0.788-2.048,0-2.829
	s-2.066-0.781-2.854,0L70,10.455L63.579,4.09c-0.788-0.781-2.066-0.781-2.854,0c-0.789,0.781-0.789,2.048,0,2.829l6.42,6.363
	l-3.567,3.536l-6.421-6.364c-0.788-0.781-2.066-0.781-2.854,0c-0.788,0.781-0.788,2.047,0,2.828l6.421,6.364l-7.135,7.071
	c-0.788,0.78-0.788,2.047,0,2.828c0.789,0.781,2.066,0.781,2.854,0l7.134-7.071l3.567,3.536l-7.134,7.071
	c-0.789,0.781-0.789,2.047,0,2.828c0.788,0.781,2.065,0.781,2.854,0L70,28.839l7.135,7.071c0.788,0.781,2.064,0.781,2.854,0
	c0.788-0.781,0.788-2.047,0-2.828l-7.135-7.071l3.567-3.536l7.134,7.071c0.788,0.781,2.066,0.781,2.854,0s0.788-2.048,0-2.828
	l-7.135-7.071l6.421-6.364c0.788-0.781,0.788-2.047,0-2.828S83.63,9.673,82.842,10.455z M70,23.182l-3.567-3.535L70,16.112
	l3.566,3.535L70,23.182z"/>
<path fill="#EEEEEE" d="M46,18H14.314l-0.829-0.829l-5.071-5.071c-0.781-0.781-2.047-0.781-2.828,0
	c-0.781,0.781-0.781,2.047,0,2.828L10.657,20l-5.071,5.071c-0.781,0.781-0.781,2.047,0,2.828c0.781,0.781,2.047,0.781,2.828,0
	l5.071-5.071L14.314,22H46c1.104,0,2-0.896,2-2S47.104,18,46,18z"/>
<path fill="#EEEEEE" d="M94,18h31.686l0.829-0.829l5.071-5.071c0.781-0.781,2.047-0.781,2.828,0c0.781,0.781,0.781,2.047,0,2.828
	L129.344,20l5.07,5.071c0.781,0.781,0.781,2.047,0,2.828c-0.781,0.781-2.047,0.781-2.828,0l-5.071-5.071L125.686,22H94
	c-1.104,0-2-0.896-2-2S92.896,18,94,18z"/>
</svg>
