<svg xmlns="http://www.w3.org/2000/svg" viewBox="0 0 154 79" width="154" height="79"><defs><style>.cls-1{fill:#c05;}</style></defs><g id="Rounded_Rectangle_39_copy" data-name="Rounded Rectangle 39 copy"><path class="cls-1" d="M152.8,5a1.49,1.49,0,0,1,.2.81V72.18a1.46,1.46,0,0,1-.2.81L139,70.84V7.17L152.8,5M1.2,5.2,15,7.35V70.81L1.2,73a1.46,1.46,0,0,1-.2-.81V6a1.45,1.45,0,0,1,.2-.8M152.86,4h-.12L138,6.31V71.69L152.74,74h.12c.64,0,1.14-.78,1.14-1.82V5.82c0-1-.5-1.82-1.14-1.82ZM1.14,4.19C.5,4.19,0,5,0,6V72.15C0,73.19.5,74,1.14,74h.12L16,71.67V6.49L1.26,4.2Z"/></g><g id="Rounded_Rectangle_39" data-name="Rounded Rectangle 39"><path class="cls-1" d="M121,1a1,1,0,0,1,1,1V7.48l1.15-.18L137.79,5a1.36,1.36,0,0,1,.21.81V72.18a1.46,1.46,0,0,1-.2.81L123.15,70.7,122,70.52V77a1,1,0,0,1-1,1H34a1,1,0,0,1-1-1V70.34l-1.15.18L16.2,73a1.46,1.46,0,0,1-.2-.81V6a1.45,1.45,0,0,1,.2-.8L31.85,7.63,33,7.81V2a1,1,0,0,1,1-1h87m0-1H34a2,2,0,0,0-2,2V6.65L16.26,4.2h-.12C15.5,4.19,15,5,15,6V72.15c0,1,.5,1.82,1.14,1.82h.12L32,71.51V77a2,2,0,0,0,2,2h87a2,2,0,0,0,2-2V71.69L137.74,74h.12c.64,0,1.14-.78,1.14-1.82V5.82c0-1-.5-1.82-1.14-1.82h-.12L123,6.31V2a2,2,0,0,0-2-2Z"/></g><g id="Rounded_Rectangle_40" data-name="Rounded Rectangle 40"><path class="cls-1" d="M121,1a1,1,0,0,1,1,1V77a1,1,0,0,1-1,1H34a1,1,0,0,1-1-1V2a1,1,0,0,1,1-1h87M78,38.8l-2.09-2.18L75,35.68l-.67,1.12L72,40.66,70.64,39.3l-1-1L69,39.57l-2.42,5L65.91,46H88l-.56-1.38L83,33.75l-.72-1.81-1,1.65L78,38.8M69.51,38a3,3,0,1,0-3-3,3,3,0,0,0,3,3M121,0H34a2,2,0,0,0-2,2V77a2,2,0,0,0,2,2h87a2,2,0,0,0,2-2V2a2,2,0,0,0-2-2ZM69.51,37a2,2,0,1,1,2-2,2,2,0,0,1-2,2Zm8.61,3.42,4-6.29L86.49,45h-19l2.42-5,2.24,2.28,3-5,3,3.1Z"/></g></svg>