<svg width="500" height="320" viewBox="0 0 500 320" fill="none" xmlns="http://www.w3.org/2000/svg">
  <g id="70e41dcf2de2a97788407dfe653b7193" clip-path="url(#clip0_2_141)">
    <rect width="500" height="320" fill="white"></rect>
    <g id="4b24c262c9f3732379dcac6edd8d0074">
      <path id="af7062d2e1e946c275b33d3d6a955b22" d="M371.541 -261.367L295.908 -337L-274 232.908L-198.367 308.541L371.541 -261.367Z" fill="#00BB55"></path>
      <path id="c34771f5a5b79c3097e62261ec676a7d" d="M447.193 -185.738L371.557 -261.374L-198.345 308.529L-122.71 384.165L447.193 -185.738Z" fill="#CC0055"></path>
      <path id="ca98d029a328a775d0e7c8b776d4cb78" d="M521.111 -111.827L447.196 -185.742L-122.709 384.164L-48.7946 458.078L521.111 -111.827Z" fill="#00BB55"></path>
      <path id="ba0866f0c8c56982e3b83d18fd46cb69" d="M596.733 -36.1934L521.102 -111.824L-48.8059 458.083L26.825 533.714L596.733 -36.1934Z" fill="#FFC148"></path>
      <path id="90f1b930734eadc3e28e1873b2a92894" d="M672.367 39.4381L596.734 -36.1952L26.8263 533.712L102.46 609.346L672.367 39.4381Z" fill="#CC0055"></path>
      <path id="2606b603a817b8c29024cb23059c77ac" d="M748 115.074L672.364 39.4386L102.459 609.344L178.095 684.979L748 115.074Z" fill="#FFBB00"></path>
    </g>
    <g id="563ab3491180e760233e2e1aaf9407af">
      <g id="9e04646d48be5b569e9b17b5d845193c" clip-path="url(#clip1_2_141)">
        <path id="c0baaf6957180a1beeefc571e0944820" d="M237.513 144.375C237.513 146.861 236.525 149.246 234.767 151.004C233.008 152.762 230.624 153.75 228.138 153.75C225.651 153.75 223.267 152.762 221.508 151.004C219.75 149.246 218.763 146.861 218.763 144.375C218.763 141.889 219.75 139.504 221.508 137.746C223.267 135.988 225.651 135 228.138 135C230.624 135 233.008 135.988 234.767 137.746C236.525 139.504 237.513 141.889 237.513 144.375V144.375Z" fill="white"></path>
        <path id="174fa48d3c690708edbac401b075c004" d="M209.375 122.5C206.889 122.5 204.504 123.488 202.746 125.246C200.988 127.004 200 129.389 200 131.875V188.125C200 190.611 200.988 192.996 202.746 194.754C204.504 196.512 206.889 197.5 209.375 197.5H290.625C293.111 197.5 295.496 196.512 297.254 194.754C299.012 192.996 300 190.611 300 188.125V131.875C300 129.389 299.012 127.004 297.254 125.246C295.496 123.488 293.111 122.5 290.625 122.5H209.375ZM290.625 128.75C291.454 128.75 292.249 129.079 292.835 129.665C293.421 130.251 293.75 131.046 293.75 131.875V169.375L270.156 157.206C269.57 156.913 268.907 156.811 268.259 156.915C267.612 157.019 267.014 157.325 266.55 157.787L243.363 180.975L226.737 169.9C226.137 169.5 225.417 169.321 224.7 169.391C223.982 169.462 223.311 169.779 222.8 170.287L206.262 185V188.375C206.255 188.292 206.251 188.208 206.25 188.125V131.875C206.25 131.046 206.579 130.251 207.165 129.665C207.751 129.079 208.546 128.75 209.375 128.75H290.625Z" fill="white"></path>
      </g>
    </g>
  </g>
  <defs>
    <clipPath id="clip0_2_141">
      <rect width="500" height="320" fill="white"></rect>
    </clipPath>
    <clipPath id="clip1_2_141">
      <rect width="100" height="100" fill="white" transform="translate(200 110)"></rect>
    </clipPath>
  </defs>
</svg>