<?xml version="1.0" encoding="utf-8"?>
<!-- Generator: Adobe Illustrator 16.0.0, SVG Export Plug-In . SVG Version: 6.00 Build 0)  -->
<!DOCTYPE svg PUBLIC "-//W3C//DTD SVG 1.1//EN" "http://www.w3.org/Graphics/SVG/1.1/DTD/svg11.dtd">
<svg version="1.1" xmlns="http://www.w3.org/2000/svg" xmlns:xlink="http://www.w3.org/1999/xlink" x="0px" y="0px" width="448px"
	 height="250px" viewBox="0 0 448 250" enable-background="new 0 0 448 250" xml:space="preserve">
<g id="Layer_1">
</g>
<g id="Layer_2">
	<g>
		<g id="screen_4_">
			<g>
				<path fill-rule="evenodd" clip-rule="evenodd" fill="#FF0099" d="M325.375,45H219.141H112.906c-4.293,0-7.773,3.48-7.773,7.773
					v141.215c0,4.293,3.48,7.772,7.773,7.772h106.234h106.234c4.293,0,7.773-3.479,7.773-7.772V52.773
					C333.148,48.48,329.668,45,325.375,45z M322.137,184.271c0,0.716-0.58,1.295-1.295,1.295H219.141H117.439
					c-0.715,0-1.295-0.579-1.295-1.295V56.66c0-0.715,0.58-1.296,1.295-1.296h101.701h101.701c0.715,0,1.295,0.581,1.295,1.296
					V184.271z"/>
			</g>
		</g>
		<g id="bottom_4_">
			<g>
				<path fill="#FF0099" d="M219.141,198.522H79.223v1.943c0,0,16.6,4.534,40.809,4.534c29.344,0,69.465,0,99.109,0
					c29.57,0,69.588,0,98.859,0c24.146,0,40.705-4.534,40.705-4.534v-1.943H219.141z"/>
			</g>
		</g>
		<g id="ohters_4_">
			<g>
				<path fill-rule="evenodd" clip-rule="evenodd" fill="#FFFFFF" d="M219.141,198.522h-23.969c0,0-1.051,2.591,5.184,2.591
					c5.102,0,12.404,0,18.785,0c6.363,0,13.648,0,18.738,0c6.219,0,5.168-2.591,5.168-2.591H219.141z M266.428,201.113h-1.943
					c-0.357,0-0.648,0.29-0.648,0.647c0,0.358,0.291,0.648,0.648,0.648h1.943c0.357,0,0.648-0.29,0.648-0.648
					C267.076,201.403,266.785,201.113,266.428,201.113z M173.797,201.113h-1.943c-0.359,0-0.648,0.29-0.648,0.647
					c0,0.358,0.289,0.648,0.648,0.648h1.943c0.357,0,0.646-0.29,0.646-0.648C174.443,201.403,174.154,201.113,173.797,201.113z
					 M219.141,52.125c1.072,0,1.943-0.869,1.943-1.943c0-1.072-0.871-1.943-1.943-1.943c-1.074,0-1.943,0.871-1.943,1.943
					C217.197,51.256,218.066,52.125,219.141,52.125z"/>
			</g>
			<g>
				<path fill-rule="evenodd" clip-rule="evenodd" fill="#FFFFFF" d="M219.141,198.522h-23.969c0,0-1.051,2.591,5.184,2.591
					c5.102,0,12.404,0,18.785,0c6.363,0,13.648,0,18.738,0c6.219,0,5.168-2.591,5.168-2.591H219.141z M266.428,201.113h-1.943
					c-0.357,0-0.648,0.29-0.648,0.647c0,0.358,0.291,0.648,0.648,0.648h1.943c0.357,0,0.648-0.29,0.648-0.648
					C267.076,201.403,266.785,201.113,266.428,201.113z M173.797,201.113h-1.943c-0.359,0-0.648,0.29-0.648,0.647
					c0,0.358,0.289,0.648,0.648,0.648h1.943c0.357,0,0.646-0.29,0.646-0.648C174.443,201.403,174.154,201.113,173.797,201.113z
					 M219.141,52.125c1.072,0,1.943-0.869,1.943-1.943c0-1.072-0.871-1.943-1.943-1.943c-1.074,0-1.943,0.871-1.943,1.943
					C217.197,51.256,218.066,52.125,219.141,52.125z"/>
			</g>
			<g>
				<path fill-rule="evenodd" clip-rule="evenodd" fill="#FFFFFF" d="M219.141,198.522h-23.969c0,0-1.051,2.591,5.184,2.591
					c5.102,0,12.404,0,18.785,0c6.363,0,13.648,0,18.738,0c6.219,0,5.168-2.591,5.168-2.591H219.141z M266.428,201.113h-1.943
					c-0.357,0-0.648,0.29-0.648,0.647c0,0.358,0.291,0.648,0.648,0.648h1.943c0.357,0,0.648-0.29,0.648-0.648
					C267.076,201.403,266.785,201.113,266.428,201.113z M173.797,201.113h-1.943c-0.359,0-0.648,0.29-0.648,0.647
					c0,0.358,0.289,0.648,0.648,0.648h1.943c0.357,0,0.646-0.29,0.646-0.648C174.443,201.403,174.154,201.113,173.797,201.113z
					 M219.141,52.125c1.072,0,1.943-0.869,1.943-1.943c0-1.072-0.871-1.943-1.943-1.943c-1.074,0-1.943,0.871-1.943,1.943
					C217.197,51.256,218.066,52.125,219.141,52.125z"/>
			</g>
		</g>
		<g id="overlay_10_">
			<g>
				<rect x="303.352" y="77.389" fill="#FFFFFF" width="60.242" height="127.611"/>
			</g>
		</g>
		<rect x="79" y="199" fill-rule="evenodd" clip-rule="evenodd" fill="#FFFFFF" width="285" height="1"/>
		<g id="Rounded_Rectangle_2_4_">
			<g>
				<path fill="#FF0099" d="M362.945,79.979h-48.582c-3.578,0-6.479,2.901-6.479,6.478v112.065c0,3.577,2.9,6.478,6.479,6.478
					h48.582c3.578,0,6.479-2.9,6.479-6.478V86.457C369.424,82.881,366.523,79.979,362.945,79.979z"/>
			</g>
		</g>
		<g id="Rounded_Rectangle_3_4_">
			<g>
				<path fill-rule="evenodd" clip-rule="evenodd" fill="#FFFFFF" d="M342.541,86.457h-7.773c-0.535,0-0.971,0.436-0.971,0.974
					c0,0.535,0.436,0.97,0.971,0.97h7.773c0.537,0,0.973-0.435,0.973-0.97C343.514,86.893,343.078,86.457,342.541,86.457z
					 M329.586,85.811c-0.895,0-1.619,0.725-1.619,1.62c0,0.893,0.725,1.618,1.619,1.618s1.619-0.726,1.619-1.618
					C331.205,86.535,330.48,85.811,329.586,85.811z M338.654,85.162c0.537,0,0.973-0.434,0.973-0.972
					c0-0.536-0.436-0.972-0.973-0.972c-0.535,0-0.971,0.436-0.971,0.972C337.684,84.729,338.119,85.162,338.654,85.162z
					 M338.33,193.34c-2.146,0-3.887,1.741-3.887,3.887c0,2.147,1.74,3.887,3.887,3.887s3.887-1.739,3.887-3.887
					C342.217,195.081,340.477,193.34,338.33,193.34z"/>
			</g>
		</g>
		<g id="Rounded_Rectangle_4_4_">
			<g>
				<path fill="#FFFFFF" d="M364.242,94.879h-51.174c-1.074,0-1.943,0.87-1.943,1.943v91.336c0,1.074,0.869,1.943,1.943,1.943
					h51.174c1.072,0,1.943-0.869,1.943-1.943V96.822C366.186,95.749,365.314,94.879,364.242,94.879z"/>
			</g>
		</g>
	</g>
</g>
</svg>
