<?xml version="1.0" encoding="utf-8"?>
<!-- Generator: Adobe Illustrator 16.0.0, SVG Export Plug-In . SVG Version: 6.00 Build 0)  -->
<!DOCTYPE svg PUBLIC "-//W3C//DTD SVG 1.1//EN" "http://www.w3.org/Graphics/SVG/1.1/DTD/svg11.dtd">
<svg version="1.1" xmlns="http://www.w3.org/2000/svg" xmlns:xlink="http://www.w3.org/1999/xlink" x="0px" y="0px" width="448px"
	 height="250px" viewBox="0 0 448 250" enable-background="new 0 0 448 250" xml:space="preserve">
<g id="Layer_1">
</g>
<g id="Layer_2">
	<g>
		<polygon fill="#0066CC" points="181,3.506 141,26.753 141,73.248 181,96.494 221,73.248 221,26.753 		"/>
		<polygon fill="#FFBB00" points="138,78.506 98,101.753 98,148.248 138,171.494 178,148.248 178,101.753 		"/>
		<polygon fill="#EE0000" points="181,153.506 141,176.753 141,223.248 181,246.494 221,223.248 221,176.753 		"/>
		<polygon fill="#9900AA" points="267,153.506 227,176.753 227,223.248 267,246.494 307,223.248 307,176.753 		"/>
		<polygon fill="#FF0099" points="310,78.506 270,101.753 270,148.248 310,171.494 350,148.248 350,101.753 		"/>
		<polygon fill="#00BB55" points="267,3.506 227,26.753 227,73.248 267,96.494 307,73.248 307,26.753 		"/>
		<path fill="#CC0055" d="M224,78.506l-40,23.247v46.494l40,23.246l40-23.246v-46.494L224,78.506z M248,138.951l-24,13.951
			l-24-13.951v-27.903l24-13.952l24,13.952V138.951z"/>
	</g>
</g>
</svg>
