<?xml version="1.0" encoding="utf-8"?>
<!-- Generator: Adobe Illustrator 16.0.0, SVG Export Plug-In . SVG Version: 6.00 Build 0)  -->
<!DOCTYPE svg PUBLIC "-//W3C//DTD SVG 1.1//EN" "http://www.w3.org/Graphics/SVG/1.1/DTD/svg11.dtd">
<svg version="1.1" xmlns="http://www.w3.org/2000/svg" xmlns:xlink="http://www.w3.org/1999/xlink" x="0px" y="0px" width="448px"
	 height="250px" viewBox="0 0 448 250" enable-background="new 0 0 448 250" xml:space="preserve">
<g id="Layer_1">
</g>
<g id="Layer_2">
	<path fill="#0066CC" stroke="#FFFFFF" stroke-miterlimit="10" d="M269.5,23.5h-22.167c-0.393-2-1.478-2-2.771-2H224.5h-20.063
		c-1.293,0-2.378,0-2.771,2H179.5l-16,7.813v56.625l16,8.563h36l1.375,7.333l0.625,106.292l-0.834,0.292l-1.166,13.896l4.5,4.188
		h4.5h4.5l4.5-4.25l-1.166-13.708L231.5,210l0.625-106.104L233.5,96.5h36l14-8.563V31.313L269.5,23.5z M217.24,86.279L225.56,63.5
		h-15.6l17.68-29.221L221.4,55.5h16.64L217.24,86.279z"/>
</g>
</svg>
