<?xml version="1.0" encoding="utf-8"?>
<!-- Generator: Adobe Illustrator 16.0.0, SVG Export Plug-In . SVG Version: 6.00 Build 0)  -->
<!DOCTYPE svg PUBLIC "-//W3C//DTD SVG 1.1//EN" "http://www.w3.org/Graphics/SVG/1.1/DTD/svg11.dtd">
<svg version="1.1" xmlns="http://www.w3.org/2000/svg" xmlns:xlink="http://www.w3.org/1999/xlink" x="0px" y="0px" width="448px"
	 height="250px" viewBox="0 0 448 250" enable-background="new 0 0 448 250" xml:space="preserve">
<g id="Layer_1">
</g>
<g id="Layer_2">
	<g>
		<path fill-rule="evenodd" clip-rule="evenodd" fill="#00BB55" d="M148.99,214.542c0,1.104,0.748,2.458,1.852,2.458h146
			c1.105,0,2.158-1.313,2.158-2.416V75h-40.158c-1.104,0-1.842-1.313-1.842-2.416V33H150.842c-1.104,0-1.852,0.416-1.852,1.521
			 M261.842,72h37.168L260,32.916v36.668C260,70.688,260.738,72,261.842,72z"/>
		<g>
			<path fill="#FFFFFF" d="M185.404,192.085h-2v-11.6c0-2.587-0.439-4.521-1.32-5.801c-0.879-1.279-2.16-1.92-3.84-1.92
				c-0.854,0-1.693,0.16-2.52,0.48s-1.594,0.773-2.301,1.359c-0.705,0.587-1.326,1.274-1.859,2.061
				c-0.533,0.787-0.92,1.634-1.16,2.54v12.88h-2v-29.2h2v13.36c0.854-1.626,2.033-2.92,3.541-3.88c1.506-0.96,3.125-1.44,4.859-1.44
				c1.146,0,2.133,0.214,2.961,0.641c0.826,0.427,1.512,1.039,2.059,1.84c0.547,0.8,0.947,1.767,1.201,2.899
				c0.252,1.134,0.379,2.407,0.379,3.82V192.085z"/>
			<path fill="#FFFFFF" d="M200.525,191.085c-0.107,0.054-0.287,0.153-0.541,0.3c-0.254,0.147-0.574,0.287-0.959,0.42
				c-0.389,0.134-0.82,0.254-1.301,0.36s-1,0.16-1.561,0.16s-1.086-0.08-1.58-0.24s-0.926-0.4-1.299-0.72
				c-0.375-0.32-0.674-0.706-0.9-1.16c-0.227-0.453-0.34-0.986-0.34-1.601v-15.68h-2.92v-1.64h2.92v-7.12h2v7.12h4.879v1.64h-4.879
				v15.2c0,0.773,0.266,1.354,0.799,1.74s1.146,0.58,1.84,0.58c0.826,0,1.541-0.141,2.141-0.42c0.6-0.28,0.967-0.46,1.1-0.54
				L200.525,191.085z"/>
			<path fill="#FFFFFF" d="M234.443,192.085h-2v-11.6c0-2.641-0.406-4.587-1.219-5.841c-0.814-1.253-2.061-1.88-3.74-1.88
				c-0.881,0-1.707,0.16-2.48,0.48s-1.473,0.767-2.1,1.34c-0.627,0.574-1.174,1.254-1.641,2.04c-0.467,0.787-0.834,1.66-1.1,2.62
				v12.84h-2v-11.6c0-2.667-0.4-4.62-1.199-5.86c-0.801-1.24-2.041-1.86-3.721-1.86c-0.854,0-1.666,0.154-2.439,0.46
				c-0.773,0.308-1.48,0.747-2.121,1.32c-0.639,0.574-1.199,1.254-1.68,2.04c-0.48,0.787-0.854,1.66-1.119,2.62v12.88h-2v-20.8h1.84
				v4.96c0.879-1.68,2.014-2.986,3.4-3.92c1.385-0.934,2.92-1.4,4.6-1.4c1.76,0,3.18,0.521,4.26,1.561s1.727,2.399,1.939,4.08
				c2.027-3.761,4.746-5.641,8.16-5.641c2.293,0,3.926,0.807,4.9,2.42c0.973,1.614,1.459,3.874,1.459,6.78V192.085z"/>
			<path fill="#FFFFFF" d="M240.484,162.885h2.039v25.08c0,0.773,0.221,1.387,0.66,1.84c0.439,0.454,1.047,0.681,1.82,0.681
				c0.293,0,0.646-0.033,1.061-0.101c0.412-0.066,0.793-0.166,1.139-0.3l0.4,1.6c-0.453,0.188-1.014,0.341-1.68,0.46
				c-0.668,0.12-1.24,0.181-1.721,0.181c-1.119,0-2.02-0.34-2.699-1.021c-0.68-0.68-1.02-1.593-1.02-2.739V162.885z"/>
		</g>
	</g>
</g>
</svg>
