<?xml version="1.0" encoding="utf-8"?>
<!-- Generator: Adobe Illustrator 16.0.0, SVG Export Plug-In . SVG Version: 6.00 Build 0)  -->
<!DOCTYPE svg PUBLIC "-//W3C//DTD SVG 1.1//EN" "http://www.w3.org/Graphics/SVG/1.1/DTD/svg11.dtd">
<svg version="1.1" xmlns="http://www.w3.org/2000/svg" xmlns:xlink="http://www.w3.org/1999/xlink" x="0px" y="0px" width="448px"
	 height="250px" viewBox="0 0 448 250" enable-background="new 0 0 448 250" xml:space="preserve">
<g id="Layer_1">
</g>
<g id="Layer_2">
	<g>
		<polygon fill="#0066CC" points="359.508,48.451 311.492,6 270.492,6 224.056,51.531 177.492,6 136.492,6 88.492,48.451 
			97.524,127.177 224.057,243.657 350.524,127.246 		"/>
		<polygon fill="#FFFFFF" points="296.492,60 293.492,60 224,125.902 224,175.902 303.246,103.902 307.369,68.951 		"/>
		<polygon fill="#FFFFFF" points="311.492,16 277.492,16 224,66.902 224,81.937 281.492,27 307.492,27 340.508,55.951 
			333.246,117.927 224,217.902 224,231.902 343.246,122.902 351.369,51.951 		"/>
		<polygon fill="#FFFFFF" points="303.492,38 285.492,38 224,96.902 224,110.902 289.492,49 300.492,49 318.508,64.951 
			313.246,108.927 224,189.902 224,203.902 323.246,113.902 329.369,59.951 		"/>
		<circle fill="#0066CC" cx="284.094" cy="94.523" r="4.5"/>
		<line fill="none" stroke="#0066CC" stroke-miterlimit="10" x1="220.813" y1="152.992" x2="283.5" y2="95.305"/>
	</g>
</g>
</svg>
