<?xml version="1.0" encoding="utf-8"?>
<!-- Generator: Adobe Illustrator 16.0.0, SVG Export Plug-In . SVG Version: 6.00 Build 0)  -->
<!DOCTYPE svg PUBLIC "-//W3C//DTD SVG 1.1//EN" "http://www.w3.org/Graphics/SVG/1.1/DTD/svg11.dtd">
<svg version="1.1" id="Layer_1" xmlns="http://www.w3.org/2000/svg" xmlns:xlink="http://www.w3.org/1999/xlink" x="0px" y="0px"
	 width="200px" height="100px" viewBox="0 0 200 100" enable-background="new 0 0 200 100" xml:space="preserve">
<path opacity="0.35" d="M35.585,17.499C35.842,17.056,36,16.549,36,16c0-1.657-1.343-3-3-3s-3,1.343-3,3s1.343,3,3,3h-0.014
	C34.245,20.672,35,22.746,35,25c0,5.523-4.477,10-10,10s-10-4.477-10-10c0-3.017,1.352-5.703,3.465-7.535L21,20v-7h-7l2.331,2.331
	C13.676,17.708,12,21.155,12,25c0,7.18,5.82,13,13,13s13-5.82,13-13C38,22.198,37.095,19.619,35.585,17.499z"/>
<polygon opacity="0.35" points="23,30 23,20 30,25 "/>
<g opacity="0.35">
	<path d="M70.664,33.891C69.749,34.501,69,34.1,69,33V17c0-1.1,0.749-1.501,1.664-0.891l11.672,7.781
		c0.915,0.61,0.915,1.608,0,2.219L70.664,33.891z"/>
</g>
<g opacity="0.35">
	<g>
		<path d="M123,32c0,1.1-0.9,2-2,2h-3c-1.1,0-2-0.9-2-2V18c0-1.1,0.9-2,2-2h3c1.1,0,2,0.9,2,2V32z"/>
	</g>
	<g>
		<path d="M134,32c0,1.1-0.9,2-2,2h-3c-1.1,0-2-0.9-2-2V18c0-1.1,0.9-2,2-2h3c1.1,0,2,0.9,2,2V32z"/>
	</g>
</g>
<path fill="#CC0055" d="M35.585,67.498C35.842,67.057,36,66.549,36,66c0-1.657-1.343-3-3-3s-3,1.343-3,3s1.343,3,3,3h-0.014
	C34.245,70.672,35,72.746,35,75c0,5.523-4.477,10-10,10s-10-4.477-10-10c0-3.017,1.352-5.703,3.465-7.535L21,70v-7h-7l2.331,2.33
	C13.676,67.709,12,71.154,12,75c0,7.18,5.82,13,13,13s13-5.82,13-13C38,72.197,37.095,69.619,35.585,67.498z"/>
<polygon fill="#CC0055" points="23,80 23,70 30,75 "/>
<g>
	<path fill="#CC0055" d="M70.664,83.891C69.749,84.501,69,84.1,69,83V67c0-1.1,0.749-1.501,1.664-0.891l11.672,7.781
		c0.915,0.61,0.915,1.608,0,2.219L70.664,83.891z"/>
</g>
<g>
	<g>
		<path fill="#CC0055" d="M123,82c0,1.1-0.9,2-2,2h-3c-1.1,0-2-0.9-2-2V68c0-1.1,0.9-2,2-2h3c1.1,0,2,0.9,2,2V82z"/>
	</g>
	<g>
		<path fill="#CC0055" d="M134,82c0,1.1-0.9,2-2,2h-3c-1.1,0-2-0.9-2-2V68c0-1.1,0.9-2,2-2h3c1.1,0,2,0.9,2,2V82z"/>
	</g>
</g>
<path opacity="0.35" d="M175,16v-3l-7,5l7,5v-3c2.762,0,5,2.238,5,5s-2.238,5-5,5s-5-2.238-5-5h-4c0,4.97,4.029,9,9,9s9-4.03,9-9
	S179.971,16,175,16z"/>
<path fill="#CC0055" d="M175,66v-3l-7,5l7,5v-3c2.762,0,5,2.238,5,5s-2.238,5-5,5s-5-2.238-5-5h-4c0,4.971,4.029,9,9,9s9-4.029,9-9
	S179.971,66,175,66z"/>
</svg>
