<svg version="1.1" xmlns="http://www.w3.org/2000/svg" xmlns:xlink="http://www.w3.org/1999/xlink" x="0px" y="0px"
	 width="200px" height="100px" viewBox="0 0 200 100" enable-background="new 0 0 200 100" xml:space="preserve">
<g>
	<path fill-rule="evenodd" clip-rule="evenodd" fill="#FFFFFF" d="M82,20.005c-0.553,0-1,0.448-1,1v5c0,2.209-1.791,4-4,4
		s-4-1.791-4-4v-5c0-0.552-0.447-1-1-1s-1,0.448-1,1v5c0,3.313,2.687,6,6,6c1.544,0,3-0.6,4-1.557v0.557c0,0.553,0.447,1,1,1
		s1-0.447,1-1v-10C83,20.453,82.553,20.005,82,20.005z"/>
	<path fill-rule="evenodd" clip-rule="evenodd" fill="#FFFFFF" d="M112.043,20.144c-0.504-0.276-1.148-0.112-1.439,0.366
		l-4.258,7.007l-3.91-7.012c-0.277-0.495-0.889-0.665-1.367-0.379c-0.479,0.286-0.643,0.919-0.365,1.414l4.438,7.959l-2.433,4.001
		c-0.291,0.479-0.117,1.09,0.387,1.366c0.503,0.275,1.146,0.112,1.438-0.366l7.895-12.99
		C112.719,21.031,112.547,20.42,112.043,20.144z"/>
	<path fill-rule="evenodd" clip-rule="evenodd" fill="#FFFFFF" d="M67.911,21.074c-0.958-0.657-2.378-1.069-3.627-1.069
		c-1.544,0-3.284,0.6-4.284,1.557v-0.557c0-0.552-0.447-1-1-1s-1,0.448-1,1v10c0,0.553,0.447,1,1,1s1-0.447,1-1v-5
		c0-2.209,2.075-4,4.284-4c0.85,0,1.775,0.269,2.423,0.72l0.084-0.013c0.182,0.181,0.466,0.293,0.742,0.293
		c0.553,0,1.018-0.448,1.018-1C68.551,21.574,68.293,21.215,67.911,21.074z"/>
	<path fill-rule="evenodd" clip-rule="evenodd" fill="#FFFFFF" d="M116.568,24c0-0.859,0.469-2.266,2.617-2.266
		c1.254,0,1.839,0.292,2.769,1.024c0.953,0.75,1.795-0.361,1.247-1.017c-0.711-0.851-1.914-1.736-4.118-1.736
		c-2.809,0-4.205,2.233-4.187,3.995c0.047,4.359,6.813,1.609,7.203,3.859c0.208,1.2-0.902,2.652-3.017,2.652
		c-1.353,0-2.475-0.689-3.122-1.399c-0.77-0.842-1.716,0.121-1.283,0.755c1.029,1.503,2.934,2.144,4.405,2.144
		c3.042,0,4.767-1.855,4.767-4.011C123.85,23.672,116.568,26.109,116.568,24z"/>
	<path fill-rule="evenodd" clip-rule="evenodd" fill="#FFFFFF" d="M129,16.005c0-0.552-0.447-1-1-1s-1,0.448-1,1v12
		c0,2.209,2.075,4,4.284,4c0.553,0,1.143-0.447,1.143-1s-0.661-1-1.214-1c-1.104,0-2.213-0.896-2.213-2V16.005z"/>
	<path fill-rule="evenodd" clip-rule="evenodd" fill="#FFFFFF" d="M137,31c0,0.552-0.447,1-1,1l0,0c-0.553,0-1-0.448-1-1V21
		c0-0.552,0.447-1,1-1l0,0c0.553,0,1,0.448,1,1V31z"/>
	<path fill-rule="evenodd" clip-rule="evenodd" fill="#FFFFFF" d="M92.284,20C90.745,20,89,20.584,88,21.537V16c0-0.552-0.447-1-1-1
		s-1,0.448-1,1v10c0,3.313,2.971,6,6.284,6s6-2.687,6-6S95.598,20,92.284,20z M92.568,30c-2.209,0-4-1.791-4-4s1.791-4,4-4
		s4,1.791,4,4S94.777,30,92.568,30z"/>
	<path fill-rule="evenodd" clip-rule="evenodd" fill="#FFFFFF" d="M140.568,26c0,3.313,2.402,6,5.716,6S152,29.313,152,26V16
		c0-0.552-0.447-1-1-1s-1,0.448-1,1v5.537c-1-0.953-2.177-1.537-3.716-1.537C142.971,20,140.568,22.687,140.568,26z M142.568,26
		c0-2.209,1.791-4,4-4s4,1.791,4,4s-1.791,4-4,4S142.568,28.209,142.568,26z"/>
	<path fill-rule="evenodd" clip-rule="evenodd" fill="#FFFFFF" d="M179.911,21.074c-0.958-0.657-2.378-1.069-3.627-1.069
		c-1.544,0-3.284,0.6-4.284,1.557v-0.557c0-0.552-0.447-1-1-1s-1,0.448-1,1v10c0,0.553,0.447,1,1,1s1-0.447,1-1v-5
		c0-2.209,2.075-4,4.284-4c0.85,0,1.775,0.269,2.424,0.72l0.083-0.013c0.182,0.181,0.466,0.293,0.741,0.293
		c0.553,0,1.019-0.448,1.019-1C180.551,21.574,180.293,21.215,179.911,21.074z"/>
	<path fill-rule="evenodd" clip-rule="evenodd" fill="#FFFFFF" d="M161.568,20c-3.313,0-6,2.687-6,6s2.687,6,6,6
		c1.337,0,2.572-0.438,3.57-1.177c0.238-0.177,0.395-0.856-0.053-1.304s-1.098-0.322-1.328-0.171
		C163.13,29.76,162.377,30,161.568,30c-1.861,0-3.412-1.278-3.858-3h8.858c0.553,0,1-0.448,1-1
		C167.568,22.687,164.882,20,161.568,20z M161.568,22c1.861,0,3.412,1.278,3.858,3h-7.717C158.156,23.278,159.707,22,161.568,22z"/>
	<circle fill-rule="evenodd" clip-rule="evenodd" fill="#FFFFFF" cx="136.568" cy="18" r="1"/>
	<g>
		<g>
			<path fill="#FFFFFF" d="M45.984,19.164c0.546-2.88,1.197-7.895-0.641-8.956c-1.182-0.683-3.233,0.418-5.119,1.827
				c-1.941-1.223-4.105-1.927-6.566-1.935c-2.381,0.008-4.619,0.712-6.561,1.935c-1.885-1.408-3.932-2.51-5.113-1.827
				c-1.838,1.061-1.188,6.076-0.641,8.956c-0.698,1.807-1.087,3.796-1.087,5.886c0,0.968,0.085,1.912,0.239,2.829l7.988,10.958
				c1.538,0.739,3.174,1.157,5.174,1.163c1.969-0.006,3.643-0.424,5.181-1.163l7.99-10.958c0.154-0.917,0.241-1.86,0.241-2.829
				C47.07,22.959,46.682,20.97,45.984,19.164z M28.441,25.384c-1.224,0-2.216-0.992-2.216-2.216c0-0.266,0.055-0.517,0.141-0.753
				c1.403-0.072,3.011,0.078,4.289,0.779C30.641,24.405,29.657,25.384,28.441,25.384z M38.887,25.384
				c-1.215,0-2.199-0.979-2.213-2.19c1.277-0.701,2.885-0.851,4.289-0.779c0.086,0.236,0.141,0.487,0.141,0.753
				C41.104,24.392,40.111,25.384,38.887,25.384z"/>
		</g>
	</g>
</g>
<g>
	<path fill-rule="evenodd" clip-rule="evenodd" fill="#FF006A" d="M82,70.005c-0.553,0-1,0.448-1,1v5c0,2.209-1.791,4-4,4
		s-4-1.791-4-4v-5c0-0.552-0.447-1-1-1s-1,0.448-1,1v5c0,3.313,2.687,6,6,6c1.544,0,3-0.6,4-1.557v0.557c0,0.553,0.447,1,1,1
		s1-0.447,1-1v-10C83,70.453,82.553,70.005,82,70.005z"/>
	<path fill-rule="evenodd" clip-rule="evenodd" fill="#FF006A" d="M112.036,70.144c-0.504-0.276-1.148-0.112-1.439,0.366
		l-4.258,7.007l-3.91-7.013c-0.277-0.494-0.889-0.664-1.367-0.379c-0.479,0.286-0.642,0.92-0.365,1.414l4.438,7.96l-2.433,4.001
		c-0.291,0.479-0.117,1.09,0.387,1.366c0.503,0.275,1.146,0.112,1.438-0.366l7.895-12.99
		C112.712,71.031,112.54,70.42,112.036,70.144z"/>
	<path fill-rule="evenodd" clip-rule="evenodd" fill="#FF006A" d="M67.904,71.074c-0.957-0.656-2.374-1.069-3.623-1.069
		c-1.544,0-3.281,0.6-4.281,1.558v-0.558c0-0.552-0.447-1-1-1s-1,0.448-1,1v10c0,0.553,0.447,1,1,1s1-0.447,1-1v-5
		c0-2.209,2.072-4,4.281-4c0.85,0,1.773,0.269,2.42,0.72l0.084-0.013c0.182,0.181,0.465,0.293,0.742,0.293
		c0.552,0,1.017-0.448,1.017-1C68.544,71.574,68.287,71.215,67.904,71.074z"/>
	<path fill-rule="evenodd" clip-rule="evenodd" fill="#FF006A" d="M116.562,74c0-0.859,0.469-2.266,2.617-2.266
		c1.254,0,1.839,0.292,2.769,1.023c0.953,0.75,1.795-0.361,1.247-1.016c-0.711-0.852-1.914-1.736-4.118-1.736
		c-2.809,0-4.205,2.232-4.187,3.994c0.047,4.359,6.813,1.609,7.203,3.859c0.208,1.199-0.902,2.652-3.017,2.652
		c-1.353,0-2.475-0.689-3.122-1.399c-0.77-0.843-1.716,0.12-1.283,0.755c1.029,1.504,2.934,2.145,4.405,2.145
		c3.042,0,4.767-1.855,4.767-4.012C123.843,73.672,116.562,76.109,116.562,74z"/>
	<path fill-rule="evenodd" clip-rule="evenodd" fill="#FF006A" d="M129,66.005c0-0.552-0.447-1-1-1s-1,0.448-1,1v12
		c0,2.209,2.072,4,4.281,4c0.553,0,1.141-0.447,1.141-1s-0.658-1-1.211-1c-1.104,0-2.211-0.896-2.211-2V66.005z"/>
	<path fill-rule="evenodd" clip-rule="evenodd" fill="#FF006A" d="M137,81c0,0.553-0.447,1-1,1l0,0c-0.553,0-1-0.447-1-1V71
		c0-0.553,0.447-1,1-1l0,0c0.553,0,1,0.447,1,1V81z"/>
	<path fill-rule="evenodd" clip-rule="evenodd" fill="#FF006A" d="M92.281,70C90.742,70,89,70.584,88,71.537V66c0-0.553-0.447-1-1-1
		s-1,0.447-1,1v10c0,3.313,2.968,6,6.281,6s6-2.687,6-6S95.595,70,92.281,70z M92.562,80c-2.209,0-4-1.791-4-4s1.791-4,4-4
		s4,1.791,4,4S94.771,80,92.562,80z"/>
	<path fill-rule="evenodd" clip-rule="evenodd" fill="#FF006A" d="M140.562,76c0,3.313,2.405,6,5.72,6c3.313,0,5.719-2.687,5.719-6
		V66c0-0.553-0.447-1-1-1s-1,0.447-1,1v5.537c-1-0.953-2.18-1.537-3.719-1.537C142.967,70,140.562,72.687,140.562,76z M142.562,76
		c0-2.209,1.791-4,4-4s4,1.791,4,4s-1.791,4-4,4S142.562,78.209,142.562,76z"/>
	<path fill-rule="evenodd" clip-rule="evenodd" fill="#FF006A" d="M179.904,71.074c-0.958-0.656-2.375-1.069-3.623-1.069
		c-1.545,0-3.281,0.6-4.281,1.558v-0.558c0-0.552-0.447-1-1-1s-1,0.448-1,1v10c0,0.553,0.447,1,1,1s1-0.447,1-1v-5
		c0-2.209,2.072-4,4.281-4c0.85,0,1.773,0.269,2.422,0.72l0.082-0.013c0.182,0.181,0.465,0.293,0.74,0.293
		c0.553,0,1.019-0.448,1.019-1C180.544,71.574,180.286,71.215,179.904,71.074z"/>
	<path fill-rule="evenodd" clip-rule="evenodd" fill="#FF006A" d="M161.562,70c-3.313,0-6,2.687-6,6s2.687,6,6,6
		c1.337,0,2.572-0.438,3.57-1.178c0.238-0.176,0.395-0.855-0.053-1.304s-1.098-0.322-1.328-0.171
		C163.123,79.76,162.37,80,161.562,80c-1.861,0-3.412-1.277-3.858-3h8.858c0.553,0,1-0.447,1-1
		C167.562,72.687,164.875,70,161.562,70z M161.562,72c1.861,0,3.412,1.277,3.858,3h-7.717C158.149,73.277,159.7,72,161.562,72z"/>
	<circle fill-rule="evenodd" clip-rule="evenodd" fill="#FF006A" cx="136.562" cy="68" r="1"/>
	<g>
		<g>
			<path fill="#FF006A" d="M45.984,69.164c0.546-2.881,1.197-7.895-0.641-8.956c-1.182-0.683-3.233,0.419-5.119,1.827
				c-1.941-1.223-4.105-1.927-6.566-1.935c-2.381,0.008-4.619,0.712-6.561,1.935c-1.885-1.408-3.932-2.51-5.113-1.827
				c-1.838,1.062-1.188,6.075-0.641,8.956c-0.698,1.807-1.087,3.795-1.087,5.886c0,0.968,0.085,1.911,0.239,2.829l7.988,10.958
				c1.538,0.739,3.174,1.157,5.174,1.163c1.969-0.006,3.643-0.424,5.181-1.163l7.99-10.958c0.154-0.918,0.241-1.861,0.241-2.829
				C47.07,72.959,46.682,70.971,45.984,69.164z M28.441,75.384c-1.224,0-2.216-0.992-2.216-2.216c0-0.266,0.055-0.518,0.141-0.754
				c1.403-0.071,3.011,0.078,4.289,0.779C30.641,74.404,29.657,75.384,28.441,75.384z M38.887,75.384
				c-1.215,0-2.199-0.979-2.213-2.19c1.277-0.701,2.885-0.851,4.289-0.779c0.086,0.236,0.141,0.488,0.141,0.754
				C41.104,74.392,40.111,75.384,38.887,75.384z"/>
		</g>
	</g>
</g>
</svg>
