<?xml version="1.0" encoding="utf-8"?>
<!-- Generator: Adobe Illustrator 16.0.0, SVG Export Plug-In . SVG Version: 6.00 Build 0)  -->
<!DOCTYPE svg PUBLIC "-//W3C//DTD SVG 1.1//EN" "http://www.w3.org/Graphics/SVG/1.1/DTD/svg11.dtd">
<svg version="1.1" id="Layer_1" xmlns="http://www.w3.org/2000/svg" xmlns:xlink="http://www.w3.org/1999/xlink" x="0px" y="0px"
	 width="200px" height="100px" viewBox="0 0 200 100" enable-background="new 0 0 200 100" xml:space="preserve">
<rect display="none" fill="#D60000" width="200" height="50"/>
<rect y="50" display="none" fill="#00C2EF" width="200" height="50"/>
<g display="none">
	<g display="inline">
		<g>
			<path fill-rule="evenodd" clip-rule="evenodd" fill="#FFFFFF" d="M79.5,19.002c-1.75,0-3.332,0.7-4.5,1.824v-4.824
				c0-0.552-0.448-1-1-1s-1,0.448-1,1v10h0.05c0.26,3.352,3.031,6,6.45,6c3.59,0,6.5-2.91,6.5-6.5S83.09,19.002,79.5,19.002z
				 M79.5,30.002c-2.485,0-4.5-2.015-4.5-4.5s2.015-4.5,4.5-4.5s4.5,2.015,4.5,4.5S81.985,30.002,79.5,30.002z M119.5,19.002
				c-3.59,0-6.5,2.91-6.5,6.5s2.91,6.5,6.5,6.5c1.75,0,3.331-0.699,4.5-1.824v0.824c0,0.553,0.447,1,1,1s1-0.447,1-1
				c0,0,0-4.246,0-5.5C126,21.913,123.09,19.002,119.5,19.002z M119.5,30.002c-2.485,0-4.5-2.015-4.5-4.5s2.015-4.5,4.5-4.5
				s4.5,2.015,4.5,4.5S121.985,30.002,119.5,30.002z M110,21.002c0.553,0,1-0.448,1-1s-0.447-1-1-1h-2v-3c0-0.552-0.447-1-1-1
				s-1,0.448-1,1v3h-2c-0.553,0-1,0.448-1,1s0.447,1,1,1h2v7c0,2.209,1.791,4,4,4c0.553,0,1-0.447,1-1s-0.447-1-1-1
				c-1.104,0-2-0.896-2-2v-7H110z M69,20.002c-0.552,0-1,0.448-1,1v5c0,2.209-1.791,4-4,4s-4-1.791-4-4v-5c0-0.552-0.448-1-1-1
				s-1,0.448-1,1v5c0,3.313,2.687,6,6,6c1.544,0,2.937-0.6,4-1.557v0.557c0,0.553,0.448,1,1,1s1-0.447,1-1v-10
				C70,20.45,69.552,20.002,69,20.002z M100.474,20.141c-0.503-0.276-1.147-0.112-1.438,0.366l-4.258,7.007l-3.911-7.012
				c-0.276-0.495-0.888-0.665-1.366-0.379c-0.479,0.286-0.642,0.919-0.366,1.414l4.439,7.959l-2.432,4.001
				c-0.291,0.479-0.118,1.09,0.385,1.366c0.503,0.275,1.147,0.112,1.438-0.366l7.895-12.99
				C101.149,21.029,100.978,20.417,100.474,20.141z M54.342,21.072c-0.958-0.657-2.093-1.069-3.342-1.069
				c-1.544,0-2.937,0.6-4,1.557v-0.557c0-0.552-0.448-1-1-1s-1,0.448-1,1v5v5c0,0.553,0.448,1,1,1s1-0.447,1-1v-5
				c0-2.209,1.791-4,4-4c0.849,0,1.633,0.269,2.28,0.72l0.013-0.013c0.181,0.181,0.431,0.293,0.707,0.293c0.552,0,1-0.448,1-1
				C55,21.572,54.725,21.212,54.342,21.072z M135.5,19.002c-1.75,0-3.331,0.7-4.5,1.824v-4.824c0-0.552-0.447-1-1-1s-1,0.448-1,1v10
				h0.051c0.259,3.352,3.03,6,6.449,6c3.59,0,6.5-2.91,6.5-6.5S139.09,19.002,135.5,19.002z M135.5,30.002
				c-2.485,0-4.5-2.015-4.5-4.5s2.015-4.5,4.5-4.5s4.5,2.015,4.5,4.5S137.985,30.002,135.5,30.002z M146.97,22.763
				c0.101-0.895,0.794-2.145,2.917-2.145c1.359,0,2.816,0.717,3.347,1.431c0.729,0.98,1.866-0.346,1.331-0.955
				c-0.866-0.985-2.376-2.076-4.678-2.102c-3.042-0.034-4.596,2.092-4.604,4c-0.021,4.283,7.045,1.721,7.831,4.554
				c0.319,1.151-0.936,2.826-3.227,2.826c-1.466,0-2.681-0.746-3.382-1.516c-0.833-0.912-1.859,0.131-1.39,0.818
				c1.114,1.629,3.178,2.322,4.771,2.322c3.297,0,5.235-2.309,5.107-4.641C154.732,22.607,146.699,25.167,146.97,22.763z"/>
		</g>
	</g>
	<g display="inline">
		<g>
			<path fill-rule="evenodd" clip-rule="evenodd" fill="#FF006A" d="M79.5,69.003c-1.75,0-3.332,0.699-4.5,1.824v-4.824
				c0-0.553-0.448-1-1-1s-1,0.447-1,1v9.999h0.05c0.26,3.352,3.031,6,6.45,6c3.59,0,6.5-2.91,6.5-6.5
				C86,71.913,83.09,69.003,79.5,69.003z M79.5,80.002c-2.485,0-4.5-2.014-4.5-4.5c0-2.484,2.015-4.499,4.5-4.499
				s4.5,2.015,4.5,4.499C84,77.988,81.985,80.002,79.5,80.002z M119.5,69.003c-3.59,0-6.5,2.91-6.5,6.499c0,3.59,2.91,6.5,6.5,6.5
				c1.75,0,3.331-0.699,4.5-1.824v0.824c0,0.553,0.447,1,1,1s1-0.447,1-1c0,0,0-4.247,0-5.5C126,71.913,123.09,69.003,119.5,69.003z
				 M119.5,80.002c-2.485,0-4.5-2.014-4.5-4.5c0-2.484,2.015-4.499,4.5-4.499s4.5,2.015,4.5,4.499
				C124,77.988,121.985,80.002,119.5,80.002z M110,71.003c0.553,0,1-0.448,1-1c0-0.553-0.447-1-1-1h-2v-3c0-0.553-0.447-1-1-1
				s-1,0.447-1,1v3h-2c-0.553,0-1,0.447-1,1c0,0.552,0.447,1,1,1h2v6.999c0,2.209,1.791,4,4,4c0.553,0,1-0.447,1-1s-0.447-1-1-1
				c-1.104,0-2-0.895-2-2v-6.999H110z M69,70.003c-0.552,0-1,0.447-1,1v4.999c0,2.209-1.791,4-4,4s-4-1.791-4-4v-4.999
				c0-0.553-0.448-1-1-1s-1,0.447-1,1v4.999c0,3.314,2.687,6,6,6c1.544,0,2.937-0.6,4-1.557v0.557c0,0.553,0.448,1,1,1s1-0.447,1-1
				v-9.999C70,70.45,69.552,70.003,69,70.003z M100.474,70.142c-0.503-0.276-1.147-0.112-1.438,0.366l-4.258,7.006l-3.911-7.012
				c-0.276-0.495-0.888-0.665-1.366-0.379s-0.642,0.919-0.366,1.414l4.439,7.959l-2.432,4.002c-0.291,0.479-0.118,1.09,0.385,1.365
				s1.147,0.113,1.438-0.365l7.895-12.99C101.149,71.029,100.978,70.418,100.474,70.142z M54.342,71.072
				c-0.958-0.657-2.093-1.069-3.342-1.069c-1.544,0-2.937,0.6-4,1.557v-0.557c0-0.553-0.448-1-1-1s-1,0.447-1,1v4.999v5
				c0,0.553,0.448,1,1,1s1-0.447,1-1v-5c0-2.208,1.791-3.999,4-3.999c0.849,0,1.633,0.269,2.28,0.72l0.013-0.013
				c0.181,0.181,0.431,0.293,0.707,0.293c0.552,0,1-0.448,1-1C55,71.572,54.725,71.213,54.342,71.072z M135.5,69.003
				c-1.75,0-3.331,0.699-4.5,1.824v-4.824c0-0.553-0.447-1-1-1s-1,0.447-1,1v9.999h0.051c0.259,3.352,3.03,6,6.449,6
				c3.59,0,6.5-2.91,6.5-6.5C142,71.913,139.09,69.003,135.5,69.003z M135.5,80.002c-2.485,0-4.5-2.014-4.5-4.5
				c0-2.484,2.015-4.499,4.5-4.499s4.5,2.015,4.5,4.499C140,77.988,137.985,80.002,135.5,80.002z M146.97,72.763
				c0.101-0.895,0.794-2.145,2.917-2.145c1.359,0,2.816,0.718,3.347,1.431c0.729,0.98,1.866-0.346,1.331-0.954
				c-0.866-0.985-2.376-2.076-4.678-2.102c-3.042-0.034-4.596,2.092-4.604,4c-0.021,4.282,7.045,1.722,7.831,4.554
				c0.319,1.152-0.936,2.826-3.227,2.826c-1.466,0-2.681-0.746-3.382-1.516c-0.833-0.912-1.859,0.131-1.39,0.818
				c1.114,1.629,3.178,2.322,4.771,2.322c3.297,0,5.235-2.309,5.107-4.641C154.732,72.607,146.699,75.167,146.97,72.763z"/>
		</g>
	</g>
</g>
<g>
	<g>
		<path fill-rule="evenodd" clip-rule="evenodd" fill="#444444" d="M83,20.005c-0.552,0-1,0.448-1,1v5c0,2.209-1.791,4-4,4
			s-4-1.791-4-4v-5c0-0.552-0.448-1-1-1s-1,0.448-1,1v5c0,3.313,2.687,6,6,6c1.544,0,3-0.6,4-1.557v0.557c0,0.553,0.448,1,1,1
			s1-0.447,1-1v-10C84,20.453,83.552,20.005,83,20.005z"/>
		<path fill-rule="evenodd" clip-rule="evenodd" fill="#444444" d="M112.543,20.144c-0.504-0.276-1.148-0.112-1.439,0.366
			l-4.258,7.007l-3.91-7.012c-0.277-0.495-0.889-0.665-1.367-0.379c-0.479,0.286-0.642,0.919-0.365,1.414l4.438,7.959l-2.433,4.001
			c-0.291,0.479-0.117,1.09,0.387,1.366c0.503,0.275,1.146,0.112,1.438-0.366l7.895-12.99
			C113.219,21.031,113.047,20.42,112.543,20.144z"/>
		<path fill-rule="evenodd" clip-rule="evenodd" fill="#444444" d="M68.411,21.074c-0.958-0.657-2.128-1.069-3.377-1.069
			c-1.544,0-3.034,0.6-4.034,1.557v-0.557c0-0.552-0.448-1-1-1s-1,0.448-1,1v10c0,0.553,0.448,1,1,1s1-0.447,1-1v-5
			c0-2.209,1.825-4,4.034-4c0.85,0,1.65,0.269,2.298,0.72l0.021-0.013c0.181,0.181,0.435,0.293,0.711,0.293
			c0.552,0,1.002-0.448,1.002-1C69.066,21.574,68.793,21.215,68.411,21.074z"/>
		<path fill-rule="evenodd" clip-rule="evenodd" fill="#444444" d="M117.068,24c0-0.859,0.469-2.266,2.617-2.266
			c1.254,0,1.839,0.292,2.769,1.024c0.953,0.75,1.795-0.361,1.247-1.017c-0.711-0.851-1.914-1.736-4.118-1.736
			c-2.809,0-4.205,2.233-4.187,3.995c0.047,4.359,6.813,1.609,7.203,3.859c0.208,1.2-0.902,2.652-3.017,2.652
			c-1.353,0-2.475-0.689-3.122-1.399c-0.77-0.842-1.716,0.121-1.283,0.755c1.029,1.503,2.934,2.144,4.405,2.144
			c3.042,0,4.767-1.855,4.767-4.011C124.35,23.672,117.068,26.109,117.068,24z"/>
		<path fill-rule="evenodd" clip-rule="evenodd" fill="#444444" d="M130,16.005c0-0.552-0.447-1-1-1s-1,0.448-1,1v12
			c0,2.209,1.825,4,4.034,4c0.553,0,1.018-0.447,1.018-1s-0.474-1-1.026-1c-1.104,0-2.025-0.896-2.025-2V16.005z"/>
		<path fill-rule="evenodd" clip-rule="evenodd" fill="#444444" d="M138,31c0,0.552-0.447,1-1,1l0,0c-0.553,0-1-0.448-1-1V21
			c0-0.552,0.447-1,1-1l0,0c0.553,0,1,0.448,1,1V31z"/>
		<path fill-rule="evenodd" clip-rule="evenodd" fill="#444444" d="M93.034,20C91.495,20,90,20.584,89,21.537V16
			c0-0.552-0.447-1-1-1s-1,0.448-1,1v10c0,3.313,2.721,6,6.034,6s6-2.687,6-6S96.348,20,93.034,20z M93.068,30c-2.209,0-4-1.791-4-4
			s1.791-4,4-4s4,1.791,4,4S95.277,30,93.068,30z"/>
		<path fill-rule="evenodd" clip-rule="evenodd" fill="#444444" d="M141.068,26c0,3.313,2.652,6,5.966,6S153,29.313,153,26V16
			c0-0.552-0.447-1-1-1s-1,0.448-1,1v5.537c-1-0.953-2.427-1.537-3.966-1.537C143.721,20,141.068,22.687,141.068,26z M143.068,26
			c0-2.209,1.791-4,4-4s4,1.791,4,4s-1.791,4-4,4S143.068,28.209,143.068,26z"/>
		<path fill-rule="evenodd" clip-rule="evenodd" fill="#444444" d="M180.411,21.074c-0.958-0.657-2.128-1.069-3.377-1.069
			c-1.544,0-3.034,0.6-4.034,1.557v-0.557c0-0.552-0.447-1-1-1s-1,0.448-1,1v10c0,0.553,0.447,1,1,1s1-0.447,1-1v-5
			c0-2.209,1.825-4,4.034-4c0.85,0,1.65,0.269,2.299,0.72l0.021-0.013c0.182,0.181,0.435,0.293,0.71,0.293
			c0.553,0,1.003-0.448,1.003-1C181.066,21.574,180.793,21.215,180.411,21.074z"/>
		<path fill-rule="evenodd" clip-rule="evenodd" fill="#444444" d="M162.068,20c-3.313,0-6,2.687-6,6s2.687,6,6,6
			c1.337,0,2.572-0.438,3.57-1.177c0.238-0.177,0.395-0.856-0.053-1.304s-1.098-0.322-1.328-0.171
			C163.63,29.76,162.877,30,162.068,30c-1.861,0-3.412-1.278-3.858-3h8.858c0.553,0,1-0.448,1-1
			C168.068,22.687,165.382,20,162.068,20z M162.068,22c1.861,0,3.412,1.278,3.858,3h-7.717C158.656,23.278,160.207,22,162.068,22z"
			/>
		<circle fill-rule="evenodd" clip-rule="evenodd" fill="#444444" cx="137.068" cy="18" r="1"/>
		<g>
			<g>
				<path fill="#444444" d="M46.484,19.164c0.546-2.88,1.197-7.895-0.64-8.956c-1.183-0.683-3.234,0.418-5.12,1.827
					c-1.941-1.223-4.105-1.927-6.566-1.935c-2.381,0.008-4.62,0.712-6.561,1.935c-1.886-1.408-3.932-2.51-5.114-1.827
					c-1.837,1.061-1.187,6.076-0.64,8.956c-0.699,1.807-1.087,3.796-1.087,5.886c0,0.968,0.085,1.912,0.24,2.829l7.987,10.958
					c1.539,0.739,3.174,1.157,5.175,1.163c1.969-0.006,3.642-0.424,5.18-1.163l7.99-10.958c0.154-0.917,0.241-1.86,0.241-2.829
					C47.57,22.959,47.182,20.97,46.484,19.164z M28.942,25.384c-1.224,0-2.216-0.992-2.216-2.216c0-0.266,0.055-0.517,0.141-0.753
					c1.404-0.072,3.011,0.078,4.289,0.779C31.141,24.405,30.157,25.384,28.942,25.384z M39.387,25.384
					c-1.215,0-2.199-0.979-2.213-2.19c1.278-0.701,2.885-0.851,4.289-0.779c0.086,0.236,0.141,0.487,0.141,0.753
					C41.603,24.392,40.611,25.384,39.387,25.384z"/>
			</g>
		</g>
	</g>
	<g>
		<path fill-rule="evenodd" clip-rule="evenodd" fill="#CC0055" d="M83,70.005c-0.552,0-1,0.448-1,1v5c0,2.209-1.791,4-4,4
			s-4-1.791-4-4v-5c0-0.552-0.448-1-1-1s-1,0.448-1,1v5c0,3.313,2.687,6,6,6c1.544,0,3-0.6,4-1.557v0.557c0,0.553,0.448,1,1,1
			s1-0.447,1-1v-10C84,70.453,83.552,70.005,83,70.005z"/>
		<path fill-rule="evenodd" clip-rule="evenodd" fill="#CC0055" d="M112.536,70.144c-0.504-0.276-1.148-0.112-1.439,0.366
			l-4.258,7.007l-3.91-7.013c-0.277-0.494-0.889-0.664-1.367-0.379c-0.479,0.286-0.642,0.92-0.365,1.414l4.438,7.96l-2.433,4.001
			c-0.291,0.479-0.117,1.09,0.387,1.366c0.503,0.275,1.146,0.112,1.438-0.366l7.895-12.99
			C113.212,71.031,113.04,70.42,112.536,70.144z"/>
		<path fill-rule="evenodd" clip-rule="evenodd" fill="#CC0055" d="M68.404,71.074c-0.958-0.656-2.124-1.069-3.373-1.069
			c-1.544,0-3.031,0.6-4.031,1.558v-0.558c0-0.552-0.448-1-1-1s-1,0.448-1,1v10c0,0.553,0.448,1,1,1s1-0.447,1-1v-5
			c0-2.209,1.822-4,4.031-4c0.85,0,1.648,0.269,2.295,0.72l0.021-0.013c0.181,0.181,0.434,0.293,0.71,0.293
			c0.552,0,1.001-0.448,1.001-1C69.06,71.574,68.787,71.215,68.404,71.074z"/>
		<path fill-rule="evenodd" clip-rule="evenodd" fill="#CC0055" d="M117.062,74c0-0.859,0.469-2.266,2.617-2.266
			c1.254,0,1.839,0.292,2.769,1.023c0.953,0.75,1.795-0.361,1.247-1.016c-0.711-0.852-1.914-1.736-4.118-1.736
			c-2.809,0-4.205,2.232-4.187,3.994c0.047,4.359,6.813,1.609,7.203,3.859c0.208,1.199-0.902,2.652-3.017,2.652
			c-1.353,0-2.475-0.689-3.122-1.399c-0.77-0.843-1.716,0.12-1.283,0.755c1.029,1.504,2.934,2.145,4.405,2.145
			c3.042,0,4.767-1.855,4.767-4.012C124.343,73.672,117.062,76.109,117.062,74z"/>
		<path fill-rule="evenodd" clip-rule="evenodd" fill="#CC0055" d="M130,66.005c0-0.552-0.447-1-1-1s-1,0.448-1,1v12
			c0,2.209,1.822,4,4.031,4c0.553,0,1.016-0.447,1.016-1s-0.471-1-1.023-1c-1.104,0-2.023-0.896-2.023-2V66.005z"/>
		<path fill-rule="evenodd" clip-rule="evenodd" fill="#CC0055" d="M138,81c0,0.553-0.447,1-1,1l0,0c-0.553,0-1-0.447-1-1V71
			c0-0.553,0.447-1,1-1l0,0c0.553,0,1,0.447,1,1V81z"/>
		<path fill-rule="evenodd" clip-rule="evenodd" fill="#CC0055" d="M93.031,70C91.492,70,90,70.584,89,71.537V66
			c0-0.553-0.447-1-1-1s-1,0.447-1,1v10c0,3.313,2.718,6,6.031,6s6-2.687,6-6S96.345,70,93.031,70z M93.062,80c-2.209,0-4-1.791-4-4
			s1.791-4,4-4s4,1.791,4,4S95.271,80,93.062,80z"/>
		<path fill-rule="evenodd" clip-rule="evenodd" fill="#CC0055" d="M141.062,76c0,3.313,2.655,6,5.97,6c3.313,0,5.969-2.687,5.969-6
			V66c0-0.553-0.447-1-1-1s-1,0.447-1,1v5.537c-1-0.953-2.43-1.537-3.969-1.537C143.717,70,141.062,72.687,141.062,76z M143.062,76
			c0-2.209,1.791-4,4-4s4,1.791,4,4s-1.791,4-4,4S143.062,78.209,143.062,76z"/>
		<path fill-rule="evenodd" clip-rule="evenodd" fill="#CC0055" d="M180.404,71.074c-0.958-0.656-2.125-1.069-3.373-1.069
			c-1.545,0-3.031,0.6-4.031,1.558v-0.558c0-0.552-0.447-1-1-1s-1,0.448-1,1v10c0,0.553,0.447,1,1,1s1-0.447,1-1v-5
			c0-2.209,1.822-4,4.031-4c0.85,0,1.648,0.269,2.297,0.72l0.02-0.013c0.182,0.181,0.434,0.293,0.709,0.293
			c0.553,0,1.003-0.448,1.003-1C181.06,71.574,180.786,71.215,180.404,71.074z"/>
		<path fill-rule="evenodd" clip-rule="evenodd" fill="#CC0055" d="M162.062,70c-3.313,0-6,2.687-6,6s2.687,6,6,6
			c1.337,0,2.572-0.438,3.57-1.178c0.238-0.176,0.395-0.855-0.053-1.304s-1.098-0.322-1.328-0.171
			C163.623,79.76,162.87,80,162.062,80c-1.861,0-3.412-1.277-3.858-3h8.858c0.553,0,1-0.447,1-1
			C168.062,72.687,165.375,70,162.062,70z M162.062,72c1.861,0,3.412,1.277,3.858,3h-7.717C158.649,73.277,160.2,72,162.062,72z"/>
		<circle fill-rule="evenodd" clip-rule="evenodd" fill="#CC0055" cx="137.062" cy="68" r="1"/>
		<g>
			<g>
				<path fill="#CC0055" d="M46.484,69.164c0.546-2.881,1.197-7.895-0.64-8.956c-1.183-0.683-3.234,0.419-5.12,1.827
					c-1.941-1.223-4.105-1.927-6.566-1.935c-2.381,0.008-4.62,0.712-6.561,1.935c-1.886-1.408-3.932-2.51-5.114-1.827
					c-1.837,1.062-1.187,6.075-0.64,8.956c-0.699,1.807-1.087,3.795-1.087,5.886c0,0.968,0.085,1.911,0.24,2.829l7.987,10.958
					c1.539,0.739,3.174,1.157,5.175,1.163c1.969-0.006,3.642-0.424,5.18-1.163l7.99-10.958c0.154-0.918,0.241-1.861,0.241-2.829
					C47.57,72.959,47.182,70.971,46.484,69.164z M28.942,75.384c-1.224,0-2.216-0.992-2.216-2.216c0-0.266,0.055-0.518,0.141-0.754
					c1.404-0.071,3.011,0.078,4.289,0.779C31.141,74.404,30.157,75.384,28.942,75.384z M39.387,75.384
					c-1.215,0-2.199-0.979-2.213-2.19c1.278-0.701,2.885-0.851,4.289-0.779c0.086,0.236,0.141,0.488,0.141,0.754
					C41.603,74.392,40.611,75.384,39.387,75.384z"/>
			</g>
		</g>
	</g>
</g>
</svg>
