<svg xmlns="http://www.w3.org/2000/svg" viewBox="0 0 82 82" width="82" height="82"><defs><style>.cls-1{fill:#c05;}.cls-2{fill:#999;}</style></defs><g id="TIMER_BG" data-name="TIMER BG"><path class="cls-1" d="M41.5,1h.15A40,40,0,0,1,81,40.37a.49.49,0,0,1,0,.12v.1l0,.3a3.48,3.48,0,0,1-6.92,0l0-.27A33,33,0,0,0,41.52,8l-.41,0a3.48,3.48,0,0,1,0-6.92l.31,0h.08M41,0V.05A4.48,4.48,0,0,0,41,9V9A32,32,0,0,1,73,41h0A4.48,4.48,0,0,0,82,41h0c0-.13,0-.26,0-.4s0-.06,0-.1a1,1,0,0,0,0-.17A41,41,0,0,0,41.66,0L41.5,0H41Z"/></g><path class="cls-2" d="M45,57h7a2,2,0,0,0,2-2V29a2,2,0,0,0-2-2H45a2,2,0,0,0-2,2V55A2,2,0,0,0,45,57ZM44,29a1,1,0,0,1,1-1h7a1,1,0,0,1,1,1V55a1,1,0,0,1-1,1H45a1,1,0,0,1-1-1Z"/><path class="cls-2" d="M27,29V55a2,2,0,0,0,2,2h7a2,2,0,0,0,2-2V29a2,2,0,0,0-2-2H29A2,2,0,0,0,27,29Zm10,0V55a1,1,0,0,1-1,1H29a1,1,0,0,1-1-1V29a1,1,0,0,1,1-1h7A1,1,0,0,1,37,29Z"/><path class="cls-2" d="M8,41a33,33,0,0,0,64.67,9.23l-1,0A32,32,0,1,1,32.17,10.24l-.29-1A33,33,0,0,0,8,41Z"/><path class="cls-2" d="M79.82,50.59a40,40,0,1,1-49.94-48l-.29-1a41,41,0,1,0,51.25,49Z"/></svg>