<svg width="490" height="404" viewBox="0 0 490 404" fill="none" xmlns="http://www.w3.org/2000/svg">
  <g id="05600514eee62ec6b5d047372f89572b">
    <g id="303b590cd81b7968685a69120de77889">
      <rect id="e6a7da697c1a5cfc296fc4bc6f0639fd" width="490" height="404" fill="white"></rect>
      <g id="368a61d9843810b04e42b369338b234b">
        <path d="M44.7089 35.4H47.104V113.76C47.104 116.08 47.8225 117.92 49.2596 119.28C50.6966 120.64 52.6127 121.32 55.0078 121.32C55.8861 121.32 56.9239 121.24 58.1215 121.08C59.3989 120.84 60.5565 120.56 61.5944 120.24L62.4327 122.16C61.315 122.56 59.9178 122.88 58.2412 123.12C56.6445 123.44 55.2873 123.6 54.1696 123.6C51.3753 123.6 49.0999 122.72 47.3435 120.96C45.5871 119.12 44.7089 116.72 44.7089 113.76V35.4Z" fill="black"></path>
        <path d="M72.5258 123V60.72H74.921V123H72.5258ZM72.5258 44.64V35.4H74.921V44.64H72.5258Z" fill="black"></path>
        <path d="M113.18 124.2C103.52 124.2 95.6159 120.84 89.4685 114.12L91.2648 112.56C94.4583 115.68 97.7715 118 101.204 119.52C104.717 121.04 108.709 121.8 113.18 121.8C119.328 121.8 124.317 120.48 128.15 117.84C131.982 115.2 133.898 111.48 133.898 106.68C133.898 104.44 133.419 102.6 132.461 101.16C131.503 99.64 130.106 98.36 128.269 97.32C126.433 96.2 124.158 95.28 121.443 94.56C118.729 93.76 115.655 92.96 112.222 92.16C108.869 91.36 105.955 90.64 103.48 90C101.005 89.28 98.9291 88.4 97.2526 87.36C95.6558 86.32 94.4184 85.04 93.5401 83.52C92.7418 81.92 92.3426 79.88 92.3426 77.4C92.3426 74.28 92.9414 71.64 94.1389 69.48C95.3365 67.24 96.9332 65.4 98.9291 63.96C100.925 62.52 103.24 61.48 105.875 60.84C108.51 60.12 111.304 59.76 114.258 59.76C119.288 59.76 123.559 60.64 127.072 62.4C130.664 64.08 133.139 66.2 134.497 68.76L132.341 69.72C130.824 67.24 128.349 65.36 124.916 64.08C121.483 62.8 117.771 62.16 113.779 62.16C111.224 62.16 108.789 62.44 106.474 63C104.158 63.56 102.123 64.44 100.366 65.64C98.6098 66.84 97.2126 68.4 96.1748 70.32C95.2167 72.16 94.7377 74.4 94.7377 77.04C94.7377 79.12 95.057 80.84 95.6957 82.2C96.4143 83.48 97.4921 84.56 98.9291 85.44C100.366 86.32 102.202 87.08 104.438 87.72C106.673 88.36 109.308 89.04 112.342 89.76C116.014 90.64 119.328 91.48 122.281 92.28C125.315 93.08 127.83 94.08 129.826 95.28C131.902 96.48 133.499 97.96 134.616 99.72C135.734 101.4 136.293 103.6 136.293 106.32C136.293 109.04 135.734 111.52 134.616 113.76C133.499 115.92 131.942 117.8 129.946 119.4C127.95 120.92 125.515 122.12 122.641 123C119.767 123.8 116.613 124.2 113.18 124.2Z" fill="black"></path>
        <path d="M175.657 120.12C175.657 120.12 175.338 120.32 174.699 120.72C174.14 121.12 173.342 121.52 172.304 121.92C171.346 122.32 170.188 122.68 168.831 123C167.474 123.4 165.957 123.6 164.28 123.6C161.406 123.6 158.891 122.72 156.736 120.96C154.58 119.2 153.502 116.88 153.502 114V63.12H144.52V60.72H153.502V39H155.897V60.72H170.867V63.12H155.897V114C156.057 116.32 156.975 118.12 158.652 119.4C160.328 120.6 162.204 121.2 164.28 121.2C165.637 121.2 166.915 121.08 168.112 120.84C169.31 120.52 170.348 120.2 171.226 119.88C172.184 119.48 172.903 119.12 173.382 118.8C173.94 118.48 174.26 118.28 174.34 118.2L175.657 120.12Z" fill="black"></path>
      </g>
      <g id="4e09721874e5812e64a9b80e9f3113d6">
        <path d="M32.9728 226L64.708 140.8H83.6294L115.245 226H90.5752L85.4257 209.32H62.7919L57.7622 226H32.9728ZM74.1687 165.16L66.2648 193.72H81.7133L74.1687 165.16Z" fill="black"></path>
        <path d="M121.58 226V140.8H144.932V205.6H183.493V226H121.58Z" fill="black"></path>
        <path d="M191.983 226V140.8H215.335V205.6H253.897V226H191.983Z" fill="black"></path>
      </g>
      <g id="fcffff263fc1b02e56a42f26c2610b16">
        <path d="M79.1185 297.32V301H41.3556V244.2H78.4V247.88H45.4273V270.2H74.2485V273.72H45.4273V297.32H79.1185Z" fill="black"></path>
        <path d="M88.0846 244.2L107.964 270.04L127.764 244.2H132.394L110.12 273L131.755 301H127.125L107.964 275.96L88.7233 301H84.0129L105.649 273L83.3742 244.2H88.0846Z" fill="black"></path>
        <path d="M158.176 244.2H161.689L185.64 301H181.329L173.425 282.28H146.36L138.456 301H134.065L158.176 244.2ZM172.307 278.92L159.932 249.16L147.318 278.92H172.307Z" fill="black"></path>
        <path d="M245.582 301V251.88L223.228 290.2H220.673L198.318 251.88V301H194.247V244.2H198.318L221.95 284.84L245.582 244.2H249.654V301H245.582Z" fill="black"></path>
        <path d="M264.494 301V244.2H287.806C290.201 244.2 292.41 244.707 294.433 245.72C296.455 246.733 298.185 248.093 299.622 249.8C301.113 251.453 302.257 253.347 303.055 255.48C303.907 257.56 304.333 259.667 304.333 261.8C304.333 264.093 303.933 266.307 303.135 268.44C302.39 270.573 301.299 272.467 299.862 274.12C298.478 275.773 296.801 277.107 294.832 278.12C292.863 279.08 290.681 279.56 288.285 279.56H268.566V301H264.494ZM268.566 275.8H288.126C289.989 275.8 291.665 275.427 293.155 274.68C294.646 273.88 295.897 272.84 296.908 271.56C297.972 270.227 298.771 268.733 299.303 267.08C299.888 265.373 300.181 263.613 300.181 261.8C300.181 259.933 299.835 258.173 299.143 256.52C298.505 254.813 297.6 253.32 296.429 252.04C295.311 250.76 293.98 249.747 292.437 249C290.947 248.253 289.35 247.88 287.647 247.88H268.566V275.8Z" fill="black"></path>
        <path d="M314.08 301V244.2H318.152V297.32H352.003V301H314.08Z" fill="black"></path>
        <path d="M398.233 297.32V301H360.47V244.2H397.514V247.88H364.542V270.2H393.363V273.72H364.542V297.32H398.233Z" fill="black"></path>
        <path d="M441.158 253.64C437.485 249.533 432.296 247.48 425.59 247.48C420.054 247.48 416.009 248.547 413.454 250.68C410.953 252.76 409.702 255.587 409.702 259.16C409.702 260.973 410.021 262.493 410.66 263.72C411.299 264.893 412.283 265.907 413.614 266.76C414.998 267.613 416.728 268.333 418.803 268.92C420.879 269.507 423.381 270.12 426.308 270.76C429.342 271.4 432.083 272.12 434.531 272.92C437.033 273.667 439.135 274.627 440.838 275.8C442.595 276.973 443.925 278.413 444.83 280.12C445.788 281.827 446.267 283.933 446.267 286.44C446.267 288.947 445.762 291.133 444.75 293C443.792 294.867 442.409 296.44 440.599 297.72C438.843 298.947 436.714 299.88 434.212 300.52C431.764 301.16 429.023 301.48 425.989 301.48C417.153 301.48 409.675 298.653 403.555 293L405.71 289.72C408.105 292.227 411.033 294.227 414.492 295.72C417.952 297.16 421.837 297.88 426.148 297.88C431.098 297.88 434.957 296.973 437.725 295.16C440.546 293.347 441.956 290.6 441.956 286.92C441.956 285.053 441.584 283.48 440.838 282.2C440.093 280.867 438.976 279.72 437.485 278.76C436.048 277.8 434.212 276.973 431.977 276.28C429.741 275.587 427.133 274.92 424.152 274.28C421.119 273.64 418.431 272.973 416.089 272.28C413.8 271.533 411.858 270.627 410.261 269.56C408.717 268.44 407.546 267.107 406.748 265.56C405.95 264.013 405.55 262.067 405.55 259.72C405.55 257.16 406.029 254.893 406.988 252.92C407.999 250.947 409.383 249.293 411.139 247.96C412.895 246.573 414.998 245.533 417.446 244.84C419.895 244.147 422.609 243.8 425.59 243.8C429.262 243.8 432.535 244.36 435.41 245.48C438.284 246.547 440.892 248.2 443.234 250.44L441.158 253.64Z" fill="black"></path>
      </g>
      <g id="25614749eb07d841c8aa384e996356b6">
        <path d="M50.3573 374.1C49.3593 374.1 48.4479 373.9 47.6229 373.5C46.8112 373.087 46.1126 372.547 45.5272 371.88C44.9417 371.2 44.4893 370.427 44.1699 369.56C43.8506 368.693 43.6909 367.807 43.6909 366.9C43.6909 365.953 43.8572 365.047 44.1899 364.18C44.5359 363.313 45.0082 362.547 45.607 361.88C46.2058 361.213 46.911 360.687 47.7227 360.3C48.5477 359.9 49.4392 359.7 50.3972 359.7C51.3952 359.7 52.3 359.913 53.1117 360.34C53.9234 360.753 54.6219 361.3 55.2074 361.98C55.7929 362.66 56.2453 363.433 56.5646 364.3C56.884 365.153 57.0437 366.027 57.0437 366.92C57.0437 367.867 56.8707 368.773 56.5247 369.64C56.1921 370.507 55.7264 371.273 55.1276 371.94C54.5421 372.593 53.8369 373.12 53.0119 373.52C52.2002 373.907 51.3154 374.1 50.3573 374.1ZM45.5072 366.9C45.5072 367.62 45.6203 368.32 45.8465 369C46.086 369.667 46.4187 370.26 46.8445 370.78C47.2703 371.3 47.7826 371.713 48.3813 372.02C48.9801 372.327 49.6454 372.48 50.3773 372.48C51.1357 372.48 51.8143 372.32 52.4131 372C53.0119 371.667 53.5175 371.24 53.93 370.72C54.3558 370.187 54.6752 369.587 54.8881 368.92C55.1143 368.253 55.2274 367.58 55.2274 366.9C55.2274 366.18 55.1076 365.487 54.8681 364.82C54.6419 364.14 54.3092 363.547 53.8701 363.04C53.4443 362.52 52.9321 362.107 52.3333 361.8C51.7478 361.493 51.0958 361.34 50.3773 361.34C49.6188 361.34 48.9402 361.5 48.3414 361.82C47.7426 362.14 47.2304 362.56 46.8046 363.08C46.3921 363.6 46.0727 364.193 45.8465 364.86C45.6203 365.527 45.5072 366.207 45.5072 366.9Z" fill="black"></path>
        <path d="M60.7901 359.8L65.4805 371.74L70.151 359.8H72.0471L66.2589 374H64.7021L58.894 359.8H60.7901Z" fill="black"></path>
        <path d="M84.9745 372.4V374H75.3541V359.8H84.7948V361.4H77.1504V366H83.7969V367.5H77.1504V372.4H84.9745Z" fill="black"></path>
        <path d="M88.836 374V359.8H94.9036C95.529 359.8 96.1011 359.933 96.6201 360.2C97.1523 360.453 97.6047 360.8 97.9773 361.24C98.3632 361.667 98.6626 362.153 98.8755 362.7C99.0884 363.233 99.1948 363.78 99.1948 364.34C99.1948 364.833 99.1217 365.313 98.9753 365.78C98.8422 366.233 98.6426 366.647 98.3765 367.02C98.1237 367.393 97.811 367.713 97.4384 367.98C97.0792 368.247 96.6733 368.44 96.2209 368.56L99.6539 374H97.6181L94.3847 368.9H90.6323V374H88.836ZM90.6323 367.3H94.9236C95.2961 367.3 95.6288 367.22 95.9215 367.06C96.2276 366.9 96.487 366.687 96.6999 366.42C96.9128 366.14 97.0792 365.82 97.1989 365.46C97.3187 365.1 97.3785 364.727 97.3785 364.34C97.3785 363.94 97.3054 363.567 97.159 363.22C97.0259 362.86 96.8396 362.547 96.6001 362.28C96.3739 362 96.1011 361.787 95.7818 361.64C95.4758 361.48 95.1498 361.4 94.8038 361.4H90.6323V367.3Z" fill="black"></path>
        <path d="M113.708 367.72C114.36 367.72 114.966 367.833 115.525 368.06C116.097 368.273 116.589 368.58 117.002 368.98C117.414 369.38 117.74 369.86 117.98 370.42C118.219 370.98 118.339 371.593 118.339 372.26C118.339 372.967 118.206 373.607 117.94 374.18C117.687 374.767 117.334 375.267 116.882 375.68C116.429 376.093 115.897 376.413 115.285 376.64C114.673 376.867 114.021 376.98 113.329 376.98C112.318 376.98 111.406 376.74 110.595 376.26C109.783 375.78 109.171 375.14 108.758 374.34L109.856 373.38C110.229 373.993 110.721 374.487 111.333 374.86C111.959 375.233 112.631 375.42 113.349 375.42C113.801 375.42 114.221 375.34 114.607 375.18C115.006 375.033 115.345 374.82 115.624 374.54C115.917 374.273 116.143 373.947 116.303 373.56C116.463 373.173 116.543 372.747 116.543 372.28C116.543 371.84 116.463 371.433 116.303 371.06C116.143 370.687 115.924 370.367 115.644 370.1C115.378 369.833 115.059 369.627 114.686 369.48C114.314 369.333 113.915 369.26 113.489 369.26C112.917 369.26 112.378 369.387 111.872 369.64C111.38 369.893 110.974 370.253 110.655 370.72H109.078C109.091 370.653 109.124 370.487 109.178 370.22C109.231 369.94 109.297 369.607 109.377 369.22C109.457 368.82 109.544 368.38 109.637 367.9C109.73 367.42 109.823 366.933 109.916 366.44C110.142 365.293 110.395 364.007 110.675 362.58H117.56V364.2H111.972L111.114 368.72C111.406 368.413 111.772 368.173 112.211 368C112.651 367.813 113.149 367.72 113.708 367.72Z" fill="black"></path>
        <path d="M131.609 368.14C131.609 369.02 131.482 369.833 131.23 370.58C130.977 371.313 130.624 371.953 130.172 372.5C129.719 373.033 129.18 373.453 128.555 373.76C127.943 374.053 127.278 374.2 126.559 374.2C125.827 374.2 125.149 374.053 124.523 373.76C123.911 373.453 123.379 373.033 122.927 372.5C122.487 371.953 122.141 371.313 121.889 370.58C121.636 369.833 121.509 369.02 121.509 368.14C121.509 367.26 121.636 366.453 121.889 365.72C122.141 364.973 122.487 364.333 122.927 363.8C123.379 363.253 123.911 362.827 124.523 362.52C125.149 362.213 125.827 362.06 126.559 362.06C127.278 362.06 127.943 362.213 128.555 362.52C129.18 362.827 129.719 363.253 130.172 363.8C130.624 364.333 130.977 364.973 131.23 365.72C131.482 366.453 131.609 367.26 131.609 368.14ZM129.832 368.14C129.832 367.487 129.753 366.887 129.593 366.34C129.433 365.793 129.207 365.327 128.914 364.94C128.622 364.54 128.276 364.233 127.876 364.02C127.477 363.807 127.038 363.7 126.559 363.7C126.067 363.7 125.614 363.807 125.202 364.02C124.803 364.233 124.457 364.54 124.164 364.94C123.885 365.327 123.665 365.793 123.505 366.34C123.346 366.887 123.266 367.487 123.266 368.14C123.266 368.807 123.346 369.413 123.505 369.96C123.665 370.493 123.885 370.953 124.164 371.34C124.457 371.727 124.803 372.027 125.202 372.24C125.614 372.453 126.067 372.56 126.559 372.56C127.038 372.56 127.477 372.453 127.876 372.24C128.276 372.027 128.622 371.727 128.914 371.34C129.207 370.953 129.433 370.493 129.593 369.96C129.753 369.413 129.832 368.807 129.832 368.14Z" fill="black"></path>
        <path d="M141.394 366.18V367.62H139.039V370.18H137.442V367.62H135.087V366.18H137.442V363.62H139.039V366.18H141.394Z" fill="black"></path>
        <path d="M160.254 362.78C160.095 362.593 159.882 362.413 159.616 362.24C159.35 362.067 159.05 361.913 158.718 361.78C158.385 361.633 158.019 361.52 157.62 361.44C157.234 361.347 156.828 361.3 156.402 361.3C155.298 361.3 154.486 361.507 153.967 361.92C153.462 362.333 153.209 362.9 153.209 363.62C153.209 364.007 153.282 364.327 153.428 364.58C153.575 364.833 153.801 365.053 154.107 365.24C154.426 365.413 154.819 365.567 155.285 365.7C155.75 365.833 156.303 365.973 156.941 366.12C157.673 366.28 158.332 366.467 158.917 366.68C159.516 366.88 160.022 367.133 160.434 367.44C160.86 367.747 161.179 368.12 161.392 368.56C161.618 369 161.731 369.54 161.731 370.18C161.731 370.86 161.598 371.453 161.332 371.96C161.066 372.453 160.7 372.867 160.234 373.2C159.782 373.52 159.243 373.76 158.618 373.92C157.992 374.067 157.314 374.14 156.582 374.14C155.491 374.14 154.453 373.973 153.468 373.64C152.497 373.293 151.612 372.793 150.814 372.14L151.672 370.62C151.885 370.847 152.158 371.073 152.49 371.3C152.836 371.527 153.222 371.733 153.648 371.92C154.087 372.093 154.553 372.24 155.045 372.36C155.551 372.467 156.076 372.52 156.622 372.52C157.633 372.52 158.418 372.34 158.977 371.98C159.536 371.62 159.815 371.08 159.815 370.36C159.815 369.96 159.722 369.627 159.536 369.36C159.363 369.08 159.103 368.84 158.757 368.64C158.412 368.44 157.979 368.267 157.46 368.12C156.955 367.96 156.376 367.8 155.724 367.64C155.005 367.467 154.373 367.28 153.828 367.08C153.282 366.88 152.823 366.64 152.45 366.36C152.091 366.08 151.818 365.74 151.632 365.34C151.446 364.94 151.353 364.46 151.353 363.9C151.353 363.22 151.479 362.62 151.732 362.1C151.985 361.58 152.337 361.14 152.79 360.78C153.242 360.42 153.781 360.153 154.406 359.98C155.032 359.793 155.71 359.7 156.442 359.7C157.4 359.7 158.265 359.847 159.037 360.14C159.809 360.433 160.494 360.827 161.093 361.32L160.254 362.78Z" fill="black"></path>
        <path d="M165.491 374V359.8H167.288V372.4H175.191V374H165.491Z" fill="black"></path>
        <path d="M178.544 374V359.8H180.341V374H178.544Z" fill="black"></path>
        <path d="M185.126 374V359.8H190.036C191.167 359.8 192.159 359.987 193.01 360.36C193.875 360.733 194.594 361.24 195.166 361.88C195.738 362.52 196.164 363.273 196.443 364.14C196.736 364.993 196.882 365.907 196.882 366.88C196.882 367.96 196.723 368.94 196.403 369.82C196.084 370.687 195.625 371.433 195.026 372.06C194.427 372.673 193.702 373.153 192.85 373.5C192.012 373.833 191.074 374 190.036 374H185.126ZM195.066 366.88C195.066 366.08 194.953 365.347 194.727 364.68C194.514 364 194.188 363.42 193.749 362.94C193.323 362.46 192.797 362.087 192.172 361.82C191.546 361.54 190.835 361.4 190.036 361.4H186.923V372.4H190.036C190.848 372.4 191.566 372.26 192.192 371.98C192.83 371.7 193.356 371.313 193.769 370.82C194.194 370.327 194.514 369.747 194.727 369.08C194.953 368.4 195.066 367.667 195.066 366.88Z" fill="black"></path>
        <path d="M210.431 372.4V374H200.811V359.8H210.251V361.4H202.607V366H209.253V367.5H202.607V372.4H210.431Z" fill="black"></path>
        <path d="M214.292 374V359.8H220.36C220.985 359.8 221.558 359.933 222.077 360.2C222.609 360.453 223.061 360.8 223.434 361.24C223.82 361.667 224.119 362.153 224.332 362.7C224.545 363.233 224.651 363.78 224.651 364.34C224.651 364.833 224.578 365.313 224.432 365.78C224.299 366.233 224.099 366.647 223.833 367.02C223.58 367.393 223.267 367.713 222.895 367.98C222.536 368.247 222.13 368.44 221.677 368.56L225.11 374H223.075L219.841 368.9H216.089V374H214.292ZM216.089 367.3H220.38C220.753 367.3 221.085 367.22 221.378 367.06C221.684 366.9 221.944 366.687 222.156 366.42C222.369 366.14 222.536 365.82 222.655 365.46C222.775 365.1 222.835 364.727 222.835 364.34C222.835 363.94 222.762 363.567 222.615 363.22C222.482 362.86 222.296 362.547 222.057 362.28C221.83 362 221.558 361.787 221.238 361.64C220.932 361.48 220.606 361.4 220.26 361.4H216.089V367.3Z" fill="black"></path>
        <path d="M243.576 362.78C243.416 362.593 243.203 362.413 242.937 362.24C242.671 362.067 242.372 361.913 242.039 361.78C241.706 361.633 241.34 361.52 240.941 361.44C240.555 361.347 240.149 361.3 239.724 361.3C238.619 361.3 237.808 361.507 237.289 361.92C236.783 362.333 236.53 362.9 236.53 363.62C236.53 364.007 236.603 364.327 236.75 364.58C236.896 364.833 237.122 365.053 237.428 365.24C237.748 365.413 238.14 365.567 238.606 365.7C239.072 365.833 239.624 365.973 240.263 366.12C240.994 366.28 241.653 366.467 242.239 366.68C242.837 366.88 243.343 367.133 243.755 367.44C244.181 367.747 244.501 368.12 244.713 368.56C244.94 369 245.053 369.54 245.053 370.18C245.053 370.86 244.92 371.453 244.654 371.96C244.387 372.453 244.022 372.867 243.556 373.2C243.103 373.52 242.565 373.76 241.939 373.92C241.314 374.067 240.635 374.14 239.903 374.14C238.812 374.14 237.774 373.973 236.79 373.64C235.818 373.293 234.933 372.793 234.135 372.14L234.993 370.62C235.206 370.847 235.479 371.073 235.812 371.3C236.158 371.527 236.543 371.733 236.969 371.92C237.408 372.093 237.874 372.24 238.366 372.36C238.872 372.467 239.398 372.52 239.943 372.52C240.954 372.52 241.74 372.34 242.298 371.98C242.857 371.62 243.137 371.08 243.137 370.36C243.137 369.96 243.044 369.627 242.857 369.36C242.684 369.08 242.425 368.84 242.079 368.64C241.733 368.44 241.3 368.267 240.782 368.12C240.276 367.96 239.697 367.8 239.045 367.64C238.327 367.467 237.694 367.28 237.149 367.08C236.603 366.88 236.144 366.64 235.772 366.36C235.412 366.08 235.14 365.74 234.953 365.34C234.767 364.94 234.674 364.46 234.674 363.9C234.674 363.22 234.8 362.62 235.053 362.1C235.306 361.58 235.659 361.14 236.111 360.78C236.563 360.42 237.102 360.153 237.728 359.98C238.353 359.793 239.032 359.7 239.764 359.7C240.722 359.7 241.587 359.847 242.358 360.14C243.13 360.433 243.815 360.827 244.414 361.32L243.576 362.78Z" fill="black"></path>
        <path d="M259.032 361.4H254.142V374H252.345V361.4H247.455V359.8H259.032V361.4Z" fill="black"></path>
        <path d="M265.436 359.8H266.953L272.741 374H270.825L269.149 369.84H263.201L261.544 374H259.628L265.436 359.8ZM268.749 368.44L266.195 361.88L263.56 368.44H268.749Z" fill="black"></path>
        <path d="M276.03 374V359.8H282.097C282.723 359.8 283.295 359.933 283.814 360.2C284.346 360.453 284.799 360.8 285.171 361.24C285.557 361.667 285.856 362.153 286.069 362.7C286.282 363.233 286.389 363.78 286.389 364.34C286.389 364.833 286.315 365.313 286.169 365.78C286.036 366.233 285.836 366.647 285.57 367.02C285.317 367.393 285.005 367.713 284.632 367.98C284.273 368.247 283.867 368.44 283.415 368.56L286.848 374H284.812L281.578 368.9H277.826V374H276.03ZM277.826 367.3H282.117C282.49 367.3 282.823 367.22 283.115 367.06C283.421 366.9 283.681 366.687 283.894 366.42C284.107 366.14 284.273 365.82 284.393 365.46C284.512 365.1 284.572 364.727 284.572 364.34C284.572 363.94 284.499 363.567 284.353 363.22C284.22 362.86 284.033 362.547 283.794 362.28C283.568 362 283.295 361.787 282.976 361.64C282.67 361.48 282.344 361.4 281.998 361.4H277.826V367.3Z" fill="black"></path>
        <path d="M300.647 361.4H295.757V374H293.96V361.4H289.07V359.8H300.647V361.4Z" fill="black"></path>
        <path d="M313.705 372.4V374H304.085V359.8H313.526V361.4H305.881V366H312.528V367.5H305.881V372.4H313.705Z" fill="black"></path>
        <path d="M317.567 374V359.8H323.634C324.26 359.8 324.832 359.933 325.351 360.2C325.883 360.453 326.336 360.8 326.708 361.24C327.094 361.667 327.393 362.153 327.606 362.7C327.819 363.233 327.926 363.78 327.926 364.34C327.926 364.833 327.853 365.313 327.706 365.78C327.573 366.233 327.373 366.647 327.107 367.02C326.855 367.393 326.542 367.713 326.169 367.98C325.81 368.247 325.404 368.44 324.952 368.56L328.385 374H326.349L323.116 368.9H319.363V374H317.567ZM319.363 367.3H323.654C324.027 367.3 324.36 367.22 324.652 367.06C324.958 366.9 325.218 366.687 325.431 366.42C325.644 366.14 325.81 365.82 325.93 365.46C326.05 365.1 326.109 364.727 326.109 364.34C326.109 363.94 326.036 363.567 325.89 363.22C325.757 362.86 325.571 362.547 325.331 362.28C325.105 362 324.832 361.787 324.513 361.64C324.207 361.48 323.881 361.4 323.535 361.4H319.363V367.3Z" fill="black"></path>
        <path d="M348.148 372.4V374H338.527V359.8H347.968V361.4H340.324V366H346.97V367.5H340.324V372.4H348.148Z" fill="black"></path>
        <path d="M352.368 359.8L356.68 365.72L360.991 359.8H362.967L357.638 367L362.807 374H360.831L356.68 368.28L352.528 374H350.532L355.702 367L350.372 359.8H352.368Z" fill="black"></path>
        <path d="M370.426 359.8H371.943L377.731 374H375.815L374.138 369.84H368.19L366.534 374H364.618L370.426 359.8ZM373.739 368.44L371.184 361.88L368.55 368.44H373.739Z" fill="black"></path>
        <path d="M393.274 374V363.02L388.564 371.44H387.546L382.816 363.02V374H381.019V359.8H382.916L388.045 369.02L393.195 359.8H395.071V374H393.274Z" fill="black"></path>
        <path d="M399.861 374V359.8H405.769C406.395 359.8 406.967 359.933 407.486 360.2C408.018 360.453 408.471 360.8 408.843 361.24C409.229 361.667 409.528 362.153 409.741 362.7C409.954 363.233 410.061 363.78 410.061 364.34C410.061 364.927 409.961 365.493 409.761 366.04C409.562 366.587 409.276 367.073 408.903 367.5C408.544 367.927 408.105 368.267 407.586 368.52C407.08 368.773 406.514 368.9 405.889 368.9H401.658V374H399.861ZM401.658 367.3H405.789C406.162 367.3 406.495 367.227 406.787 367.08C407.093 366.92 407.353 366.707 407.566 366.44C407.779 366.16 407.945 365.84 408.065 365.48C408.184 365.12 408.244 364.74 408.244 364.34C408.244 363.927 408.171 363.54 408.025 363.18C407.892 362.82 407.705 362.507 407.466 362.24C407.24 361.973 406.967 361.767 406.648 361.62C406.342 361.473 406.016 361.4 405.67 361.4H401.658V367.3Z" fill="black"></path>
        <path d="M413.694 374V359.8H415.49V372.4H423.394V374H413.694Z" fill="black"></path>
        <path d="M436.368 372.4V374H426.747V359.8H436.188V361.4H428.543V366H435.19V367.5H428.543V372.4H436.368Z" fill="black"></path>
        <path d="M448.552 362.78C448.392 362.593 448.179 362.413 447.913 362.24C447.647 362.067 447.348 361.913 447.015 361.78C446.683 361.633 446.317 361.52 445.917 361.44C445.532 361.347 445.126 361.3 444.7 361.3C443.595 361.3 442.784 361.507 442.265 361.92C441.759 362.333 441.506 362.9 441.506 363.62C441.506 364.007 441.58 364.327 441.726 364.58C441.872 364.833 442.099 365.053 442.405 365.24C442.724 365.413 443.116 365.567 443.582 365.7C444.048 365.833 444.6 365.973 445.239 366.12C445.971 366.28 446.629 366.467 447.215 366.68C447.814 366.88 448.319 367.133 448.732 367.44C449.157 367.747 449.477 368.12 449.69 368.56C449.916 369 450.029 369.54 450.029 370.18C450.029 370.86 449.896 371.453 449.63 371.96C449.364 372.453 448.998 372.867 448.532 373.2C448.08 373.52 447.541 373.76 446.915 373.92C446.29 374.067 445.611 374.14 444.88 374.14C443.788 374.14 442.751 373.973 441.766 373.64C440.795 373.293 439.91 372.793 439.111 372.14L439.97 370.62C440.182 370.847 440.455 371.073 440.788 371.3C441.134 371.527 441.52 371.733 441.946 371.92C442.385 372.093 442.85 372.24 443.343 372.36C443.848 372.467 444.374 372.52 444.919 372.52C445.931 372.52 446.716 372.34 447.275 371.98C447.833 371.62 448.113 371.08 448.113 370.36C448.113 369.96 448.02 369.627 447.833 369.36C447.661 369.08 447.401 368.84 447.055 368.64C446.709 368.44 446.277 368.267 445.758 368.12C445.252 367.96 444.673 367.8 444.021 367.64C443.303 367.467 442.671 367.28 442.125 367.08C441.58 366.88 441.121 366.64 440.748 366.36C440.389 366.08 440.116 365.74 439.93 365.34C439.743 364.94 439.65 364.46 439.65 363.9C439.65 363.22 439.777 362.62 440.029 362.1C440.282 361.58 440.635 361.14 441.087 360.78C441.54 360.42 442.079 360.153 442.704 359.98C443.329 359.793 444.008 359.7 444.74 359.7C445.698 359.7 446.563 359.847 447.335 360.14C448.106 360.433 448.792 360.827 449.39 361.32L448.552 362.78Z" fill="black"></path>
      </g>
      <path id="d0265ef4dff268e34c99b92c4cba0f7e" fill-rule="evenodd" clip-rule="evenodd" d="M450.082 335L42.9125 335L42.9125 334L450.082 334L450.082 335Z" fill="black"></path>
    </g>
  </g>
</svg>