<svg xmlns="http://www.w3.org/2000/svg" viewBox="0 0 160 51" width="160" height="51"><defs><style>.cls-1{fill:#c05;}.cls-2{fill:#999;}</style></defs><g id="Rounded_Rectangle_17" data-name="Rounded Rectangle 17"><path class="cls-1" d="M65,40a5,5,0,0,1,0,10H6A5,5,0,0,1,6,40H65m0-1H6A6,6,0,0,0,6,51H65a6,6,0,0,0,0-12Z"/></g><path class="cls-2" d="M148,30h7a2,2,0,0,0,2-2V2a2,2,0,0,0-2-2h-7a2,2,0,0,0-2,2V28A2,2,0,0,0,148,30ZM147,2a1,1,0,0,1,1-1h7a1,1,0,0,1,1,1V28a1,1,0,0,1-1,1h-7a1,1,0,0,1-1-1Z"/><path class="cls-2" d="M132,30h7a2,2,0,0,0,2-2V2a2,2,0,0,0-2-2h-7a2,2,0,0,0-2,2V28A2,2,0,0,0,132,30ZM131,2a1,1,0,0,1,1-1h7a1,1,0,0,1,1,1V28a1,1,0,0,1-1,1h-7a1,1,0,0,1-1-1Z"/><path class="cls-2" d="M160,44.25A6.15,6.15,0,0,0,153.77,39H75v1h78.77A5.12,5.12,0,0,1,159,44.37a4.91,4.91,0,0,1-1.22,3.94A5,5,0,0,1,154,50H75v1h79A6,6,0,0,0,160,44.25Z"/></svg>