<svg xmlns="http://www.w3.org/2000/svg" viewBox="0 0 160 59" width="160" height="59"><defs><style>.cls-1{fill:#999;}.cls-2{fill:#c05;}</style></defs><g id="Rounded_Rectangle_9" data-name="Rounded Rectangle 9"><path class="cls-1" d="M152,1a1,1,0,0,1,1,1V33H110V2a1,1,0,0,1,1-1h41M49,1a1,1,0,0,1,1,1V33H7V2A1,1,0,0,1,8,1H49M152,0H111a2,2,0,0,0-2,2V34h45V2a2,2,0,0,0-2-2ZM49,0H8A2,2,0,0,0,6,2V34H51V2a2,2,0,0,0-2-2Z"/></g><path class="cls-2" d="M104,1a2,2,0,0,1,2,2V34h51a2,2,0,0,1,2,2V55.1A5,5,0,0,0,156,57a5,5,0,0,0-8,0,5,5,0,0,0-8,0,5,5,0,0,0-8,0,5,5,0,0,0-8,0,5,5,0,0,0-8,0,5,5,0,0,0-8,0,5,5,0,0,0-8,0,5,5,0,0,0-8,0,5,5,0,0,0-8,0,5,5,0,0,0-8,0,5,5,0,0,0-8,0,5,5,0,0,0-8,0,5,5,0,0,0-8,0,5,5,0,0,0-8,0,5,5,0,0,0-8,0,5,5,0,0,0-8,0,5,5,0,0,0-8,0,5,5,0,0,0-8,0,5,5,0,0,0-8,0A5,5,0,0,0,1,55.1V36a2,2,0,0,1,2-2H54V3a2,2,0,0,1,2-2h48m0-1H56a3,3,0,0,0-3,3V33H3a3,3,0,0,0-3,3V56a4,4,0,0,1,3.86,3h.28a4,4,0,0,1,7.72,0h.28a4,4,0,0,1,7.72,0h.28a4,4,0,0,1,7.72,0h.28a4,4,0,0,1,7.72,0h.28a4,4,0,0,1,7.72,0h.28a4,4,0,0,1,7.72,0h.28a4,4,0,0,1,7.72,0h.28a4,4,0,0,1,7.72,0h.28a4,4,0,0,1,7.72,0h.28a4,4,0,0,1,7.72,0h.28a4,4,0,0,1,7.72,0h.28a4,4,0,0,1,7.72,0h.28a4,4,0,0,1,7.72,0h.28a4,4,0,0,1,7.72,0h.28a4,4,0,0,1,7.72,0h.28a4,4,0,0,1,7.72,0h.28a4,4,0,0,1,7.72,0h.28a4,4,0,0,1,7.72,0h.28a4,4,0,0,1,7.72,0h.28A4,4,0,0,1,160,56V36a3,3,0,0,0-3-3H107V3a3,3,0,0,0-3-3Z"/></svg>