<svg xmlns="http://www.w3.org/2000/svg" viewBox="0 0 104 90" width="104" height="90"><defs><style>.cls-1{fill:#c05;}</style></defs><path class="cls-1" d="M2,26H13c4.14,0,9.92,2.41,14,9,.4.65.94,1.56,1.57,2.65l.64-.89c-.54-.92-1-1.71-1.36-2.29C23.52,27.49,17.34,25,13,25H2a1,1,0,0,1-1-1V22.59C1,20.32,1,16.12,1,13c0-1.25.32-2,2-2h7c3.51,0,6.2.58,13.7,2.95,4.24,1.35,8.87,5.94,13.45,11.78l.61-.84C33.12,19,28.41,14.4,24,13c-7.59-2.4-10.39-3-14-3H3c-2.49,0-3,1.5-3,3,0,4,0,9.84,0,11A2,2,0,0,0,2,26Z"/><path class="cls-1" d="M74,65h-.23A15.77,15.77,0,0,1,61,59c-1.55-1.9-3.28-4.39-5.15-7.23l-.63.87c1.81,2.72,3.5,5.14,5,7A16.73,16.73,0,0,0,73.77,66H75V56.77L102,73,75,88.28V79H74c-8.51,0-9.19-.26-13.65-1.94-4.16-1.57-9-6.58-13.6-12.66l-.62.86C50.81,71.35,55.68,76.37,60,78c4.67,1.76,5.53,2,14,2V90l30-17L74,55Z"/><path class="cls-1" d="M73.77,25H74V35l30-18L74,0V10c-8.47,0-9.33.24-14,2C47.76,16.61,31.08,48.41,27,55s-9.86,9-14,9H2a2,2,0,0,0-2,2c0,1.16,0,7,0,11,0,1.5.51,3,3,3h7c3.61,0,6.41-.6,14-3,12.78-4,28-35,37-46A15.77,15.77,0,0,1,73.77,25ZM50.43,44.78C42.32,57.51,32.23,73.34,23.7,76.05c-7.5,2.37-10.19,3-13.7,3H3c-1.69,0-2-.75-2-2,0-3.12,0-7.32,0-9.59V66a1,1,0,0,1,1-1H13c4.34,0,10.52-2.49,14.85-9.47.61-1,1.47-2.49,2.57-4.39,5.93-10.29,19.82-34.4,29.93-38.2C64.81,11.26,65.49,11,74,11h1V1.72L102,17,75,33.23V24H73.77a16.73,16.73,0,0,0-13.55,6.37C57.44,33.78,54,39.13,50.43,44.78Z"/></svg>