<?xml version="1.0" encoding="utf-8"?>
<!-- Generator: Adobe Illustrator 16.0.0, SVG Export Plug-In . SVG Version: 6.00 Build 0)  -->
<!DOCTYPE svg PUBLIC "-//W3C//DTD SVG 1.1//EN" "http://www.w3.org/Graphics/SVG/1.1/DTD/svg11.dtd">
<svg version="1.1" id="Layer_1" xmlns="http://www.w3.org/2000/svg" xmlns:xlink="http://www.w3.org/1999/xlink" x="0px" y="0px"
	 width="300px" height="200px" viewBox="0 0 300 200" enable-background="new 0 0 300 200" xml:space="preserve">
<g>
	<defs>
		<path id="SVGID_1_" d="M300,190c0,5.522-4.478,10-10,10H10c-5.523,0-10-4.478-10-10V10C0,4.477,4.477,0,10,0h280
			c5.522,0,10,4.477,10,10V190z"/>
	</defs>
	<use xlink:href="#SVGID_1_"  overflow="visible" fill="#FFFFFF"/>
	<clipPath id="SVGID_2_">
		<use xlink:href="#SVGID_1_"  overflow="visible"/>
	</clipPath>
	<g clip-path="url(#SVGID_2_)">
		<rect fill="#EEEEEE" width="300" height="155"/>
		<g>
			<rect x="-26" fill="#FFFFFF" width="400" height="20"/>
			<line fill="none" stroke="#0066CC" stroke-miterlimit="10" x1="73.5" y1="0" x2="73.5" y2="20"/>
			<line fill="none" stroke="#CCCCCC" stroke-miterlimit="10" x1="174.5" y1="0" x2="174.5" y2="20"/>
			<line fill="none" stroke="#CCCCCC" stroke-miterlimit="10" x1="274.5" y1="0" x2="274.5" y2="20"/>
			<line fill="none" stroke="#CCCCCC" stroke-miterlimit="10" x1="4.5" y1="15" x2="4.5" y2="20"/>
			<line fill="none" stroke="#CCCCCC" stroke-miterlimit="10" x1="14.5" y1="15" x2="14.5" y2="20"/>
			<line fill="none" stroke="#CCCCCC" stroke-miterlimit="10" x1="24.5" y1="15" x2="24.5" y2="20"/>
			<line fill="none" stroke="#CCCCCC" stroke-miterlimit="10" x1="34.5" y1="15" x2="34.5" y2="20"/>
			<line fill="none" stroke="#CCCCCC" stroke-miterlimit="10" x1="44.5" y1="15" x2="44.5" y2="20"/>
			<line fill="none" stroke="#CCCCCC" stroke-miterlimit="10" x1="54.5" y1="15" x2="54.5" y2="20"/>
			<line fill="none" stroke="#CCCCCC" stroke-miterlimit="10" x1="64.5" y1="15" x2="64.5" y2="20"/>
			<line fill="none" stroke="#CCCCCC" stroke-miterlimit="10" x1="84.5" y1="15" x2="84.5" y2="20"/>
			<line fill="none" stroke="#CCCCCC" stroke-miterlimit="10" x1="94.5" y1="15" x2="94.5" y2="20"/>
			<line fill="none" stroke="#CCCCCC" stroke-miterlimit="10" x1="104.5" y1="15" x2="104.5" y2="20"/>
			<line fill="none" stroke="#CCCCCC" stroke-miterlimit="10" x1="114.5" y1="15" x2="114.5" y2="20"/>
			<line fill="none" stroke="#CCCCCC" stroke-miterlimit="10" x1="124.5" y1="15" x2="124.5" y2="20"/>
			<line fill="none" stroke="#CCCCCC" stroke-miterlimit="10" x1="134.5" y1="15" x2="134.5" y2="20"/>
			<line fill="none" stroke="#CCCCCC" stroke-miterlimit="10" x1="144.5" y1="15" x2="144.5" y2="20"/>
			<line fill="none" stroke="#CCCCCC" stroke-miterlimit="10" x1="154.5" y1="15" x2="154.5" y2="20"/>
			<line fill="none" stroke="#CCCCCC" stroke-miterlimit="10" x1="164.5" y1="15" x2="164.5" y2="20"/>
			<line fill="none" stroke="#CCCCCC" stroke-miterlimit="10" x1="184.5" y1="15" x2="184.5" y2="20"/>
			<line fill="none" stroke="#CCCCCC" stroke-miterlimit="10" x1="194.5" y1="15" x2="194.5" y2="20"/>
			<line fill="none" stroke="#CCCCCC" stroke-miterlimit="10" x1="204.5" y1="15" x2="204.5" y2="20"/>
			<line fill="none" stroke="#CCCCCC" stroke-miterlimit="10" x1="214.5" y1="15" x2="214.5" y2="20"/>
			<line fill="none" stroke="#CCCCCC" stroke-miterlimit="10" x1="224.5" y1="15" x2="224.5" y2="20"/>
			<line fill="none" stroke="#CCCCCC" stroke-miterlimit="10" x1="234.5" y1="15" x2="234.5" y2="20"/>
			<line fill="none" stroke="#CCCCCC" stroke-miterlimit="10" x1="244.5" y1="15" x2="244.5" y2="20"/>
			<line fill="none" stroke="#CCCCCC" stroke-miterlimit="10" x1="254.5" y1="15" x2="254.5" y2="20"/>
			<line fill="none" stroke="#CCCCCC" stroke-miterlimit="10" x1="264.5" y1="15" x2="264.5" y2="20"/>
			<line fill="none" stroke="#CCCCCC" stroke-miterlimit="10" x1="284.5" y1="15" x2="284.5" y2="20"/>
			<line fill="none" stroke="#CCCCCC" stroke-miterlimit="10" x1="294.5" y1="15" x2="294.5" y2="20"/>
			<g>
				<path fill="#0066CC" d="M83.125,8.137c0,0.987-0.155,1.724-0.467,2.211s-0.787,0.73-1.428,0.73c-0.614,0-1.082-0.25-1.402-0.748
					s-0.48-1.23-0.48-2.193c0-0.995,0.155-1.733,0.465-2.215s0.782-0.723,1.418-0.723c0.62,0,1.091,0.251,1.412,0.754
					S83.125,7.184,83.125,8.137z M80.004,8.137c0,0.831,0.098,1.436,0.293,1.814s0.507,0.568,0.934,0.568
					c0.433,0,0.745-0.192,0.939-0.576s0.291-0.986,0.291-1.807s-0.097-1.421-0.291-1.803s-0.507-0.572-0.939-0.572
					c-0.427,0-0.738,0.188-0.934,0.564S80.004,7.306,80.004,8.137z"/>
			</g>
			<g>
				<path fill="#666666" d="M181.742,11h-0.633V6.93c0-0.338,0.011-0.659,0.031-0.961c-0.055,0.055-0.116,0.112-0.184,0.172
					s-0.378,0.314-0.93,0.762l-0.344-0.445l1.512-1.168h0.547V11z"/>
				<path fill="#666666" d="M187.699,8.137c0,0.987-0.155,1.724-0.467,2.211s-0.787,0.73-1.428,0.73
					c-0.614,0-1.082-0.25-1.402-0.748s-0.48-1.23-0.48-2.193c0-0.995,0.155-1.733,0.465-2.215s0.782-0.723,1.418-0.723
					c0.62,0,1.091,0.251,1.412,0.754S187.699,7.184,187.699,8.137z M184.578,8.137c0,0.831,0.098,1.436,0.293,1.814
					s0.507,0.568,0.934,0.568c0.433,0,0.745-0.192,0.939-0.576s0.291-0.986,0.291-1.807s-0.097-1.421-0.291-1.803
					s-0.507-0.572-0.939-0.572c-0.427,0-0.738,0.188-0.934,0.564S184.578,7.306,184.578,8.137z"/>
				<path fill="#666666" d="M192.273,8.137c0,0.987-0.155,1.724-0.467,2.211s-0.787,0.73-1.428,0.73
					c-0.614,0-1.082-0.25-1.402-0.748s-0.48-1.23-0.48-2.193c0-0.995,0.155-1.733,0.465-2.215s0.782-0.723,1.418-0.723
					c0.62,0,1.091,0.251,1.412,0.754S192.273,7.184,192.273,8.137z M189.152,8.137c0,0.831,0.098,1.436,0.293,1.814
					s0.507,0.568,0.934,0.568c0.433,0,0.745-0.192,0.939-0.576s0.291-0.986,0.291-1.807s-0.097-1.421-0.291-1.803
					s-0.507-0.572-0.939-0.572c-0.427,0-0.738,0.188-0.934,0.564S189.152,7.306,189.152,8.137z"/>
			</g>
			<g>
				<path fill="#666666" d="M283.094,11h-3.754v-0.559l1.504-1.512c0.458-0.463,0.761-0.794,0.906-0.992s0.255-0.391,0.328-0.578
					s0.109-0.389,0.109-0.605c0-0.305-0.093-0.546-0.277-0.725s-0.441-0.268-0.77-0.268c-0.237,0-0.462,0.039-0.674,0.117
					s-0.448,0.22-0.709,0.426l-0.344-0.441c0.526-0.438,1.099-0.656,1.719-0.656c0.536,0,0.957,0.137,1.262,0.412
					s0.457,0.644,0.457,1.107c0,0.362-0.102,0.72-0.305,1.074s-0.583,0.802-1.141,1.344l-1.25,1.223v0.031h2.938V11z"/>
				<path fill="#666666" d="M287.699,8.137c0,0.987-0.155,1.724-0.467,2.211s-0.787,0.73-1.428,0.73
					c-0.614,0-1.082-0.25-1.402-0.748s-0.48-1.23-0.48-2.193c0-0.995,0.155-1.733,0.465-2.215s0.782-0.723,1.418-0.723
					c0.62,0,1.091,0.251,1.412,0.754S287.699,7.184,287.699,8.137z M284.578,8.137c0,0.831,0.098,1.436,0.293,1.814
					s0.507,0.568,0.934,0.568c0.433,0,0.745-0.192,0.939-0.576s0.291-0.986,0.291-1.807s-0.097-1.421-0.291-1.803
					s-0.507-0.572-0.939-0.572c-0.427,0-0.738,0.188-0.934,0.564S284.578,7.306,284.578,8.137z"/>
				<path fill="#666666" d="M292.273,8.137c0,0.987-0.155,1.724-0.467,2.211s-0.787,0.73-1.428,0.73
					c-0.614,0-1.082-0.25-1.402-0.748s-0.48-1.23-0.48-2.193c0-0.995,0.155-1.733,0.465-2.215s0.782-0.723,1.418-0.723
					c0.62,0,1.091,0.251,1.412,0.754S292.273,7.184,292.273,8.137z M289.152,8.137c0,0.831,0.098,1.436,0.293,1.814
					s0.507,0.568,0.934,0.568c0.433,0,0.745-0.192,0.939-0.576s0.291-0.986,0.291-1.807s-0.097-1.421-0.291-1.803
					s-0.507-0.572-0.939-0.572c-0.427,0-0.738,0.188-0.934,0.564S289.152,7.306,289.152,8.137z"/>
			</g>
			<line fill="none" stroke="#CCCCCC" stroke-miterlimit="10" x1="375" y1="19.5" x2="-26" y2="19.5"/>
		</g>
		<line fill="none" stroke="#CC0055" stroke-miterlimit="10" x1="0" y1="154.5" x2="270" y2="154.5"/>
		<circle fill="#CC0055" cx="269.699" cy="154.5" r="5.5"/>
		<g>
			<g opacity="0.35">
				<path d="M94.514,186.891C93.599,187.501,93,187.1,93,186v-16c0-1.1,0.599-1.501,1.514-0.891l11.597,7.781
					c0.915,0.61,0.953,1.608,0.038,2.219L94.514,186.891z"/>
			</g>
			<g opacity="0.35">
				<g>
					<path d="M147,185c0,1.104-0.896,2-2,2h-3c-1.104,0-2-0.896-2-2v-14c0-1.104,0.896-2,2-2h3c1.104,0,2,0.896,2,2V185z"/>
				</g>
				<g>
					<path d="M158,185c0,1.104-0.896,2-2,2h-3c-1.104,0-2-0.896-2-2v-14c0-1.104,0.896-2,2-2h3c1.104,0,2,0.896,2,2V185z"/>
				</g>
			</g>
			<path opacity="0.35" d="M198,169v-3l-7,5l7,5v-3c3,0,5.35,2.238,5.35,5s-2.063,5-4.825,5s-4.825-2.238-4.825-5h-4
				c0,4.971,4.029,9,9,9s8.65-4.029,8.65-9S203,169,198,169z"/>
		</g>
		<g>
			<defs>
				<path id="SVGID_3_" d="M234,39c0-2.209-1.791-4-4-4H78c-2.209,0-4,1.791-4,4v92c0,2.209,1.791,4,4,4h152c2.209,0,4-1.791,4-4V39
					z M141.222,72.777c2.333,0,4.226,1.921,4.226,4.292c0,2.368-1.893,4.29-4.226,4.29c-2.334,0-4.226-1.921-4.226-4.29
					C136.996,74.698,138.888,72.777,141.222,72.777z M134.699,97l5.098-10.019l4.706,4.947l6.272-10.262l6.276,6.5l8.404-13.463
					L174.699,97H134.699z"/>
			</defs>
			<clipPath id="SVGID_4_">
				<use xlink:href="#SVGID_3_"  overflow="visible"/>
			</clipPath>
			<g clip-path="url(#SVGID_4_)">
				
					<rect x="79.235" y="-91.442" transform="matrix(0.7071 0.7071 -0.7071 0.7071 50.2993 -58.3252)" fill="#0066CC" width="32.647" height="246"/>
				
					<rect x="102.319" y="-68.356" transform="matrix(0.7071 0.7071 -0.7071 0.7071 73.3905 -67.8894)" fill="#00BB55" width="32.648" height="245.998"/>
				
					<rect x="125.513" y="-45.534" transform="matrix(0.7071 0.7071 -0.7071 0.7071 96.2139 -77.343)" fill="#FF0099" width="31.905" height="245.999"/>
				
					<rect x="147.965" y="-22.712" transform="matrix(0.7071 0.7071 -0.7071 0.7071 119.0328 -86.7953)" fill="#9900AA" width="32.646" height="246"/>
				
					<rect x="171.049" y="0.372" transform="matrix(0.7071 0.7071 -0.7071 0.7071 142.1172 -96.3572)" fill="#EE0000" width="32.647" height="246"/>
				
					<rect x="194.133" y="23.458" transform="matrix(0.7071 0.7071 -0.7071 0.7071 165.2025 -105.9192)" fill="#FFBB00" width="32.648" height="245.999"/>
			</g>
		</g>
	</g>
</g>
</svg>
